<svg width="151" height="39" viewBox="0 0 151 39" fill="none" xmlns="http://www.w3.org/2000/svg">
<path d="M3.23995 14.4C2.18661 14.4 1.37995 14.1 0.819946 13.5C0.27328 12.9 -5.3674e-05 12.0533 -5.3674e-05 10.96V3.44001C-5.3674e-05 2.34668 0.27328 1.50001 0.819946 0.900012C1.37995 0.300012 2.18661 1.14441e-05 3.23995 1.14441e-05C4.29328 1.14441e-05 5.09328 0.300012 5.63995 0.900012C6.19995 1.50001 6.47995 2.34668 6.47995 3.44001V4.92001H4.39995V3.30001C4.39995 2.43335 4.03328 2.00001 3.29995 2.00001C2.56661 2.00001 2.19995 2.43335 2.19995 3.30001V11.12C2.19995 11.9733 2.56661 12.4 3.29995 12.4C4.03328 12.4 4.39995 11.9733 4.39995 11.12V8.98001H6.47995V10.96C6.47995 12.0533 6.19995 12.9 5.63995 13.5C5.09328 14.1 4.29328 14.4 3.23995 14.4ZM10.9962 14.4C9.92953 14.4 9.1162 14.1 8.5562 13.5C7.9962 12.8867 7.7162 12.0133 7.7162 10.88V0.200011H9.9162V11.04C9.9162 11.52 10.0095 11.8667 10.1962 12.08C10.3962 12.2933 10.6762 12.4 11.0362 12.4C11.3962 12.4 11.6695 12.2933 11.8562 12.08C12.0562 11.8667 12.1562 11.52 12.1562 11.04V0.200011H14.2762V10.88C14.2762 12.0133 13.9962 12.8867 13.4362 13.5C12.8762 14.1 12.0629 14.4 10.9962 14.4ZM18.7031 14.4C17.6364 14.4 16.8297 14.1 16.2831 13.5C15.7364 12.8867 15.4631 12.0133 15.4631 10.88V10.08H17.5431V11.04C17.5431 11.9467 17.9231 12.4 18.6831 12.4C19.0564 12.4 19.3364 12.2933 19.5231 12.08C19.7231 11.8533 19.8231 11.4933 19.8231 11C19.8231 10.4133 19.6897 9.90001 19.4231 9.46001C19.1564 9.00668 18.6631 8.46668 17.9431 7.84001C17.0364 7.04001 16.4031 6.32001 16.0431 5.68001C15.6831 5.02668 15.5031 4.29335 15.5031 3.48001C15.5031 2.37335 15.7831 1.52001 16.3431 0.920012C16.9031 0.306678 17.7164 1.14441e-05 18.7831 1.14441e-05C19.8364 1.14441e-05 20.6297 0.306678 21.1631 0.920012C21.7097 1.52001 21.9831 2.38668 21.9831 3.52001V4.10001H19.9031V3.38001C19.9031 2.90001 19.8097 2.55334 19.6231 2.34001C19.4364 2.11334 19.1631 2.00001 18.8031 2.00001C18.0697 2.00001 17.7031 2.44668 17.7031 3.34001C17.7031 3.84668 17.8364 4.32001 18.1031 4.76001C18.3831 5.20001 18.8831 5.73335 19.6031 6.36001C20.5231 7.16001 21.1564 7.88668 21.5031 8.54001C21.8497 9.19335 22.0231 9.96001 22.0231 10.84C22.0231 11.9867 21.7364 12.8667 21.1631 13.48C20.6031 14.0933 19.7831 14.4 18.7031 14.4ZM25.0045 2.20001H22.7045V0.200011H29.5045V2.20001H27.2045V14.2H25.0045V2.20001ZM33.6715 14.4C32.5915 14.4 31.7648 14.0933 31.1915 13.48C30.6182 12.8667 30.3315 12 30.3315 10.88V3.52001C30.3315 2.40001 30.6182 1.53334 31.1915 0.920012C31.7648 0.306678 32.5915 1.14441e-05 33.6715 1.14441e-05C34.7515 1.14441e-05 35.5782 0.306678 36.1515 0.920012C36.7248 1.53334 37.0115 2.40001 37.0115 3.52001V10.88C37.0115 12 36.7248 12.8667 36.1515 13.48C35.5782 14.0933 34.7515 14.4 33.6715 14.4ZM33.6715 12.4C34.4315 12.4 34.8115 11.94 34.8115 11.02V3.38001C34.8115 2.46001 34.4315 2.00001 33.6715 2.00001C32.9115 2.00001 32.5315 2.46001 32.5315 3.38001V11.02C32.5315 11.94 32.9115 12.4 33.6715 12.4ZM38.4993 0.200011H41.6393L43.0393 10.22H43.0793L44.4793 0.200011H47.6193V14.2H45.5393V3.60001H45.4993L43.8993 14.2H42.0593L40.4593 3.60001H40.4193V14.2H38.4993V0.200011ZM52.4642 0.200011H55.6042L57.0042 10.22H57.0442L58.4442 0.200011H61.5842V14.2H59.5042V3.60001H59.4642L57.8642 14.2H56.0242L54.4242 3.60001H54.3842V14.2H52.4642V0.200011ZM63.2259 0.200011H69.2259V2.20001H65.4259V5.90001H68.4459V7.90001H65.4259V12.2H69.2259V14.2H63.2259V0.200011ZM70.4915 0.200011H73.2515L75.3915 8.58001H75.4315V0.200011H77.3915V14.2H75.1315L72.4915 3.98001H72.4515V14.2H70.4915V0.200011ZM78.9667 0.200011H81.2067L80.6667 4.72001H79.4867L78.9667 0.200011ZM85.6562 14.4C84.5895 14.4 83.7829 14.1 83.2362 13.5C82.6895 12.8867 82.4162 12.0133 82.4162 10.88V10.08H84.4962V11.04C84.4962 11.9467 84.8762 12.4 85.6362 12.4C86.0095 12.4 86.2895 12.2933 86.4762 12.08C86.6762 11.8533 86.7762 11.4933 86.7762 11C86.7762 10.4133 86.6429 9.90001 86.3762 9.46001C86.1095 9.00668 85.6162 8.46668 84.8962 7.84001C83.9895 7.04001 83.3562 6.32001 82.9962 5.68001C82.6362 5.02668 82.4562 4.29335 82.4562 3.48001C82.4562 2.37335 82.7362 1.52001 83.2962 0.920012C83.8562 0.306678 84.6695 1.14441e-05 85.7362 1.14441e-05C86.7895 1.14441e-05 87.5829 0.306678 88.1162 0.920012C88.6629 1.52001 88.9362 2.38668 88.9362 3.52001V4.10001H86.8562V3.38001C86.8562 2.90001 86.7629 2.55334 86.5762 2.34001C86.3895 2.11334 86.1162 2.00001 85.7562 2.00001C85.0229 2.00001 84.6562 2.44668 84.6562 3.34001C84.6562 3.84668 84.7895 4.32001 85.0562 4.76001C85.3362 5.20001 85.8362 5.73335 86.5562 6.36001C87.4762 7.16001 88.1095 7.88668 88.4562 8.54001C88.8029 9.19335 88.9762 9.96001 88.9762 10.84C88.9762 11.9867 88.6895 12.8667 88.1162 13.48C87.5562 14.0933 86.7362 14.4 85.6562 14.4ZM93.4407 0.200011H95.6407V5.90001H98.0007V0.200011H100.201V14.2H98.0007V7.90001H95.6407V14.2H93.4407V0.200011ZM103.539 0.200011H106.519L108.799 14.2H106.599L106.199 11.42V11.46H103.699L103.299 14.2H101.259L103.539 0.200011ZM105.939 9.56001L104.959 2.64001H104.919L103.959 9.56001H105.939ZM109.867 0.200011H112.067V14.2H109.867V0.200011ZM113.714 0.200011H116.974C118.107 0.200011 118.934 0.466678 119.454 1.00001C119.974 1.52001 120.234 2.32668 120.234 3.42001V4.28001C120.234 5.73335 119.754 6.65335 118.794 7.04001V7.08001C119.327 7.24001 119.701 7.56668 119.914 8.06001C120.141 8.55335 120.254 9.21335 120.254 10.04V12.5C120.254 12.9 120.267 13.2267 120.294 13.48C120.321 13.72 120.387 13.96 120.494 14.2H118.254C118.174 13.9733 118.121 13.76 118.094 13.56C118.067 13.36 118.054 13 118.054 12.48V9.92001C118.054 9.28001 117.947 8.83335 117.734 8.58001C117.534 8.32668 117.181 8.20001 116.674 8.20001H115.914V14.2H113.714V0.200011ZM116.714 6.20001C117.154 6.20001 117.481 6.08668 117.694 5.86001C117.921 5.63335 118.034 5.25335 118.034 4.72001V3.64001C118.034 3.13334 117.941 2.76668 117.754 2.54001C117.581 2.31335 117.301 2.20001 116.914 2.20001H115.914V6.20001H116.714ZM124.881 14.4C123.827 14.4 123.021 14.1 122.461 13.5C121.914 12.9 121.641 12.0533 121.641 10.96V3.44001C121.641 2.34668 121.914 1.50001 122.461 0.900012C123.021 0.300012 123.827 1.14441e-05 124.881 1.14441e-05C125.934 1.14441e-05 126.734 0.300012 127.281 0.900012C127.841 1.50001 128.121 2.34668 128.121 3.44001V4.92001H126.041V3.30001C126.041 2.43335 125.674 2.00001 124.941 2.00001C124.207 2.00001 123.841 2.43335 123.841 3.30001V11.12C123.841 11.9733 124.207 12.4 124.941 12.4C125.674 12.4 126.041 11.9733 126.041 11.12V8.98001H128.121V10.96C128.121 12.0533 127.841 12.9 127.281 13.5C126.734 14.1 125.934 14.4 124.881 14.4ZM132.637 14.4C131.57 14.4 130.757 14.1 130.197 13.5C129.637 12.8867 129.357 12.0133 129.357 10.88V0.200011H131.557V11.04C131.557 11.52 131.65 11.8667 131.837 12.08C132.037 12.2933 132.317 12.4 132.677 12.4C133.037 12.4 133.31 12.2933 133.497 12.08C133.697 11.8667 133.797 11.52 133.797 11.04V0.200011H135.917V10.88C135.917 12.0133 135.637 12.8867 135.077 13.5C134.517 14.1 133.703 14.4 132.637 14.4ZM139.204 2.20001H136.904V0.200011H143.704V2.20001H141.404V14.2H139.204V2.20001ZM147.629 14.4C146.562 14.4 145.756 14.1 145.209 13.5C144.662 12.8867 144.389 12.0133 144.389 10.88V10.08H146.469V11.04C146.469 11.9467 146.849 12.4 147.609 12.4C147.982 12.4 148.262 12.2933 148.449 12.08C148.649 11.8533 148.749 11.4933 148.749 11C148.749 10.4133 148.616 9.90001 148.349 9.46001C148.082 9.00668 147.589 8.46668 146.869 7.84001C145.962 7.04001 145.329 6.32001 144.969 5.68001C144.609 5.02668 144.429 4.29335 144.429 3.48001C144.429 2.37335 144.709 1.52001 145.269 0.920012C145.829 0.306678 146.642 1.14441e-05 147.709 1.14441e-05C148.762 1.14441e-05 149.556 0.306678 150.089 0.920012C150.636 1.52001 150.909 2.38668 150.909 3.52001V4.10001H148.829V3.38001C148.829 2.90001 148.736 2.55334 148.549 2.34001C148.362 2.11334 148.089 2.00001 147.729 2.00001C146.996 2.00001 146.629 2.44668 146.629 3.34001C146.629 3.84668 146.762 4.32001 147.029 4.76001C147.309 5.20001 147.809 5.73335 148.529 6.36001C149.449 7.16001 150.082 7.88668 150.429 8.54001C150.776 9.19335 150.949 9.96001 150.949 10.84C150.949 11.9867 150.662 12.8667 150.089 13.48C149.529 14.0933 148.709 14.4 147.629 14.4ZM17.67 24.2H20.65L22.93 38.2H20.73L20.33 35.42V35.46H17.83L17.43 38.2H15.39L17.67 24.2ZM20.07 33.56L19.09 26.64H19.05L18.09 33.56H20.07ZM23.9974 24.2H26.7574L28.8974 32.58H28.9374V24.2H30.8974V38.2H28.6374L25.9974 27.98H25.9574V38.2H23.9974V24.2ZM32.5325 24.2H35.8925C36.9859 24.2 37.8059 24.4933 38.3525 25.08C38.8992 25.6667 39.1725 26.5267 39.1725 27.66V34.74C39.1725 35.8733 38.8992 36.7333 38.3525 37.32C37.8059 37.9067 36.9859 38.2 35.8925 38.2H32.5325V24.2ZM35.8525 36.2C36.2125 36.2 36.4859 36.0933 36.6725 35.88C36.8725 35.6667 36.9725 35.32 36.9725 34.84V27.56C36.9725 27.08 36.8725 26.7333 36.6725 26.52C36.4859 26.3067 36.2125 26.2 35.8525 26.2H34.7325V36.2H35.8525ZM43.8606 24.2H47.1806C48.314 24.2 49.1406 24.4667 49.6607 25C50.1806 25.52 50.4406 26.3267 50.4406 27.42V27.98C50.4406 28.7 50.3206 29.2867 50.0806 29.74C49.854 30.1933 49.5006 30.52 49.0206 30.72V30.76C50.114 31.1333 50.6606 32.1067 50.6606 33.68V34.88C50.6606 35.96 50.374 36.7867 49.8007 37.36C49.2406 37.92 48.414 38.2 47.3206 38.2H43.8606V24.2ZM46.9206 29.9C47.3606 29.9 47.6873 29.7867 47.9006 29.56C48.1273 29.3333 48.2406 28.9533 48.2406 28.42V27.64C48.2406 27.1333 48.1473 26.7667 47.9606 26.54C47.7873 26.3133 47.5073 26.2 47.1206 26.2H46.0606V29.9H46.9206ZM47.3206 36.2C47.7073 36.2 47.994 36.1 48.1806 35.9C48.3673 35.6867 48.4606 35.3267 48.4606 34.82V33.6C48.4606 32.96 48.3473 32.52 48.1206 32.28C47.9073 32.0267 47.5473 31.9 47.0406 31.9H46.0606V36.2H47.3206ZM51.9466 24.2H57.9466V26.2H54.1466V29.9H57.1666V31.9H54.1466V36.2H57.9466V38.2H51.9466V24.2ZM60.9122 24.2H63.8922L66.1722 38.2H63.9722L63.5722 35.42V35.46H61.0722L60.6722 38.2H58.6322L60.9122 24.2ZM63.3122 33.56L62.3322 26.64H62.2922L61.3322 33.56H63.3122ZM67.2396 24.2H70.4996C71.6329 24.2 72.4596 24.4667 72.9796 25C73.4996 25.52 73.7596 26.3267 73.7596 27.42V28.28C73.7596 29.7333 73.2796 30.6533 72.3196 31.04V31.08C72.8529 31.24 73.2262 31.5667 73.4396 32.06C73.6662 32.5533 73.7796 33.2133 73.7796 34.04V36.5C73.7796 36.9 73.7929 37.2267 73.8196 37.48C73.8462 37.72 73.9129 37.96 74.0196 38.2H71.7796C71.6996 37.9733 71.6462 37.76 71.6196 37.56C71.5929 37.36 71.5796 37 71.5796 36.48V33.92C71.5796 33.28 71.4729 32.8333 71.2596 32.58C71.0596 32.3267 70.7062 32.2 70.1996 32.2H69.4396V38.2H67.2396V24.2ZM70.2396 30.2C70.6796 30.2 71.0062 30.0867 71.2196 29.86C71.4462 29.6333 71.5596 29.2533 71.5596 28.72V27.64C71.5596 27.1333 71.4662 26.7667 71.2796 26.54C71.1062 26.3133 70.8262 26.2 70.4396 26.2H69.4396V30.2H70.2396ZM75.306 24.2H78.666C79.7593 24.2 80.5793 24.4933 81.126 25.08C81.6726 25.6667 81.946 26.5267 81.946 27.66V34.74C81.946 35.8733 81.6726 36.7333 81.126 37.32C80.5793 37.9067 79.7593 38.2 78.666 38.2H75.306V24.2ZM78.626 36.2C78.986 36.2 79.2593 36.0933 79.446 35.88C79.646 35.6667 79.746 35.32 79.746 34.84V27.56C79.746 27.08 79.646 26.7333 79.446 26.52C79.2593 26.3067 78.986 26.2 78.626 26.2H77.506V36.2H78.626ZM89.4941 38.4C88.4274 38.4 87.6208 38.1 87.0741 37.5C86.5274 36.8867 86.2541 36.0133 86.2541 34.88V34.08H88.3341V35.04C88.3341 35.9467 88.7141 36.4 89.4741 36.4C89.8474 36.4 90.1274 36.2933 90.3141 36.08C90.5141 35.8533 90.6141 35.4933 90.6141 35C90.6141 34.4133 90.4808 33.9 90.2141 33.46C89.9474 33.0067 89.4541 32.4667 88.7341 31.84C87.8274 31.04 87.1941 30.32 86.8341 29.68C86.4741 29.0267 86.2941 28.2933 86.2941 27.48C86.2941 26.3733 86.5741 25.52 87.1341 24.92C87.6941 24.3067 88.5074 24 89.5741 24C90.6274 24 91.4208 24.3067 91.9541 24.92C92.5008 25.52 92.7741 26.3867 92.7741 27.52V28.1H90.6941V27.38C90.6941 26.9 90.6008 26.5533 90.4141 26.34C90.2274 26.1133 89.9541 26 89.5941 26C88.8608 26 88.4941 26.4467 88.4941 27.34C88.4941 27.8467 88.6274 28.32 88.8941 28.76C89.1741 29.2 89.6741 29.7333 90.3941 30.36C91.3141 31.16 91.9474 31.8867 92.2941 32.54C92.6408 33.1933 92.8141 33.96 92.8141 34.84C92.8141 35.9867 92.5274 36.8667 91.9541 37.48C91.3941 38.0933 90.5741 38.4 89.4941 38.4ZM95.7955 26.2H93.4955V24.2H100.295V26.2H97.9955V38.2H95.7955V26.2ZM103.459 32.24L100.799 24.2H103.139L104.639 29.34H104.679L106.179 24.2H108.319L105.659 32.24V38.2H103.459V32.24ZM109.31 24.2H111.51V36.2H115.13V38.2H109.31V24.2ZM116.185 24.2H118.385V38.2H116.185V24.2ZM120.033 24.2H122.793L124.933 32.58H124.973V24.2H126.933V38.2H124.673L122.033 27.98H121.993V38.2H120.033V24.2ZM131.688 38.4C130.621 38.4 129.808 38.1 129.248 37.5C128.688 36.8867 128.408 36.0133 128.408 34.88V27.52C128.408 26.3867 128.688 25.52 129.248 24.92C129.808 24.3067 130.621 24 131.688 24C132.754 24 133.568 24.3067 134.128 24.92C134.688 25.52 134.968 26.3867 134.968 27.52V28.72H132.888V27.38C132.888 26.46 132.508 26 131.748 26C130.988 26 130.608 26.46 130.608 27.38V35.04C130.608 35.9467 130.988 36.4 131.748 36.4C132.508 36.4 132.888 35.9467 132.888 35.04V32.3H131.788V30.3H134.968V34.88C134.968 36.0133 134.688 36.8867 134.128 37.5C133.568 38.1 132.754 38.4 131.688 38.4Z" fill="white"/>
</svg>
