<svg width="162" height="13" viewBox="0 0 162 13" fill="none" xmlns="http://www.w3.org/2000/svg">
<path d="M-5.84126e-06 0.159985H4.79999V1.75998H1.75999V4.71999H4.17599V6.31998H1.75999V9.75999H4.79999V11.36H-5.84126e-06V0.159985ZM7.42849 6.59199L5.30049 0.159985H7.17249L8.37249 4.27199H8.40449L9.60449 0.159985H11.3165L9.18849 6.59199V11.36H7.42849V6.59199ZM12.1094 0.159985H16.9094V1.75998H13.8694V4.71999H16.2854V6.31998H13.8694V9.75999H16.9094V11.36H12.1094V0.159985ZM20.2411 11.52C19.3878 11.52 18.7425 11.28 18.3051 10.8C17.8678 10.3093 17.6491 9.61065 17.6491 8.70399V8.06399H19.3131V8.83199C19.3131 9.55732 19.6171 9.91999 20.2251 9.91999C20.5238 9.91999 20.7478 9.83465 20.8971 9.66399C21.0571 9.48265 21.1371 9.19465 21.1371 8.79999C21.1371 8.33065 21.0305 7.91999 20.8171 7.56799C20.6038 7.20532 20.2091 6.77332 19.6331 6.27199C18.9078 5.63199 18.4011 5.05598 18.1131 4.54398C17.8251 4.02132 17.6811 3.43465 17.6811 2.78399C17.6811 1.89865 17.9051 1.21598 18.3531 0.735985C18.8011 0.245318 19.4518 -1.52588e-05 20.3051 -1.52588e-05C21.1478 -1.52588e-05 21.7825 0.245318 22.2091 0.735985C22.6465 1.21598 22.8651 1.90932 22.8651 2.81598V3.27999H21.2011V2.70399C21.2011 2.31999 21.1265 2.04265 20.9771 1.87198C20.8278 1.69065 20.6091 1.59999 20.3211 1.59999C19.7345 1.59999 19.4411 1.95732 19.4411 2.67198C19.4411 3.07732 19.5478 3.45599 19.7611 3.80798C19.9851 4.15999 20.3851 4.58665 20.9611 5.08799C21.6971 5.72799 22.2038 6.30932 22.4811 6.83198C22.7585 7.35465 22.8971 7.96799 22.8971 8.67199C22.8971 9.58932 22.6678 10.2933 22.2091 10.784C21.7611 11.2747 21.1051 11.52 20.2411 11.52ZM27.8287 0.159985H30.2127L32.0367 11.36H30.2767L29.9567 9.13599V9.16799H27.9567L27.6367 11.36H26.0047L27.8287 0.159985ZM29.7487 7.64799L28.9647 2.11199H28.9327L28.1647 7.64799H29.7487ZM32.8906 0.159985H35.4986C36.4053 0.159985 37.0666 0.373318 37.4826 0.799985C37.8986 1.21598 38.1066 1.86132 38.1066 2.73598V3.42399C38.1066 4.58665 37.7226 5.32265 36.9546 5.63199V5.66399C37.3813 5.79199 37.68 6.05332 37.8506 6.44799C38.032 6.84265 38.1226 7.37065 38.1226 8.03199V9.99999C38.1226 10.32 38.1333 10.5813 38.1546 10.784C38.176 10.976 38.2293 11.168 38.3146 11.36H36.5226C36.4586 11.1787 36.416 11.008 36.3946 10.848C36.3733 10.688 36.3626 10.4 36.3626 9.98399V7.93599C36.3626 7.42399 36.2773 7.06665 36.1066 6.86399C35.9466 6.66132 35.664 6.55999 35.2586 6.55999H34.6506V11.36H32.8906V0.159985ZM35.2906 4.95999C35.6426 4.95999 35.904 4.86932 36.0746 4.68798C36.256 4.50665 36.3466 4.20265 36.3466 3.77598V2.91199C36.3466 2.50665 36.272 2.21332 36.1226 2.03199C35.984 1.85065 35.76 1.75998 35.4506 1.75998H34.6506V4.95999H35.2906ZM39.3437 0.159985H44.1437V1.75998H41.1037V4.71999H43.5197V6.31998H41.1037V9.75999H44.1437V11.36H39.3437V0.159985ZM47.7187 0.159985H50.4067C51.2814 0.159985 51.9374 0.394651 52.3747 0.863985C52.8121 1.33332 53.0307 2.02132 53.0307 2.92799V8.59199C53.0307 9.49865 52.8121 10.1867 52.3747 10.656C51.9374 11.1253 51.2814 11.36 50.4067 11.36H47.7187V0.159985ZM50.3747 9.75999C50.6627 9.75999 50.8814 9.67465 51.0307 9.50399C51.1907 9.33332 51.2707 9.05599 51.2707 8.67199V2.84799C51.2707 2.46399 51.1907 2.18665 51.0307 2.01598C50.8814 1.84532 50.6627 1.75998 50.3747 1.75998H49.4787V9.75999H50.3747ZM54.2187 0.159985H56.8267C57.7334 0.159985 58.3947 0.373318 58.8107 0.799985C59.2267 1.21598 59.4347 1.86132 59.4347 2.73598V3.42399C59.4347 4.58665 59.0507 5.32265 58.2827 5.63199V5.66399C58.7094 5.79199 59.0081 6.05332 59.1787 6.44799C59.3601 6.84265 59.4507 7.37065 59.4507 8.03199V9.99999C59.4507 10.32 59.4614 10.5813 59.4827 10.784C59.5041 10.976 59.5574 11.168 59.6427 11.36H57.8507C57.7867 11.1787 57.7441 11.008 57.7227 10.848C57.7014 10.688 57.6907 10.4 57.6907 9.98399V7.93599C57.6907 7.42399 57.6054 7.06665 57.4347 6.86399C57.2747 6.66132 56.9921 6.55999 56.5867 6.55999H55.9787V11.36H54.2187V0.159985ZM56.6187 4.95999C56.9707 4.95999 57.2321 4.86932 57.4027 4.68798C57.5841 4.50665 57.6747 4.20265 57.6747 3.77598V2.91199C57.6747 2.50665 57.6001 2.21332 57.4507 2.03199C57.3121 1.85065 57.0881 1.75998 56.7787 1.75998H55.9787V4.95999H56.6187ZM62.0319 0.159985H64.4159L66.2399 11.36H64.4799L64.1599 9.13599V9.16799H62.1599L61.8399 11.36H60.2079L62.0319 0.159985ZM63.9519 7.64799L63.1679 2.11199H63.1359L62.3679 7.64799H63.9519ZM66.459 0.159985H68.155L68.939 8.76799H68.971L69.803 0.159985H71.723L72.555 8.76799H72.587L73.371 0.159985H74.891L73.755 11.36H71.563L70.763 3.80798H70.731L69.931 11.36H67.595L66.459 0.159985ZM75.7812 0.159985H77.9892L79.7012 6.86399H79.7332V0.159985H81.3012V11.36H79.4932L77.3812 3.18398H77.3492V11.36H75.7812V0.159985ZM86.5479 1.75998H84.7079V0.159985H90.1479V1.75998H88.3079V11.36H86.5479V1.75998ZM93.4815 11.52C92.6175 11.52 91.9562 11.2747 91.4975 10.784C91.0388 10.2933 90.8095 9.59999 90.8095 8.70399V2.81598C90.8095 1.91998 91.0388 1.22665 91.4975 0.735985C91.9562 0.245318 92.6175 -1.52588e-05 93.4815 -1.52588e-05C94.3455 -1.52588e-05 95.0068 0.245318 95.4655 0.735985C95.9242 1.22665 96.1535 1.91998 96.1535 2.81598V8.70399C96.1535 9.59999 95.9242 10.2933 95.4655 10.784C95.0068 11.2747 94.3455 11.52 93.4815 11.52ZM93.4815 9.91999C94.0895 9.91999 94.3935 9.55199 94.3935 8.81599V2.70399C94.3935 1.96799 94.0895 1.59999 93.4815 1.59999C92.8735 1.59999 92.5695 1.96799 92.5695 2.70399V8.81599C92.5695 9.55199 92.8735 9.91999 93.4815 9.91999ZM102.466 11.52C101.613 11.52 100.962 11.28 100.514 10.8C100.066 10.3093 99.8422 9.61065 99.8422 8.70399V0.159985H101.602V8.83199C101.602 9.21599 101.677 9.49332 101.826 9.66399C101.986 9.83465 102.21 9.91999 102.498 9.91999C102.786 9.91999 103.005 9.83465 103.154 9.66399C103.314 9.49332 103.394 9.21599 103.394 8.83199V0.159985H105.09V8.70399C105.09 9.61065 104.866 10.3093 104.418 10.8C103.97 11.28 103.32 11.52 102.466 11.52ZM106.344 0.159985H108.552L110.264 6.86399H110.296V0.159985H111.864V11.36H110.056L107.944 3.18398H107.912V11.36H106.344V0.159985ZM113.172 0.159985H114.932V11.36H113.172V0.159985ZM121.434 12.4C120.634 12.4 120.143 12.0427 119.962 11.328C119.631 11.456 119.242 11.52 118.794 11.52C117.93 11.52 117.269 11.2747 116.81 10.784C116.351 10.2933 116.122 9.59999 116.122 8.70399V2.81598C116.122 1.91998 116.351 1.22665 116.81 0.735985C117.269 0.245318 117.93 -1.52588e-05 118.794 -1.52588e-05C119.658 -1.52588e-05 120.319 0.245318 120.778 0.735985C121.237 1.22665 121.466 1.91998 121.466 2.81598V8.70399C121.466 9.45065 121.301 10.064 120.97 10.544C121.034 10.6507 121.114 10.72 121.21 10.752C121.306 10.784 121.445 10.8 121.626 10.8H121.898V12.4H121.434ZM118.794 9.91999C119.402 9.91999 119.706 9.55199 119.706 8.81599V2.70399C119.706 1.96799 119.402 1.59999 118.794 1.59999C118.186 1.59999 117.882 1.96799 117.882 2.70399V8.81599C117.882 9.55199 118.186 9.91999 118.794 9.91999ZM125.216 11.52C124.363 11.52 123.712 11.28 123.264 10.8C122.816 10.3093 122.592 9.61065 122.592 8.70399V0.159985H124.352V8.83199C124.352 9.21599 124.427 9.49332 124.576 9.66399C124.736 9.83465 124.96 9.91999 125.248 9.91999C125.536 9.91999 125.755 9.83465 125.904 9.66399C126.064 9.49332 126.144 9.21599 126.144 8.83199V0.159985H127.84V8.70399C127.84 9.61065 127.616 10.3093 127.168 10.8C126.72 11.28 126.07 11.52 125.216 11.52ZM129.094 0.159985H133.894V1.75998H130.854V4.71999H133.27V6.31998H130.854V9.75999H133.894V11.36H129.094V0.159985ZM134.906 0.159985H137.114L138.826 6.86399H138.858V0.159985H140.426V11.36H138.618L136.506 3.18398H136.474V11.36H134.906V0.159985ZM141.734 0.159985H146.534V1.75998H143.494V4.71999H145.91V6.31998H143.494V9.75999H146.534V11.36H141.734V0.159985ZM149.866 11.52C149.013 11.52 148.367 11.28 147.93 10.8C147.493 10.3093 147.274 9.61065 147.274 8.70399V8.06399H148.938V8.83199C148.938 9.55732 149.242 9.91999 149.85 9.91999C150.149 9.91999 150.373 9.83465 150.522 9.66399C150.682 9.48265 150.762 9.19465 150.762 8.79999C150.762 8.33065 150.655 7.91999 150.442 7.56799C150.229 7.20532 149.834 6.77332 149.258 6.27199C148.533 5.63199 148.026 5.05598 147.738 4.54398C147.45 4.02132 147.306 3.43465 147.306 2.78399C147.306 1.89865 147.53 1.21598 147.978 0.735985C148.426 0.245318 149.077 -1.52588e-05 149.93 -1.52588e-05C150.773 -1.52588e-05 151.407 0.245318 151.834 0.735985C152.271 1.21598 152.49 1.90932 152.49 2.81598V3.27999H150.826V2.70399C150.826 2.31999 150.751 2.04265 150.602 1.87198C150.453 1.69065 150.234 1.59999 149.946 1.59999C149.359 1.59999 149.066 1.95732 149.066 2.67198C149.066 3.07732 149.173 3.45599 149.386 3.80798C149.61 4.15999 150.01 4.58665 150.586 5.08799C151.322 5.72799 151.829 6.30932 152.106 6.83198C152.383 7.35465 152.522 7.96799 152.522 8.67199C152.522 9.58932 152.293 10.2933 151.834 10.784C151.386 11.2747 150.73 11.52 149.866 11.52ZM155.819 11.52C154.966 11.52 154.321 11.28 153.883 10.8C153.446 10.3093 153.227 9.61065 153.227 8.70399V8.06399H154.891V8.83199C154.891 9.55732 155.195 9.91999 155.803 9.91999C156.102 9.91999 156.326 9.83465 156.475 9.66399C156.635 9.48265 156.715 9.19465 156.715 8.79999C156.715 8.33065 156.609 7.91999 156.395 7.56799C156.182 7.20532 155.787 6.77332 155.211 6.27199C154.486 5.63199 153.979 5.05598 153.691 4.54398C153.403 4.02132 153.259 3.43465 153.259 2.78399C153.259 1.89865 153.483 1.21598 153.931 0.735985C154.379 0.245318 155.03 -1.52588e-05 155.883 -1.52588e-05C156.726 -1.52588e-05 157.361 0.245318 157.787 0.735985C158.225 1.21598 158.443 1.90932 158.443 2.81598V3.27999H156.779V2.70399C156.779 2.31999 156.705 2.04265 156.555 1.87198C156.406 1.69065 156.187 1.59999 155.899 1.59999C155.313 1.59999 155.019 1.95732 155.019 2.67198C155.019 3.07732 155.126 3.45599 155.339 3.80798C155.563 4.15999 155.963 4.58665 156.539 5.08799C157.275 5.72799 157.782 6.30932 158.059 6.83198C158.337 7.35465 158.475 7.96799 158.475 8.67199C158.475 9.58932 158.246 10.2933 157.787 10.784C157.339 11.2747 156.683 11.52 155.819 11.52ZM159.484 9.66399H161.18V11.36H159.484V9.66399Z" fill="#E07654"/>
</svg>
