<svg width="58" height="12" viewBox="0 0 58 12" fill="none" xmlns="http://www.w3.org/2000/svg">
<path d="M0.936009 1.49012e-06V8.58H8.89599e-06V1.49012e-06H0.936009ZM3.46126 8.58V2.08H4.28026L4.35826 3.575L4.21526 3.445C4.39726 2.925 4.69626 2.548 5.11226 2.314C5.52826 2.07133 5.98759 1.95 6.49026 1.95C6.93226 1.95 7.33093 2.041 7.68626 2.223C8.05026 2.405 8.34059 2.678 8.55726 3.042C8.77393 3.39733 8.88226 3.85233 8.88226 4.407V8.58H7.94626V4.732C7.94626 4.01267 7.79459 3.50567 7.49126 3.211C7.18793 2.91633 6.81093 2.769 6.36026 2.769C6.04826 2.769 5.74059 2.847 5.43726 3.003C5.13393 3.159 4.88259 3.406 4.68326 3.744C4.49259 4.082 4.39726 4.524 4.39726 5.07V8.58H3.46126ZM13.3637 8.71C12.757 8.71 12.2024 8.57567 11.6997 8.307C11.197 8.03834 10.8157 7.657 10.5557 7.163L11.3357 6.591C11.509 7.007 11.7734 7.32767 12.1287 7.553C12.4927 7.77834 12.926 7.891 13.4287 7.891C13.8794 7.891 14.2347 7.79567 14.4947 7.605C14.7634 7.41434 14.8977 7.163 14.8977 6.851C14.8977 6.65167 14.837 6.474 14.7157 6.318C14.5944 6.15334 14.3647 6.032 14.0267 5.954L12.5707 5.629C11.964 5.49033 11.5307 5.27367 11.2707 4.979C11.0107 4.68433 10.8807 4.316 10.8807 3.874C10.8807 3.52733 10.976 3.211 11.1667 2.925C11.366 2.63033 11.6477 2.39633 12.0117 2.223C12.3757 2.041 12.8004 1.95 13.2857 1.95C13.8924 1.95 14.4037 2.08 14.8197 2.34C15.2444 2.59133 15.5564 2.951 15.7557 3.419L14.9887 3.926C14.85 3.51867 14.6204 3.224 14.2997 3.042C13.979 2.86 13.641 2.769 13.2857 2.769C12.9824 2.769 12.718 2.81667 12.4927 2.912C12.2674 2.99867 12.094 3.12433 11.9727 3.289C11.86 3.445 11.8037 3.627 11.8037 3.835C11.8037 4.03434 11.8687 4.22067 11.9987 4.394C12.1374 4.56733 12.3844 4.693 12.7397 4.771L14.2607 5.109C14.8414 5.239 15.2487 5.43834 15.4827 5.707C15.7167 5.97567 15.8337 6.31367 15.8337 6.721C15.8337 7.32767 15.604 7.813 15.1447 8.177C14.694 8.53234 14.1004 8.71 13.3637 8.71ZM19.0698 0.247001V6.799C19.0698 7.14567 19.1565 7.40567 19.3298 7.579C19.5031 7.75234 19.7328 7.839 20.0188 7.839C20.2615 7.839 20.4651 7.79567 20.6298 7.709C20.8031 7.62234 20.9591 7.50534 21.0978 7.358L21.4098 8.138C21.2191 8.32 20.9981 8.463 20.7468 8.567C20.4955 8.66234 20.2095 8.71 19.8888 8.71C19.4035 8.71 18.9875 8.57567 18.6408 8.307C18.3028 8.03834 18.1338 7.592 18.1338 6.968V0.507001L19.0698 0.247001ZM21.3058 2.08V2.886H16.9118V2.08H21.3058ZM26.4622 4.355C26.4622 3.861 26.3322 3.47533 26.0722 3.198C25.8122 2.912 25.4439 2.769 24.9672 2.769C24.5339 2.769 24.1656 2.873 23.8622 3.081C23.5589 3.28034 23.3336 3.601 23.1862 4.043L22.4192 3.575C22.5926 3.081 22.9002 2.68667 23.3422 2.392C23.7929 2.09733 24.3432 1.95 24.9932 1.95C25.4526 1.95 25.8599 2.03233 26.2152 2.197C26.5792 2.353 26.8652 2.59567 27.0732 2.925C27.2899 3.25433 27.3982 3.67033 27.3982 4.173V7.345C27.3982 7.70034 27.5629 7.878 27.8922 7.878C27.9616 7.878 28.0396 7.87367 28.1262 7.865C28.2129 7.84767 28.2866 7.826 28.3472 7.8L28.2952 8.541C28.2259 8.57567 28.1349 8.606 28.0222 8.632C27.9182 8.658 27.7969 8.671 27.6582 8.671C27.4329 8.671 27.2249 8.62767 27.0342 8.541C26.8522 8.44567 26.7049 8.30267 26.5922 8.112C26.4882 7.91267 26.4362 7.66567 26.4362 7.371V7.189L26.6702 7.215C26.5749 7.553 26.4059 7.83467 26.1632 8.06C25.9292 8.27667 25.6562 8.44134 25.3442 8.554C25.0409 8.658 24.7332 8.71 24.4212 8.71C23.8579 8.71 23.3769 8.567 22.9782 8.281C22.5796 7.98634 22.3802 7.54867 22.3802 6.968C22.3802 6.5 22.5276 6.11 22.8222 5.798C23.1256 5.47733 23.5676 5.25633 24.1482 5.135L26.6312 4.615V5.395L24.5902 5.837C24.1656 5.92367 23.8492 6.04934 23.6412 6.214C23.4332 6.37867 23.3292 6.61267 23.3292 6.916C23.3292 7.21067 23.4332 7.449 23.6412 7.631C23.8579 7.80434 24.1656 7.891 24.5642 7.891C24.7982 7.891 25.0279 7.86067 25.2532 7.8C25.4786 7.73067 25.6822 7.62667 25.8642 7.488C26.0462 7.34934 26.1892 7.176 26.2932 6.968C26.4059 6.75134 26.4622 6.49567 26.4622 6.201V4.355ZM34.8396 0.884002L35.0476 1.716C35.0389 1.716 35.0259 1.716 35.0086 1.716C34.9913 1.716 34.9739 1.716 34.9566 1.716C34.5493 1.716 34.2329 1.807 34.0076 1.989C33.7909 2.171 33.6826 2.45267 33.6826 2.834L33.1236 2.535C33.1236 2.197 33.1973 1.90667 33.3446 1.664C33.4919 1.41267 33.6869 1.222 33.9296 1.092C34.1809 0.953335 34.4626 0.884002 34.7746 0.884002C34.7919 0.884002 34.8049 0.884002 34.8136 0.884002C34.8223 0.884002 34.8309 0.884002 34.8396 0.884002ZM32.8896 7.8C33.4963 7.8 33.9686 7.943 34.3066 8.229C34.6446 8.50634 34.8136 8.87467 34.8136 9.334C34.8136 9.75 34.6793 10.1097 34.4106 10.413C34.1506 10.7163 33.7909 10.9503 33.3316 11.115C32.8809 11.2883 32.3696 11.375 31.7976 11.375C30.8269 11.375 30.0946 11.2017 29.6006 10.855C29.1153 10.517 28.8726 10.101 28.8726 9.607C28.8726 9.26034 28.9896 8.94834 29.2236 8.671C29.4576 8.40234 29.8303 8.24634 30.3416 8.203L30.2766 8.385C29.9906 8.307 29.7479 8.17267 29.5486 7.982C29.3493 7.79134 29.2496 7.52267 29.2496 7.176C29.2496 6.84667 29.3709 6.552 29.6136 6.292C29.8649 6.032 30.2376 5.876 30.7316 5.824L31.4076 6.136H31.2386C30.8399 6.17067 30.5453 6.27467 30.3546 6.448C30.1726 6.61267 30.0816 6.80767 30.0816 7.033C30.0816 7.28434 30.1726 7.475 30.3546 7.605C30.5366 7.735 30.7836 7.8 31.0956 7.8H32.8896ZM31.8106 10.608C32.2873 10.608 32.6859 10.5517 33.0066 10.439C33.3273 10.335 33.5699 10.192 33.7346 10.01C33.8993 9.83667 33.9816 9.646 33.9816 9.438C33.9816 9.178 33.8776 8.97 33.6696 8.814C33.4703 8.66667 33.1366 8.593 32.6686 8.593H30.7836C30.4889 8.593 30.2376 8.671 30.0296 8.827C29.8216 8.99167 29.7176 9.20834 29.7176 9.477C29.7176 9.815 29.9039 10.088 30.2766 10.296C30.6493 10.504 31.1606 10.608 31.8106 10.608ZM31.7196 1.95C32.2223 1.95 32.6643 2.04533 33.0456 2.236C33.4269 2.418 33.7259 2.67367 33.9426 3.003C34.1593 3.32367 34.2676 3.69633 34.2676 4.121C34.2676 4.54567 34.1549 4.92267 33.9296 5.252C33.7129 5.58134 33.4139 5.84134 33.0326 6.032C32.6513 6.214 32.2136 6.305 31.7196 6.305C30.9049 6.305 30.2723 6.10133 29.8216 5.694C29.3796 5.28667 29.1586 4.76233 29.1586 4.121C29.1586 3.69633 29.2669 3.32367 29.4836 3.003C29.7003 2.67367 29.9993 2.418 30.3806 2.236C30.7706 2.04533 31.2169 1.95 31.7196 1.95ZM31.7196 2.704C31.2603 2.704 30.8746 2.834 30.5626 3.094C30.2593 3.354 30.1076 3.69633 30.1076 4.121C30.1076 4.54567 30.2636 4.89234 30.5756 5.161C30.8876 5.421 31.2689 5.551 31.7196 5.551C32.1703 5.551 32.5473 5.421 32.8506 5.161C33.1626 4.89234 33.3186 4.54567 33.3186 4.121C33.3186 3.69633 33.1669 3.354 32.8636 3.094C32.5603 2.834 32.1789 2.704 31.7196 2.704ZM36.2406 8.58V2.08H37.0206L37.1376 3.224C37.2936 2.81667 37.5362 2.50467 37.8656 2.288C38.1949 2.06267 38.5892 1.95 39.0486 1.95C39.1699 1.95 39.2912 1.963 39.4126 1.989C39.5339 2.00634 39.6379 2.04534 39.7246 2.106L39.5686 2.951C39.4819 2.90767 39.3822 2.87733 39.2696 2.86C39.1656 2.834 39.0182 2.821 38.8276 2.821C38.5676 2.821 38.3076 2.90767 38.0476 3.081C37.7962 3.24567 37.5882 3.49267 37.4236 3.822C37.2589 4.15133 37.1766 4.55434 37.1766 5.031V8.58H36.2406ZM44.6673 4.355C44.6673 3.861 44.5373 3.47533 44.2773 3.198C44.0173 2.912 43.649 2.769 43.1723 2.769C42.739 2.769 42.3706 2.873 42.0673 3.081C41.764 3.28034 41.5386 3.601 41.3913 4.043L40.6243 3.575C40.7976 3.081 41.1053 2.68667 41.5473 2.392C41.998 2.09733 42.5483 1.95 43.1983 1.95C43.6576 1.95 44.065 2.03233 44.4203 2.197C44.7843 2.353 45.0703 2.59567 45.2783 2.925C45.495 3.25433 45.6033 3.67033 45.6033 4.173V7.345C45.6033 7.70034 45.768 7.878 46.0973 7.878C46.1666 7.878 46.2446 7.87367 46.3313 7.865C46.418 7.84767 46.4916 7.826 46.5523 7.8L46.5003 8.541C46.431 8.57567 46.34 8.606 46.2273 8.632C46.1233 8.658 46.002 8.671 45.8633 8.671C45.638 8.671 45.43 8.62767 45.2393 8.541C45.0573 8.44567 44.91 8.30267 44.7973 8.112C44.6933 7.91267 44.6413 7.66567 44.6413 7.371V7.189L44.8753 7.215C44.78 7.553 44.611 7.83467 44.3683 8.06C44.1343 8.27667 43.8613 8.44134 43.5493 8.554C43.246 8.658 42.9383 8.71 42.6263 8.71C42.063 8.71 41.582 8.567 41.1833 8.281C40.7846 7.98634 40.5853 7.54867 40.5853 6.968C40.5853 6.5 40.7326 6.11 41.0273 5.798C41.3306 5.47733 41.7726 5.25633 42.3533 5.135L44.8363 4.615V5.395L42.7953 5.837C42.3706 5.92367 42.0543 6.04934 41.8463 6.214C41.6383 6.37867 41.5343 6.61267 41.5343 6.916C41.5343 7.21067 41.6383 7.449 41.8463 7.631C42.063 7.80434 42.3706 7.891 42.7693 7.891C43.0033 7.891 43.233 7.86067 43.4583 7.8C43.6836 7.73067 43.8873 7.62667 44.0693 7.488C44.2513 7.34934 44.3943 7.176 44.4983 6.968C44.611 6.75134 44.6673 6.49567 44.6673 6.201V4.355ZM47.8187 8.58V2.08H48.6377L48.7027 3.185C48.9193 2.769 49.2183 2.46133 49.5997 2.262C49.981 2.054 50.384 1.95 50.8087 1.95C51.2767 1.95 51.71 2.06267 52.1087 2.288C52.5073 2.50467 52.802 2.84267 52.9927 3.302C53.1227 2.99867 53.309 2.74733 53.5517 2.548C53.803 2.34867 54.0803 2.20133 54.3837 2.106C54.687 2.002 54.9817 1.95 55.2677 1.95C55.6837 1.95 56.0737 2.03667 56.4377 2.21C56.8017 2.38333 57.0963 2.652 57.3217 3.016C57.5557 3.38 57.6727 3.84367 57.6727 4.407V8.58H56.7367V4.498C56.7367 3.89134 56.585 3.45367 56.2817 3.185C55.9783 2.90767 55.6057 2.769 55.1637 2.769C54.817 2.769 54.4963 2.85567 54.2017 3.029C53.907 3.20234 53.6687 3.45367 53.4867 3.783C53.3047 4.11233 53.2137 4.50667 53.2137 4.966V8.58H52.2777V4.498C52.2777 3.89134 52.126 3.45367 51.8227 3.185C51.5193 2.90767 51.1467 2.769 50.7047 2.769C50.41 2.769 50.111 2.85133 49.8077 3.016C49.5043 3.172 49.253 3.419 49.0537 3.757C48.8543 4.095 48.7547 4.52833 48.7547 5.057V8.58H47.8187Z" fill="white"/>
</svg>
