<svg width="115" height="11" viewBox="0 0 115 11" fill="none" xmlns="http://www.w3.org/2000/svg">
<path d="M4.13998 1.635V9.03H3.13498V1.635H4.13998ZM7.25998 4.815V5.82H-2.43783e-05V4.815H7.25998ZM11.3237 10.215C10.4737 10.215 9.72869 10.01 9.08869 9.6C8.44869 9.18 8.01369 8.61 7.78369 7.89L8.86369 7.335C9.02369 7.895 9.30369 8.35 9.70369 8.7C10.1037 9.04 10.6687 9.21 11.3987 9.21C12.0487 9.21 12.5487 9.03 12.8987 8.67C13.2587 8.31 13.4387 7.84 13.4387 7.26C13.4387 6.88 13.3687 6.57 13.2287 6.33C13.0887 6.08 12.8737 5.895 12.5837 5.775C12.3037 5.645 11.9437 5.58 11.5037 5.58C11.3937 5.58 11.2737 5.585 11.1437 5.595C11.0137 5.595 10.8837 5.605 10.7537 5.625V4.545C10.8437 4.555 10.9337 4.56 11.0237 4.56C11.1137 4.56 11.1937 4.56 11.2637 4.56C11.9537 4.56 12.4537 4.41 12.7637 4.11C13.0737 3.8 13.2287 3.335 13.2287 2.715C13.2287 2.165 13.0637 1.745 12.7337 1.455C12.4137 1.165 11.9637 1.02 11.3837 1.02C10.7837 1.02 10.3137 1.165 9.97369 1.455C9.63369 1.735 9.37369 2.12 9.19369 2.61L8.17369 2.115C8.33369 1.695 8.56369 1.33 8.86369 1.02C9.17369 0.700002 9.54369 0.450002 9.97369 0.270002C10.4037 0.0900021 10.8837 2.38419e-06 11.4137 2.38419e-06C12.0637 2.38419e-06 12.6037 0.115002 13.0337 0.345002C13.4737 0.575002 13.7987 0.885002 14.0087 1.275C14.2287 1.665 14.3387 2.1 14.3387 2.58C14.3387 2.93 14.2887 3.25 14.1887 3.54C14.0987 3.82 13.9687 4.07 13.7987 4.29C13.6387 4.5 13.4487 4.67 13.2287 4.8C13.0187 4.92 12.7937 5 12.5537 5.04V5.07C12.8637 5.08 13.1387 5.145 13.3787 5.265C13.6287 5.385 13.8387 5.545 14.0087 5.745C14.1887 5.945 14.3237 6.175 14.4137 6.435C14.5137 6.695 14.5637 6.97 14.5637 7.26C14.5637 7.84 14.4237 8.355 14.1437 8.805C13.8737 9.245 13.4937 9.59 13.0037 9.84C12.5237 10.09 11.9637 10.215 11.3237 10.215ZM14.7081 0.165002H21.6831V1.17C20.8931 2.04 20.2431 2.945 19.7331 3.885C19.2331 4.815 18.8631 5.795 18.6231 6.825C18.3831 7.845 18.2581 8.925 18.2481 10.065H17.1381C17.1581 8.375 17.4681 6.75 18.0681 5.19C18.6681 3.62 19.5731 2.19 20.7831 0.900002L20.9631 1.17H14.7081V0.165002ZM25.5704 10.215C24.7304 10.215 24.0454 10.02 23.5154 9.63C22.9954 9.23 22.6004 8.665 22.3304 7.935L23.3804 7.38C23.5204 7.94 23.7654 8.385 24.1154 8.715C24.4654 9.045 24.9554 9.21 25.5854 9.21C26.0354 9.21 26.4204 9.12 26.7404 8.94C27.0704 8.75 27.3204 8.49 27.4904 8.16C27.6704 7.83 27.7604 7.44 27.7604 6.99C27.7604 6.51 27.6754 6.105 27.5054 5.775C27.3454 5.445 27.1104 5.195 26.8004 5.025C26.4904 4.855 26.1204 4.77 25.6904 4.77C25.2004 4.77 24.7704 4.855 24.4004 5.025C24.0304 5.185 23.7354 5.435 23.5154 5.775L22.5704 5.595L23.1254 0.165002H28.4504V1.17H24.0254L23.6654 4.485L23.6354 4.635H23.6654C23.8954 4.375 24.1904 4.165 24.5504 4.005C24.9204 3.845 25.3654 3.765 25.8854 3.765C26.4854 3.765 27.0104 3.9 27.4604 4.17C27.9104 4.43 28.2554 4.8 28.4954 5.28C28.7454 5.75 28.8704 6.305 28.8704 6.945C28.8704 7.615 28.7304 8.195 28.4504 8.685C28.1704 9.175 27.7804 9.555 27.2804 9.825C26.7904 10.085 26.2204 10.215 25.5704 10.215ZM34.3544 10.065V9.18C35.2844 8.45 36.0694 7.805 36.7094 7.245C37.3594 6.685 37.8794 6.175 38.2694 5.715C38.6594 5.255 38.9444 4.815 39.1244 4.395C39.3044 3.975 39.3944 3.54 39.3944 3.09C39.3944 2.47 39.2044 1.97 38.8244 1.59C38.4544 1.21 37.9544 1.02 37.3244 1.02C36.6544 1.02 36.1144 1.25 35.7044 1.71C35.3044 2.16 35.0744 2.77 35.0144 3.54L34.0694 2.97C34.1494 2.39 34.3244 1.88 34.5944 1.44C34.8744 0.990002 35.2444 0.640002 35.7044 0.390002C36.1744 0.140002 36.7244 0.0150022 37.3544 0.0150022C38.0044 0.0150022 38.5644 0.145002 39.0344 0.405002C39.5044 0.665002 39.8694 1.025 40.1294 1.485C40.3894 1.945 40.5194 2.48 40.5194 3.09C40.5194 3.72 40.3644 4.34 40.0544 4.95C39.7544 5.56 39.2644 6.2 38.5844 6.87C37.9044 7.53 37.0044 8.265 35.8844 9.075V9.09C35.9844 9.08 36.1194 9.075 36.2894 9.075C36.4594 9.075 36.6294 9.075 36.7994 9.075C36.9794 9.065 37.1144 9.06 37.2044 9.06H40.7444V10.065H34.3544ZM45.2083 0.0150022C45.9983 0.0150022 46.6633 0.230002 47.2033 0.660002C47.7433 1.09 48.1483 1.69 48.4183 2.46C48.6983 3.22 48.8383 4.105 48.8383 5.115C48.8383 6.225 48.6983 7.16 48.4183 7.92C48.1383 8.67 47.7283 9.24 47.1883 9.63C46.6483 10.02 45.9883 10.215 45.2083 10.215C44.4183 10.215 43.7383 10.025 43.1683 9.645C42.6083 9.255 42.1983 8.705 41.9383 7.995L43.0033 7.425C43.1533 7.955 43.4033 8.385 43.7533 8.715C44.1033 9.045 44.5983 9.21 45.2383 9.21C45.7483 9.21 46.1683 9.1 46.4983 8.88C46.8383 8.66 47.1083 8.355 47.3083 7.965C47.5083 7.565 47.6483 7.095 47.7283 6.555C47.8183 6.005 47.8633 5.405 47.8633 4.755C47.8633 4.675 47.8583 4.61 47.8483 4.56C47.8483 4.5 47.8433 4.44 47.8333 4.38H47.7733C47.6733 4.86 47.4783 5.25 47.1883 5.55C46.9083 5.84 46.5833 6.055 46.2133 6.195C45.8433 6.325 45.4733 6.39 45.1033 6.39C44.4833 6.39 43.9333 6.265 43.4533 6.015C42.9833 5.755 42.6133 5.395 42.3433 4.935C42.0733 4.475 41.9383 3.93 41.9383 3.3C41.9383 2.63 42.0683 2.05 42.3283 1.56C42.5883 1.07 42.9633 0.690002 43.4533 0.420002C43.9433 0.150002 44.5283 0.0150022 45.2083 0.0150022ZM45.2083 1.05C44.5183 1.05 43.9883 1.255 43.6183 1.665C43.2483 2.065 43.0633 2.62 43.0633 3.33C43.0633 3.95 43.2583 4.445 43.6483 4.815C44.0483 5.175 44.5683 5.355 45.2083 5.355C45.6283 5.355 45.9983 5.265 46.3183 5.085C46.6383 4.895 46.8883 4.64 47.0683 4.32C47.2583 3.99 47.3533 3.615 47.3533 3.195C47.3533 2.775 47.2583 2.405 47.0683 2.085C46.8883 1.755 46.6383 1.5 46.3183 1.32C45.9983 1.14 45.6283 1.05 45.2083 1.05ZM54.3701 10.065V9.18C55.3001 8.45 56.0851 7.805 56.7251 7.245C57.3751 6.685 57.8951 6.175 58.2851 5.715C58.6751 5.255 58.9601 4.815 59.1401 4.395C59.3201 3.975 59.4101 3.54 59.4101 3.09C59.4101 2.47 59.2201 1.97 58.8401 1.59C58.4701 1.21 57.9701 1.02 57.3401 1.02C56.6701 1.02 56.1301 1.25 55.7201 1.71C55.3201 2.16 55.0901 2.77 55.0301 3.54L54.0851 2.97C54.1651 2.39 54.3401 1.88 54.6101 1.44C54.8901 0.990002 55.2601 0.640002 55.7201 0.390002C56.1901 0.140002 56.7401 0.0150022 57.3701 0.0150022C58.0201 0.0150022 58.5801 0.145002 59.0501 0.405002C59.5201 0.665002 59.8851 1.025 60.1451 1.485C60.4051 1.945 60.5351 2.48 60.5351 3.09C60.5351 3.72 60.3801 4.34 60.0701 4.95C59.7701 5.56 59.2801 6.2 58.6001 6.87C57.9201 7.53 57.0201 8.265 55.9001 9.075V9.09C56.0001 9.08 56.1351 9.075 56.3051 9.075C56.4751 9.075 56.6451 9.075 56.8151 9.075C56.9951 9.065 57.1301 9.06 57.2201 9.06H60.7601V10.065H54.3701ZM65.104 10.215C64.254 10.215 63.509 10.01 62.869 9.6C62.229 9.18 61.794 8.61 61.564 7.89L62.644 7.335C62.804 7.895 63.084 8.35 63.484 8.7C63.884 9.04 64.449 9.21 65.179 9.21C65.829 9.21 66.329 9.03 66.679 8.67C67.039 8.31 67.219 7.84 67.219 7.26C67.219 6.88 67.149 6.57 67.009 6.33C66.869 6.08 66.654 5.895 66.364 5.775C66.084 5.645 65.724 5.58 65.284 5.58C65.174 5.58 65.054 5.585 64.924 5.595C64.794 5.595 64.664 5.605 64.534 5.625V4.545C64.624 4.555 64.714 4.56 64.804 4.56C64.894 4.56 64.974 4.56 65.044 4.56C65.734 4.56 66.234 4.41 66.544 4.11C66.854 3.8 67.009 3.335 67.009 2.715C67.009 2.165 66.844 1.745 66.514 1.455C66.194 1.165 65.744 1.02 65.164 1.02C64.564 1.02 64.094 1.165 63.754 1.455C63.414 1.735 63.154 2.12 62.974 2.61L61.954 2.115C62.114 1.695 62.344 1.33 62.644 1.02C62.954 0.700002 63.324 0.450002 63.754 0.270002C64.184 0.0900021 64.664 2.38419e-06 65.194 2.38419e-06C65.844 2.38419e-06 66.384 0.115002 66.814 0.345002C67.254 0.575002 67.579 0.885002 67.789 1.275C68.009 1.665 68.119 2.1 68.119 2.58C68.119 2.93 68.069 3.25 67.969 3.54C67.879 3.82 67.749 4.07 67.579 4.29C67.419 4.5 67.229 4.67 67.009 4.8C66.799 4.92 66.574 5 66.334 5.04V5.07C66.644 5.08 66.919 5.145 67.159 5.265C67.409 5.385 67.619 5.545 67.789 5.745C67.969 5.945 68.104 6.175 68.194 6.435C68.294 6.695 68.344 6.97 68.344 7.26C68.344 7.84 68.204 8.355 67.924 8.805C67.654 9.245 67.274 9.59 66.784 9.84C66.304 10.09 65.744 10.215 65.104 10.215ZM69.5839 10.065V9.18C70.5139 8.45 71.2989 7.805 71.9389 7.245C72.5889 6.685 73.1089 6.175 73.4989 5.715C73.8889 5.255 74.1739 4.815 74.3539 4.395C74.5339 3.975 74.6239 3.54 74.6239 3.09C74.6239 2.47 74.4339 1.97 74.0539 1.59C73.6839 1.21 73.1839 1.02 72.5539 1.02C71.8839 1.02 71.3439 1.25 70.9339 1.71C70.5339 2.16 70.3039 2.77 70.2439 3.54L69.2989 2.97C69.3789 2.39 69.5539 1.88 69.8239 1.44C70.1039 0.990002 70.4739 0.640002 70.9339 0.390002C71.4039 0.140002 71.9539 0.0150022 72.5839 0.0150022C73.2339 0.0150022 73.7939 0.145002 74.2639 0.405002C74.7339 0.665002 75.0989 1.025 75.3589 1.485C75.6189 1.945 75.7489 2.48 75.7489 3.09C75.7489 3.72 75.5939 4.34 75.2839 4.95C74.9839 5.56 74.4939 6.2 73.8139 6.87C73.1339 7.53 72.2339 8.265 71.1139 9.075V9.09C71.2139 9.08 71.3489 9.075 71.5189 9.075C71.6889 9.075 71.8589 9.075 72.0289 9.075C72.2089 9.065 72.3439 9.06 72.4339 9.06H75.9739V10.065H69.5839ZM80.377 0.165002H87.352V1.17C86.562 2.04 85.912 2.945 85.402 3.885C84.902 4.815 84.532 5.795 84.292 6.825C84.052 7.845 83.927 8.925 83.917 10.065H82.807C82.827 8.375 83.137 6.75 83.737 5.19C84.337 3.62 85.242 2.19 86.452 0.900002L86.632 1.17H80.377V0.165002ZM91.2544 10.215C90.4044 10.215 89.6594 10.01 89.0194 9.6C88.3794 9.18 87.9444 8.61 87.7144 7.89L88.7944 7.335C88.9544 7.895 89.2344 8.35 89.6344 8.7C90.0344 9.04 90.5994 9.21 91.3294 9.21C91.9794 9.21 92.4794 9.03 92.8294 8.67C93.1894 8.31 93.3694 7.84 93.3694 7.26C93.3694 6.88 93.2994 6.57 93.1594 6.33C93.0194 6.08 92.8044 5.895 92.5144 5.775C92.2344 5.645 91.8744 5.58 91.4344 5.58C91.3244 5.58 91.2044 5.585 91.0744 5.595C90.9444 5.595 90.8144 5.605 90.6844 5.625V4.545C90.7744 4.555 90.8644 4.56 90.9544 4.56C91.0444 4.56 91.1244 4.56 91.1944 4.56C91.8844 4.56 92.3844 4.41 92.6944 4.11C93.0044 3.8 93.1594 3.335 93.1594 2.715C93.1594 2.165 92.9944 1.745 92.6644 1.455C92.3444 1.165 91.8944 1.02 91.3144 1.02C90.7144 1.02 90.2444 1.165 89.9044 1.455C89.5644 1.735 89.3044 2.12 89.1244 2.61L88.1044 2.115C88.2644 1.695 88.4944 1.33 88.7944 1.02C89.1044 0.700002 89.4744 0.450002 89.9044 0.270002C90.3344 0.0900021 90.8144 2.38419e-06 91.3444 2.38419e-06C91.9944 2.38419e-06 92.5344 0.115002 92.9644 0.345002C93.4044 0.575002 93.7294 0.885002 93.9394 1.275C94.1594 1.665 94.2694 2.1 94.2694 2.58C94.2694 2.93 94.2194 3.25 94.1194 3.54C94.0294 3.82 93.8994 4.07 93.7294 4.29C93.5694 4.5 93.3794 4.67 93.1594 4.8C92.9494 4.92 92.7244 5 92.4844 5.04V5.07C92.7944 5.08 93.0694 5.145 93.3094 5.265C93.5594 5.385 93.7694 5.545 93.9394 5.745C94.1194 5.945 94.2544 6.175 94.3444 6.435C94.4444 6.695 94.4944 6.97 94.4944 7.26C94.4944 7.84 94.3544 8.355 94.0744 8.805C93.8044 9.245 93.4244 9.59 92.9344 9.84C92.4544 10.09 91.8944 10.215 91.2544 10.215ZM103.369 0.030002C104.279 0.030002 105.004 0.260002 105.544 0.720002C106.094 1.18 106.369 1.805 106.369 2.595C106.369 3.115 106.244 3.575 105.994 3.975C105.744 4.365 105.394 4.655 104.944 4.845V4.86C105.514 5.06 105.964 5.38 106.294 5.82C106.634 6.25 106.804 6.78 106.804 7.41C106.804 7.98 106.659 8.475 106.369 8.895C106.089 9.315 105.689 9.64 105.169 9.87C104.659 10.1 104.059 10.215 103.369 10.215C102.689 10.215 102.089 10.1 101.569 9.87C101.049 9.64 100.644 9.315 100.354 8.895C100.064 8.475 99.9191 7.98 99.9191 7.41C99.9191 6.79 100.084 6.26 100.414 5.82C100.754 5.38 101.209 5.06 101.779 4.86V4.845C101.339 4.665 100.989 4.38 100.729 3.99C100.479 3.59 100.354 3.125 100.354 2.595C100.354 2.065 100.479 1.61 100.729 1.23C100.979 0.850002 101.329 0.555002 101.779 0.345002C102.229 0.135002 102.759 0.030002 103.369 0.030002ZM103.369 1.035C102.789 1.035 102.324 1.185 101.974 1.485C101.634 1.775 101.464 2.18 101.464 2.7C101.464 3.22 101.639 3.63 101.989 3.93C102.339 4.22 102.799 4.365 103.369 4.365C103.929 4.365 104.384 4.22 104.734 3.93C105.094 3.63 105.274 3.22 105.274 2.7C105.274 2.18 105.099 1.775 104.749 1.485C104.409 1.185 103.949 1.035 103.369 1.035ZM103.369 9.21C103.839 9.21 104.244 9.135 104.584 8.985C104.934 8.825 105.204 8.605 105.394 8.325C105.584 8.035 105.679 7.695 105.679 7.305C105.679 6.905 105.579 6.565 105.379 6.285C105.189 5.995 104.919 5.775 104.569 5.625C104.229 5.465 103.829 5.385 103.369 5.385C102.909 5.385 102.504 5.465 102.154 5.625C101.804 5.775 101.529 5.995 101.329 6.285C101.139 6.565 101.044 6.905 101.044 7.305C101.044 7.695 101.139 8.035 101.329 8.325C101.519 8.605 101.789 8.825 102.139 8.985C102.489 9.135 102.899 9.21 103.369 9.21ZM108.106 10.065V9.18C109.036 8.45 109.821 7.805 110.461 7.245C111.111 6.685 111.631 6.175 112.021 5.715C112.411 5.255 112.696 4.815 112.876 4.395C113.056 3.975 113.146 3.54 113.146 3.09C113.146 2.47 112.956 1.97 112.576 1.59C112.206 1.21 111.706 1.02 111.076 1.02C110.406 1.02 109.866 1.25 109.456 1.71C109.056 2.16 108.826 2.77 108.766 3.54L107.821 2.97C107.901 2.39 108.076 1.88 108.346 1.44C108.626 0.990002 108.996 0.640002 109.456 0.390002C109.926 0.140002 110.476 0.0150022 111.106 0.0150022C111.756 0.0150022 112.316 0.145002 112.786 0.405002C113.256 0.665002 113.621 1.025 113.881 1.485C114.141 1.945 114.271 2.48 114.271 3.09C114.271 3.72 114.116 4.34 113.806 4.95C113.506 5.56 113.016 6.2 112.336 6.87C111.656 7.53 110.756 8.265 109.636 9.075V9.09C109.736 9.08 109.871 9.075 110.041 9.075C110.211 9.075 110.381 9.075 110.551 9.075C110.731 9.065 110.866 9.06 110.956 9.06H114.496V10.065H108.106Z" fill="white"/>
</svg>
