<svg width="67" height="12" viewBox="0 0 67 12" fill="none" xmlns="http://www.w3.org/2000/svg">
<path d="M8.77502 10.95H7.62001L6.57001 8.115H2.19001L1.14001 10.95H1.46516e-05L3.75001 1.05H5.04001L8.77502 10.95ZM2.56501 7.095H6.19501L4.38001 2.1L2.56501 7.095ZM14.0222 11.1C13.4022 11.1 12.8522 10.93 12.3722 10.59C11.9022 10.24 11.5822 9.79 11.4122 9.24L11.5472 9.045L11.4572 10.95H10.5122V-3.33786e-06H11.5922V5.22L11.4572 5.025C11.6572 4.515 11.9872 4.1 12.4472 3.78C12.9072 3.46 13.4372 3.3 14.0372 3.3C14.6372 3.3 15.1822 3.455 15.6722 3.765C16.1722 4.075 16.5672 4.52 16.8572 5.1C17.1572 5.68 17.3072 6.38 17.3072 7.2C17.3072 8.01 17.1572 8.71 16.8572 9.3C16.5672 9.88 16.1722 10.325 15.6722 10.635C15.1822 10.945 14.6322 11.1 14.0222 11.1ZM13.9022 10.155C14.6322 10.155 15.2022 9.89 15.6122 9.36C16.0222 8.82 16.2272 8.1 16.2272 7.2C16.2272 6.3 16.0222 5.585 15.6122 5.055C15.2122 4.515 14.6472 4.245 13.9172 4.245C13.4572 4.245 13.0522 4.37 12.7022 4.62C12.3522 4.87 12.0772 5.22 11.8772 5.67C11.6872 6.11 11.5922 6.63 11.5922 7.23C11.5922 7.82 11.6872 8.335 11.8772 8.775C12.0772 9.215 12.3522 9.555 12.7022 9.795C13.0522 10.035 13.4522 10.155 13.9022 10.155ZM22.5199 3.3C23.1999 3.3 23.7999 3.455 24.3199 3.765C24.8399 4.075 25.2499 4.525 25.5499 5.115C25.8499 5.695 25.9999 6.39 25.9999 7.2C25.9999 8.01 25.8499 8.71 25.5499 9.3C25.2499 9.88 24.8399 10.325 24.3199 10.635C23.7999 10.945 23.1999 11.1 22.5199 11.1C21.8499 11.1 21.2499 10.945 20.7199 10.635C20.1999 10.325 19.7899 9.88 19.4899 9.3C19.1899 8.71 19.0399 8.01 19.0399 7.2C19.0399 6.39 19.1899 5.695 19.4899 5.115C19.7899 4.525 20.1999 4.075 20.7199 3.765C21.2499 3.455 21.8499 3.3 22.5199 3.3ZM22.5199 4.23C22.0299 4.23 21.6049 4.35 21.2449 4.59C20.8849 4.83 20.6049 5.17 20.4049 5.61C20.2149 6.05 20.1199 6.58 20.1199 7.2C20.1199 7.81 20.2149 8.34 20.4049 8.79C20.6049 9.23 20.8849 9.57 21.2449 9.81C21.6049 10.05 22.0299 10.17 22.5199 10.17C23.0199 10.17 23.4449 10.05 23.7949 9.81C24.1549 9.57 24.4299 9.23 24.6199 8.79C24.8199 8.34 24.9199 7.81 24.9199 7.2C24.9199 6.58 24.8199 6.05 24.6199 5.61C24.4299 5.17 24.1549 4.83 23.7949 4.59C23.4449 4.35 23.0199 4.23 22.5199 4.23ZM30.7868 11.1C30.3168 11.1 29.8818 11.01 29.4818 10.83C29.0818 10.64 28.7568 10.345 28.5068 9.945C28.2668 9.545 28.1468 9.025 28.1468 8.385V3.45H29.2268V8.1C29.2268 8.79 29.3718 9.305 29.6618 9.645C29.9518 9.985 30.4168 10.155 31.0568 10.155C31.3468 10.155 31.6218 10.1 31.8818 9.99C32.1518 9.88 32.3868 9.72 32.5868 9.51C32.7968 9.29 32.9618 9.02 33.0818 8.7C33.2018 8.38 33.2618 8.01 33.2618 7.59V3.45H34.3418V10.95H33.3968L33.3368 9.705C33.1768 10.015 32.9718 10.275 32.7218 10.485C32.4818 10.695 32.1968 10.85 31.8668 10.95C31.5468 11.05 31.1868 11.1 30.7868 11.1ZM38.6441 1.335V8.895C38.6441 9.295 38.7441 9.595 38.9441 9.795C39.1441 9.995 39.4091 10.095 39.7391 10.095C40.0191 10.095 40.2541 10.045 40.4441 9.945C40.6441 9.845 40.8241 9.71 40.9841 9.54L41.3441 10.44C41.1241 10.65 40.8691 10.815 40.5791 10.935C40.2891 11.045 39.9591 11.1 39.5891 11.1C39.0291 11.1 38.5491 10.945 38.1491 10.635C37.7591 10.325 37.5641 9.81 37.5641 9.09V1.635L38.6441 1.335ZM41.2241 3.45V4.38H36.1541V3.45H41.2241ZM57.3886 1.05V10.95H56.3536V4.41L56.4736 2.025H56.4586L53.2486 10.95H52.3186L49.0936 2.025H49.0786L49.1986 4.41V10.95H48.1786V1.05H49.8286L52.1236 7.455L52.7686 9.675H52.7986L53.4586 7.47L55.7386 1.05H57.3886ZM63.2283 11.1C62.5483 11.1 61.9433 10.945 61.4133 10.635C60.8933 10.325 60.4833 9.88 60.1833 9.3C59.8833 8.71 59.7333 8.01 59.7333 7.2C59.7333 6.39 59.8783 5.695 60.1683 5.115C60.4683 4.525 60.8733 4.075 61.3833 3.765C61.9033 3.455 62.4933 3.3 63.1533 3.3C63.8233 3.3 64.3933 3.45 64.8633 3.75C65.3333 4.05 65.6933 4.46 65.9433 4.98C66.1933 5.5 66.3183 6.09 66.3183 6.75C66.3183 6.91 66.3133 7.05 66.3033 7.17C66.2933 7.29 66.2833 7.395 66.2733 7.485H60.4383V6.525H65.7933L65.2383 6.645C65.2383 6.135 65.1483 5.705 64.9683 5.355C64.7983 4.995 64.5533 4.72 64.2333 4.53C63.9233 4.34 63.5583 4.245 63.1383 4.245C62.6583 4.245 62.2383 4.365 61.8783 4.605C61.5283 4.845 61.2583 5.185 61.0683 5.625C60.8783 6.065 60.7833 6.59 60.7833 7.2C60.7833 7.81 60.8833 8.335 61.0833 8.775C61.2833 9.215 61.5633 9.555 61.9233 9.795C62.2933 10.035 62.7233 10.155 63.2133 10.155C63.7333 10.155 64.1633 10.045 64.5033 9.825C64.8533 9.595 65.1283 9.295 65.3283 8.925L66.1833 9.42C66.0033 9.76 65.7683 10.06 65.4783 10.32C65.1983 10.57 64.8683 10.765 64.4883 10.905C64.1083 11.035 63.6883 11.1 63.2283 11.1Z" fill="white"/>
</svg>
