<svg width="38" height="12" viewBox="0 0 38 12" fill="none" xmlns="http://www.w3.org/2000/svg">
<path d="M1.96546e-05 10.95V1.05H6.64502V2.055H1.08002V5.415H5.43002V6.435H1.08002V9.945H6.85502V10.95H1.96546e-05ZM8.97424 10.95V3.45H9.91924L9.99424 4.725C10.2442 4.245 10.5892 3.89 11.0292 3.66C11.4692 3.42 11.9342 3.3 12.4242 3.3C12.9642 3.3 13.4642 3.43 13.9242 3.69C14.3842 3.94 14.7242 4.33 14.9442 4.86C15.0942 4.51 15.3092 4.22 15.5892 3.99C15.8792 3.76 16.1992 3.59 16.5492 3.48C16.8992 3.36 17.2392 3.3 17.5692 3.3C18.0492 3.3 18.4992 3.4 18.9192 3.6C19.3392 3.8 19.6792 4.11 19.9392 4.53C20.2092 4.95 20.3442 5.485 20.3442 6.135V10.95H19.2642V6.24C19.2642 5.54 19.0892 5.035 18.7392 4.725C18.3892 4.405 17.9592 4.245 17.4492 4.245C17.0492 4.245 16.6792 4.345 16.3392 4.545C15.9992 4.745 15.7242 5.035 15.5142 5.415C15.3042 5.795 15.1992 6.25 15.1992 6.78V10.95H14.1192V6.24C14.1192 5.54 13.9442 5.035 13.5942 4.725C13.2442 4.405 12.8142 4.245 12.3042 4.245C11.9642 4.245 11.6192 4.34 11.2692 4.53C10.9192 4.71 10.6292 4.995 10.3992 5.385C10.1692 5.775 10.0542 6.275 10.0542 6.885V10.95H8.97424ZM27.2521 6.075C27.2521 5.505 27.1021 5.06 26.8021 4.74C26.5021 4.41 26.0771 4.245 25.5271 4.245C25.0271 4.245 24.6021 4.365 24.2521 4.605C23.9021 4.835 23.6421 5.205 23.4721 5.715L22.5871 5.175C22.7871 4.605 23.1421 4.15 23.6521 3.81C24.1721 3.47 24.8071 3.3 25.5571 3.3C26.0871 3.3 26.5571 3.395 26.9671 3.585C27.3871 3.765 27.7171 4.045 27.9571 4.425C28.2071 4.805 28.3321 5.285 28.3321 5.865V9.525C28.3321 9.935 28.5221 10.14 28.9021 10.14C28.9821 10.14 29.0721 10.135 29.1721 10.125C29.2721 10.105 29.3571 10.08 29.4271 10.05L29.3671 10.905C29.2871 10.945 29.1821 10.98 29.0521 11.01C28.9321 11.04 28.7921 11.055 28.6321 11.055C28.3721 11.055 28.1321 11.005 27.9121 10.905C27.7021 10.795 27.5321 10.63 27.4021 10.41C27.2821 10.18 27.2221 9.895 27.2221 9.555V9.345L27.4921 9.375C27.3821 9.765 27.1871 10.09 26.9071 10.35C26.6371 10.6 26.3221 10.79 25.9621 10.92C25.6121 11.04 25.2571 11.1 24.8971 11.1C24.2471 11.1 23.6921 10.935 23.2321 10.605C22.7721 10.265 22.5421 9.76 22.5421 9.09C22.5421 8.55 22.7121 8.1 23.0521 7.74C23.4021 7.37 23.9121 7.115 24.5821 6.975L27.4471 6.375V7.275L25.0921 7.785C24.6021 7.885 24.2371 8.03 23.9971 8.22C23.7571 8.41 23.6371 8.68 23.6371 9.03C23.6371 9.37 23.7571 9.645 23.9971 9.855C24.2471 10.055 24.6021 10.155 25.0621 10.155C25.3321 10.155 25.5971 10.12 25.8571 10.05C26.1171 9.97 26.3521 9.85 26.5621 9.69C26.7721 9.53 26.9371 9.33 27.0571 9.09C27.1871 8.84 27.2521 8.545 27.2521 8.205V6.075ZM31.9683 3.45V10.95H30.8883V3.45H31.9683ZM31.5033 2.01C31.2333 2.01 31.0133 1.93 30.8433 1.77C30.6833 1.6 30.6033 1.38 30.6033 1.11C30.6033 0.84 30.6833 0.625 30.8433 0.465C31.0133 0.295 31.2333 0.21 31.5033 0.21C31.7733 0.21 31.9883 0.295 32.1483 0.465C32.3183 0.625 32.4033 0.84 32.4033 1.11C32.4033 1.38 32.3183 1.6 32.1483 1.77C31.9883 1.93 31.7733 2.01 31.5033 2.01ZM35.7462 4.76837e-07V9.075C35.7462 9.435 35.8012 9.705 35.9112 9.885C36.0212 10.065 36.2312 10.155 36.5412 10.155C36.7112 10.155 36.8512 10.14 36.9612 10.11C37.0712 10.08 37.2162 10.025 37.3962 9.945L37.2462 10.89C37.1162 10.96 36.9562 11.01 36.7662 11.04C36.5862 11.08 36.4112 11.1 36.2412 11.1C35.6412 11.1 35.2262 10.915 34.9962 10.545C34.7762 10.175 34.6662 9.7 34.6662 9.12V4.76837e-07H35.7462Z" fill="white"/>
</svg>
