<svg width="47" height="15" viewBox="0 0 47 15" fill="none" xmlns="http://www.w3.org/2000/svg">
<path d="M4.425 11.1C3.525 11.1 2.74 10.895 2.07 10.485C1.41 10.065 0.899995 9.475 0.539995 8.715C0.179995 7.955 -4.85778e-06 7.05 -4.85778e-06 6C-4.85778e-06 4.95 0.189995 4.045 0.569995 3.285C0.949995 2.525 1.475 1.94 2.145 1.53C2.825 1.11 3.61 0.899997 4.5 0.899997C5.45 0.899997 6.225 1.09 6.825 1.47C7.435 1.85 7.915 2.43 8.265 3.21L7.275 3.75C7.065 3.14 6.725 2.68 6.255 2.37C5.785 2.06 5.2 1.905 4.5 1.905C3.84 1.905 3.255 2.07 2.745 2.4C2.245 2.73 1.85 3.2 1.56 3.81C1.27 4.42 1.125 5.15 1.125 6C1.125 6.85 1.255 7.58 1.515 8.19C1.775 8.8 2.15 9.27 2.64 9.6C3.14 9.93 3.75 10.095 4.47 10.095C4.9 10.095 5.29 10.035 5.64 9.915C5.99 9.785 6.29 9.605 6.54 9.375C6.8 9.135 7 8.85 7.14 8.52C7.28 8.19 7.35 7.82 7.35 7.41V7.005H4.275V6H8.34V10.95H7.485L7.425 9.03L7.65 9.06C7.4 9.7 7.005 10.2 6.465 10.56C5.925 10.92 5.245 11.1 4.425 11.1ZM15.1079 6.075C15.1079 5.505 14.9579 5.06 14.6579 4.74C14.3579 4.41 13.9329 4.245 13.3829 4.245C12.8829 4.245 12.4579 4.365 12.1079 4.605C11.7579 4.835 11.4979 5.205 11.3279 5.715L10.4429 5.175C10.6429 4.605 10.9979 4.15 11.5079 3.81C12.0279 3.47 12.6629 3.3 13.4129 3.3C13.9429 3.3 14.4129 3.395 14.8229 3.585C15.2429 3.765 15.5729 4.045 15.8129 4.425C16.0629 4.805 16.1879 5.285 16.1879 5.865V9.525C16.1879 9.935 16.3779 10.14 16.7579 10.14C16.8379 10.14 16.9279 10.135 17.0279 10.125C17.1279 10.105 17.2129 10.08 17.2829 10.05L17.2229 10.905C17.1429 10.945 17.0379 10.98 16.9079 11.01C16.7879 11.04 16.6479 11.055 16.4879 11.055C16.2279 11.055 15.9879 11.005 15.7679 10.905C15.5579 10.795 15.3879 10.63 15.2579 10.41C15.1379 10.18 15.0779 9.895 15.0779 9.555V9.345L15.3479 9.375C15.2379 9.765 15.0429 10.09 14.7629 10.35C14.4929 10.6 14.1779 10.79 13.8179 10.92C13.4679 11.04 13.1129 11.1 12.7529 11.1C12.1029 11.1 11.5479 10.935 11.0879 10.605C10.6279 10.265 10.3979 9.76 10.3979 9.09C10.3979 8.55 10.5679 8.1 10.9079 7.74C11.2579 7.37 11.7679 7.115 12.4379 6.975L15.3029 6.375V7.275L12.9479 7.785C12.4579 7.885 12.0929 8.03 11.8529 8.22C11.6129 8.41 11.4929 8.68 11.4929 9.03C11.4929 9.37 11.6129 9.645 11.8529 9.855C12.1029 10.055 12.4579 10.155 12.9179 10.155C13.1879 10.155 13.4529 10.12 13.7129 10.05C13.9729 9.97 14.2079 9.85 14.4179 9.69C14.6279 9.53 14.7929 9.33 14.9129 9.09C15.0429 8.84 15.1079 8.545 15.1079 8.205V6.075ZM19.7641 -3.33786e-06V9.075C19.7641 9.435 19.8191 9.705 19.9291 9.885C20.0391 10.065 20.2491 10.155 20.5591 10.155C20.7291 10.155 20.8691 10.14 20.9791 10.11C21.0891 10.08 21.2341 10.025 21.4141 9.945L21.2641 10.89C21.1341 10.96 20.9741 11.01 20.7841 11.04C20.6041 11.08 20.4291 11.1 20.2591 11.1C19.6591 11.1 19.2441 10.915 19.0141 10.545C18.7941 10.175 18.6841 9.7 18.6841 9.12V-3.33786e-06H19.7641ZM23.9536 -3.33786e-06V9.075C23.9536 9.435 24.0086 9.705 24.1186 9.885C24.2286 10.065 24.4386 10.155 24.7486 10.155C24.9186 10.155 25.0586 10.14 25.1686 10.11C25.2786 10.08 25.4236 10.025 25.6036 9.945L25.4536 10.89C25.3236 10.96 25.1636 11.01 24.9736 11.04C24.7936 11.08 24.6186 11.1 24.4486 11.1C23.8486 11.1 23.4336 10.915 23.2036 10.545C22.9836 10.175 22.8736 9.7 22.8736 9.12V-3.33786e-06H23.9536ZM30.093 11.1C29.413 11.1 28.808 10.945 28.278 10.635C27.758 10.325 27.348 9.88 27.048 9.3C26.748 8.71 26.598 8.01 26.598 7.2C26.598 6.39 26.743 5.695 27.033 5.115C27.333 4.525 27.738 4.075 28.248 3.765C28.768 3.455 29.358 3.3 30.018 3.3C30.688 3.3 31.258 3.45 31.728 3.75C32.198 4.05 32.558 4.46 32.808 4.98C33.058 5.5 33.183 6.09 33.183 6.75C33.183 6.91 33.178 7.05 33.168 7.17C33.158 7.29 33.148 7.395 33.138 7.485H27.303V6.525H32.658L32.103 6.645C32.103 6.135 32.013 5.705 31.833 5.355C31.663 4.995 31.418 4.72 31.098 4.53C30.788 4.34 30.423 4.245 30.003 4.245C29.523 4.245 29.103 4.365 28.743 4.605C28.393 4.845 28.123 5.185 27.933 5.625C27.743 6.065 27.648 6.59 27.648 7.2C27.648 7.81 27.748 8.335 27.948 8.775C28.148 9.215 28.428 9.555 28.788 9.795C29.158 10.035 29.588 10.155 30.078 10.155C30.598 10.155 31.028 10.045 31.368 9.825C31.718 9.595 31.993 9.295 32.193 8.925L33.048 9.42C32.868 9.76 32.633 10.06 32.343 10.32C32.063 10.57 31.733 10.765 31.353 10.905C30.973 11.035 30.553 11.1 30.093 11.1ZM35.4287 10.95V3.45H36.3287L36.4637 4.77C36.6437 4.3 36.9237 3.94 37.3037 3.69C37.6837 3.43 38.1387 3.3 38.6687 3.3C38.8087 3.3 38.9487 3.315 39.0887 3.345C39.2287 3.365 39.3487 3.41 39.4487 3.48L39.2687 4.455C39.1687 4.405 39.0537 4.37 38.9237 4.35C38.8037 4.32 38.6337 4.305 38.4137 4.305C38.1137 4.305 37.8137 4.405 37.5137 4.605C37.2237 4.795 36.9837 5.08 36.7937 5.46C36.6037 5.84 36.5087 6.305 36.5087 6.855V10.95H35.4287ZM46.9762 3.45L43.6012 12.24C43.4412 12.66 43.2612 13.015 43.0612 13.305C42.8712 13.595 42.6362 13.81 42.3562 13.95C42.0862 14.1 41.7512 14.175 41.3512 14.175C41.0412 14.175 40.7512 14.125 40.4812 14.025C40.2112 13.935 39.9762 13.81 39.7762 13.65L40.0912 12.72C40.2712 12.9 40.4662 13.03 40.6762 13.11C40.8962 13.19 41.1062 13.23 41.3062 13.23C41.5762 13.23 41.8212 13.145 42.0412 12.975C42.2612 12.805 42.4662 12.47 42.6562 11.97L43.0462 10.935L42.3112 9.135L40.0462 3.45H41.2612L43.1512 8.55L43.5562 9.795L44.0512 8.415L45.8212 3.45H46.9762Z" fill="white"/>
</svg>
