<svg width="111" height="15" viewBox="0 0 111 15" fill="none" xmlns="http://www.w3.org/2000/svg">
<path d="M7.33502 1.05L3.22502 5.43L3.06002 5.595L0.55502 8.28L0.54002 6.825L5.92502 1.05H7.33502ZM1.08002 1.05V10.95H1.96546e-05V1.05H1.08002ZM3.34502 4.725L7.39502 10.95H6.09002L2.46002 5.355L3.34502 4.725ZM12.7648 6.075C12.7648 5.505 12.6148 5.06 12.3148 4.74C12.0148 4.41 11.5898 4.245 11.0398 4.245C10.5398 4.245 10.1148 4.365 9.76479 4.605C9.41479 4.835 9.15479 5.205 8.98479 5.715L8.09979 5.175C8.29979 4.605 8.65479 4.15 9.16479 3.81C9.68479 3.47 10.3198 3.3 11.0698 3.3C11.5998 3.3 12.0698 3.395 12.4798 3.585C12.8998 3.765 13.2298 4.045 13.4698 4.425C13.7198 4.805 13.8448 5.285 13.8448 5.865V9.525C13.8448 9.935 14.0348 10.14 14.4148 10.14C14.4948 10.14 14.5848 10.135 14.6848 10.125C14.7848 10.105 14.8698 10.08 14.9398 10.05L14.8798 10.905C14.7998 10.945 14.6948 10.98 14.5648 11.01C14.4448 11.04 14.3048 11.055 14.1448 11.055C13.8848 11.055 13.6448 11.005 13.4248 10.905C13.2148 10.795 13.0448 10.63 12.9148 10.41C12.7948 10.18 12.7348 9.895 12.7348 9.555V9.345L13.0048 9.375C12.8948 9.765 12.6998 10.09 12.4198 10.35C12.1498 10.6 11.8348 10.79 11.4748 10.92C11.1248 11.04 10.7698 11.1 10.4098 11.1C9.75979 11.1 9.20479 10.935 8.74479 10.605C8.28479 10.265 8.05479 9.76 8.05479 9.09C8.05479 8.55 8.22479 8.1 8.56479 7.74C8.91479 7.37 9.42479 7.115 10.0948 6.975L12.9598 6.375V7.275L10.6048 7.785C10.1148 7.885 9.74979 8.03 9.50979 8.22C9.26979 8.41 9.14979 8.68 9.14979 9.03C9.14979 9.37 9.26979 9.645 9.50979 9.855C9.75979 10.055 10.1148 10.155 10.5748 10.155C10.8448 10.155 11.1098 10.12 11.3698 10.05C11.6298 9.97 11.8648 9.85 12.0748 9.69C12.2848 9.53 12.4498 9.33 12.5698 9.09C12.6998 8.84 12.7648 8.545 12.7648 8.205V6.075ZM17.421 -3.33786e-06V9.075C17.421 9.435 17.476 9.705 17.586 9.885C17.696 10.065 17.906 10.155 18.216 10.155C18.386 10.155 18.526 10.14 18.636 10.11C18.746 10.08 18.891 10.025 19.071 9.945L18.921 10.89C18.791 10.96 18.631 11.01 18.441 11.04C18.261 11.08 18.086 11.1 17.916 11.1C17.316 11.1 16.901 10.915 16.671 10.545C16.451 10.175 16.341 9.7 16.341 9.12V-3.33786e-06H17.421ZM25.0375 3.45H26.1775L23.1925 10.95H22.0975L19.1125 3.45H20.3425L22.6675 9.855L25.0375 3.45ZM31.9835 6.075C31.9835 5.505 31.8335 5.06 31.5335 4.74C31.2335 4.41 30.8085 4.245 30.2585 4.245C29.7585 4.245 29.3335 4.365 28.9835 4.605C28.6335 4.835 28.3735 5.205 28.2035 5.715L27.3185 5.175C27.5185 4.605 27.8735 4.15 28.3835 3.81C28.9035 3.47 29.5385 3.3 30.2885 3.3C30.8185 3.3 31.2885 3.395 31.6985 3.585C32.1185 3.765 32.4485 4.045 32.6885 4.425C32.9385 4.805 33.0635 5.285 33.0635 5.865V9.525C33.0635 9.935 33.2535 10.14 33.6335 10.14C33.7135 10.14 33.8035 10.135 33.9035 10.125C34.0035 10.105 34.0885 10.08 34.1585 10.05L34.0985 10.905C34.0185 10.945 33.9135 10.98 33.7835 11.01C33.6635 11.04 33.5235 11.055 33.3635 11.055C33.1035 11.055 32.8635 11.005 32.6435 10.905C32.4335 10.795 32.2635 10.63 32.1335 10.41C32.0135 10.18 31.9535 9.895 31.9535 9.555V9.345L32.2235 9.375C32.1135 9.765 31.9185 10.09 31.6385 10.35C31.3685 10.6 31.0535 10.79 30.6935 10.92C30.3435 11.04 29.9885 11.1 29.6285 11.1C28.9785 11.1 28.4235 10.935 27.9635 10.605C27.5035 10.265 27.2735 9.76 27.2735 9.09C27.2735 8.55 27.4435 8.1 27.7835 7.74C28.1335 7.37 28.6435 7.115 29.3135 6.975L32.1785 6.375V7.275L29.8235 7.785C29.3335 7.885 28.9685 8.03 28.7285 8.22C28.4885 8.41 28.3685 8.68 28.3685 9.03C28.3685 9.37 28.4885 9.645 28.7285 9.855C28.9785 10.055 29.3335 10.155 29.7935 10.155C30.0635 10.155 30.3285 10.12 30.5885 10.05C30.8485 9.97 31.0835 9.85 31.2935 9.69C31.5035 9.53 31.6685 9.33 31.7885 9.09C31.9185 8.84 31.9835 8.545 31.9835 8.205V6.075ZM35.6197 10.95V3.45H36.5197L36.6547 4.77C36.8347 4.3 37.1147 3.94 37.4947 3.69C37.8747 3.43 38.3297 3.3 38.8597 3.3C38.9997 3.3 39.1397 3.315 39.2797 3.345C39.4197 3.365 39.5397 3.41 39.6397 3.48L39.4597 4.455C39.3597 4.405 39.2447 4.37 39.1147 4.35C38.9947 4.32 38.8247 4.305 38.6047 4.305C38.3047 4.305 38.0047 4.405 37.7047 4.605C37.4147 4.795 37.1747 5.08 36.9847 5.46C36.7947 5.84 36.6997 6.305 36.6997 6.855V10.95H35.6197ZM42.4273 3.45V10.95H41.3473V3.45H42.4273ZM41.9623 2.01C41.6923 2.01 41.4723 1.93 41.3023 1.77C41.1423 1.6 41.0623 1.38 41.0623 1.11C41.0623 0.839997 41.1423 0.624996 41.3023 0.464996C41.4723 0.294996 41.6923 0.209997 41.9623 0.209997C42.2323 0.209997 42.4473 0.294996 42.6073 0.464996C42.7773 0.624996 42.8623 0.839997 42.8623 1.11C42.8623 1.38 42.7773 1.6 42.6073 1.77C42.4473 1.93 42.2323 2.01 41.9623 2.01ZM51.0052 3.45L47.6302 12.24C47.4702 12.66 47.2902 13.015 47.0902 13.305C46.9002 13.595 46.6652 13.81 46.3852 13.95C46.1152 14.1 45.7802 14.175 45.3802 14.175C45.0702 14.175 44.7802 14.125 44.5102 14.025C44.2402 13.935 44.0052 13.81 43.8052 13.65L44.1202 12.72C44.3002 12.9 44.4952 13.03 44.7052 13.11C44.9252 13.19 45.1352 13.23 45.3352 13.23C45.6052 13.23 45.8502 13.145 46.0702 12.975C46.2902 12.805 46.4952 12.47 46.6852 11.97L47.0752 10.935L46.3402 9.135L44.0752 3.45H45.2902L47.1802 8.55L47.5852 9.795L48.0802 8.415L49.8502 3.45H51.0052ZM54.9119 11.1C54.2119 11.1 53.5719 10.945 52.9919 10.635C52.4119 10.325 51.9719 9.885 51.6719 9.315L52.5719 8.655C52.7719 9.135 53.0769 9.505 53.4869 9.765C53.9069 10.025 54.4069 10.155 54.9869 10.155C55.5069 10.155 55.9169 10.045 56.2169 9.825C56.5269 9.605 56.6819 9.315 56.6819 8.955C56.6819 8.725 56.6119 8.52 56.4719 8.34C56.3319 8.15 56.0669 8.01 55.6769 7.92L53.9969 7.545C53.2969 7.385 52.7969 7.135 52.4969 6.795C52.1969 6.455 52.0469 6.03 52.0469 5.52C52.0469 5.12 52.1569 4.755 52.3769 4.425C52.6069 4.085 52.9319 3.815 53.3519 3.615C53.7719 3.405 54.2619 3.3 54.8219 3.3C55.5219 3.3 56.1119 3.45 56.5919 3.75C57.0819 4.04 57.4419 4.455 57.6719 4.995L56.7869 5.58C56.6269 5.11 56.3619 4.77 55.9919 4.56C55.6219 4.35 55.2319 4.245 54.8219 4.245C54.4719 4.245 54.1669 4.3 53.9069 4.41C53.6469 4.51 53.4469 4.655 53.3069 4.845C53.1769 5.025 53.1119 5.235 53.1119 5.475C53.1119 5.705 53.1869 5.92 53.3369 6.12C53.4969 6.32 53.7819 6.465 54.1919 6.555L55.9469 6.945C56.6169 7.095 57.0869 7.325 57.3569 7.635C57.6269 7.945 57.7619 8.335 57.7619 8.805C57.7619 9.505 57.4969 10.065 56.9669 10.485C56.4469 10.895 55.7619 11.1 54.9119 11.1ZM66.1758 3.45L63.0708 6.675L62.8158 6.93L60.5208 9.33V7.98L64.8108 3.45H66.1758ZM61.0308 -3.33786e-06V10.95H59.9508V-3.33786e-06H61.0308ZM63.1608 6.12L66.3258 10.95H65.0208L62.2758 6.735L63.1608 6.12ZM71.9884 6.075C71.9884 5.505 71.8384 5.06 71.5384 4.74C71.2384 4.41 70.8134 4.245 70.2634 4.245C69.7634 4.245 69.3384 4.365 68.9884 4.605C68.6384 4.835 68.3784 5.205 68.2084 5.715L67.3234 5.175C67.5234 4.605 67.8784 4.15 68.3884 3.81C68.9084 3.47 69.5434 3.3 70.2934 3.3C70.8234 3.3 71.2934 3.395 71.7034 3.585C72.1234 3.765 72.4534 4.045 72.6934 4.425C72.9434 4.805 73.0684 5.285 73.0684 5.865V9.525C73.0684 9.935 73.2584 10.14 73.6384 10.14C73.7184 10.14 73.8084 10.135 73.9084 10.125C74.0084 10.105 74.0934 10.08 74.1634 10.05L74.1034 10.905C74.0234 10.945 73.9184 10.98 73.7884 11.01C73.6684 11.04 73.5284 11.055 73.3684 11.055C73.1084 11.055 72.8684 11.005 72.6484 10.905C72.4384 10.795 72.2684 10.63 72.1384 10.41C72.0184 10.18 71.9584 9.895 71.9584 9.555V9.345L72.2284 9.375C72.1184 9.765 71.9234 10.09 71.6434 10.35C71.3734 10.6 71.0584 10.79 70.6984 10.92C70.3484 11.04 69.9934 11.1 69.6334 11.1C68.9834 11.1 68.4284 10.935 67.9684 10.605C67.5084 10.265 67.2784 9.76 67.2784 9.09C67.2784 8.55 67.4484 8.1 67.7884 7.74C68.1384 7.37 68.6484 7.115 69.3184 6.975L72.1834 6.375V7.275L69.8284 7.785C69.3384 7.885 68.9734 8.03 68.7334 8.22C68.4934 8.41 68.3734 8.68 68.3734 9.03C68.3734 9.37 68.4934 9.645 68.7334 9.855C68.9834 10.055 69.3384 10.155 69.7984 10.155C70.0684 10.155 70.3334 10.12 70.5934 10.05C70.8534 9.97 71.0884 9.85 71.2984 9.69C71.5084 9.53 71.6734 9.33 71.7934 9.09C71.9234 8.84 71.9884 8.545 71.9884 8.205V6.075ZM81.4446 3.45L78.0696 12.24C77.9096 12.66 77.7296 13.015 77.5296 13.305C77.3396 13.595 77.1046 13.81 76.8246 13.95C76.5546 14.1 76.2196 14.175 75.8196 14.175C75.5096 14.175 75.2196 14.125 74.9496 14.025C74.6796 13.935 74.4446 13.81 74.2446 13.65L74.5596 12.72C74.7396 12.9 74.9346 13.03 75.1446 13.11C75.3646 13.19 75.5746 13.23 75.7746 13.23C76.0446 13.23 76.2896 13.145 76.5096 12.975C76.7296 12.805 76.9346 12.47 77.1246 11.97L77.5146 10.935L76.7796 9.135L74.5146 3.45H75.7296L77.6196 8.55L78.0246 9.795L78.5196 8.415L80.2896 3.45H81.4446ZM87.2667 6.075C87.2667 5.505 87.1167 5.06 86.8167 4.74C86.5167 4.41 86.0917 4.245 85.5417 4.245C85.0417 4.245 84.6167 4.365 84.2667 4.605C83.9167 4.835 83.6567 5.205 83.4867 5.715L82.6017 5.175C82.8017 4.605 83.1567 4.15 83.6667 3.81C84.1867 3.47 84.8217 3.3 85.5717 3.3C86.1017 3.3 86.5717 3.395 86.9817 3.585C87.4017 3.765 87.7317 4.045 87.9717 4.425C88.2217 4.805 88.3467 5.285 88.3467 5.865V9.525C88.3467 9.935 88.5367 10.14 88.9167 10.14C88.9967 10.14 89.0867 10.135 89.1867 10.125C89.2867 10.105 89.3717 10.08 89.4417 10.05L89.3817 10.905C89.3017 10.945 89.1967 10.98 89.0667 11.01C88.9467 11.04 88.8067 11.055 88.6467 11.055C88.3867 11.055 88.1467 11.005 87.9267 10.905C87.7167 10.795 87.5467 10.63 87.4167 10.41C87.2967 10.18 87.2367 9.895 87.2367 9.555V9.345L87.5067 9.375C87.3967 9.765 87.2017 10.09 86.9217 10.35C86.6517 10.6 86.3367 10.79 85.9767 10.92C85.6267 11.04 85.2717 11.1 84.9117 11.1C84.2617 11.1 83.7067 10.935 83.2467 10.605C82.7867 10.265 82.5567 9.76 82.5567 9.09C82.5567 8.55 82.7267 8.1 83.0667 7.74C83.4167 7.37 83.9267 7.115 84.5967 6.975L87.4617 6.375V7.275L85.1067 7.785C84.6167 7.885 84.2517 8.03 84.0117 8.22C83.7717 8.41 83.6517 8.68 83.6517 9.03C83.6517 9.37 83.7717 9.645 84.0117 9.855C84.2617 10.055 84.6167 10.155 85.0767 10.155C85.3467 10.155 85.6117 10.12 85.8717 10.05C86.1317 9.97 86.3667 9.85 86.5767 9.69C86.7867 9.53 86.9517 9.33 87.0717 9.09C87.2017 8.84 87.2667 8.545 87.2667 8.205V6.075ZM99.8577 10.95V8.295H95.1777V7.5C95.1877 7.5 95.1927 7.5 95.1927 7.5C95.2027 7.5 95.2077 7.5 95.2077 7.5L99.5577 1.05H100.923V7.365H102.648V8.295H100.923V10.95H99.8577ZM96.3177 7.365H99.8577V3.435C99.8577 3.285 99.8577 3.14 99.8577 3C99.8677 2.86 99.8727 2.705 99.8727 2.535C99.8827 2.365 99.8927 2.165 99.9027 1.935H99.8727C99.8027 2.075 99.7127 2.24 99.6027 2.43C99.5027 2.62 99.3927 2.81 99.2727 3C99.1627 3.18 99.0577 3.345 98.9577 3.495L96.3177 7.365ZM104.372 10.95V10.065C105.302 9.335 106.087 8.69 106.727 8.13C107.377 7.57 107.897 7.06 108.287 6.6C108.677 6.14 108.962 5.7 109.142 5.28C109.322 4.86 109.412 4.425 109.412 3.975C109.412 3.355 109.222 2.855 108.842 2.475C108.472 2.095 107.972 1.905 107.342 1.905C106.672 1.905 106.132 2.135 105.722 2.595C105.322 3.045 105.092 3.655 105.032 4.425L104.087 3.855C104.167 3.275 104.342 2.765 104.612 2.325C104.892 1.875 105.262 1.525 105.722 1.275C106.192 1.025 106.742 0.899997 107.372 0.899997C108.022 0.899997 108.582 1.03 109.052 1.29C109.522 1.55 109.887 1.91 110.147 2.37C110.407 2.83 110.537 3.365 110.537 3.975C110.537 4.605 110.382 5.225 110.072 5.835C109.772 6.445 109.282 7.085 108.602 7.755C107.922 8.415 107.022 9.15 105.902 9.96V9.975C106.002 9.965 106.137 9.96 106.307 9.96C106.477 9.96 106.647 9.96 106.817 9.96C106.997 9.95 107.132 9.945 107.222 9.945H110.762V10.95H104.372Z" fill="white"/>
</svg>
