<svg width="163" height="28" viewBox="0 0 163 28" fill="none" xmlns="http://www.w3.org/2000/svg">
<path d="M12.12 16.96C11.88 16.96 11.76 16.8133 11.76 16.52C11.76 16.2267 11.8533 15.9333 12.04 15.64C12.2533 15.3467 12.48 15.2 12.72 15.2C12.8533 15.1733 13 15.16 13.16 15.16C13.3466 15.16 13.5733 15.1467 13.84 15.12C14.08 15.12 14.2933 15.12 14.48 15.12C14.6666 15.12 14.8133 15.1067 14.92 15.08H14.96C15.12 15.08 15.2133 15.2 15.24 15.44C15.3466 15.5467 15.44 15.6 15.52 15.6C18.1866 15.0933 20.8533 14.12 23.52 12.68C25.2 11.7467 26.4666 10.7467 27.32 9.68C28.1733 8.61334 28.6 7.56 28.6 6.52C28.6 5.18667 27.9066 4.06667 26.52 3.16C25.1333 2.25334 23.2 1.73334 20.72 1.6C20.56 1.57334 20.36 1.56 20.12 1.56C19.9066 1.56 19.6533 1.56 19.36 1.56C16.7466 1.56 14.2533 1.97334 11.88 2.8C9.53329 3.6 7.38662 4.77334 5.43995 6.32C3.51995 7.84 1.87995 9.68 0.519951 11.84C0.413284 12 0.306618 12.08 0.199951 12.08C0.0666177 12.08 -4.89652e-05 11.9333 -4.89652e-05 11.64C-4.89652e-05 11.1333 0.173284 10.6267 0.519951 10.12C1.85328 8.06667 3.57328 6.36 5.67995 5C7.78662 3.61334 10.1066 2.57334 12.64 1.88C15.2 1.16 17.8133 0.800004 20.48 0.800004C22.5866 0.800004 24.4666 1.02667 26.12 1.48C27.6933 1.93334 28.8933 2.56 29.72 3.36C30.5733 4.16 31 5.06667 31 6.08C31 7.14667 30.5066 8.26667 29.52 9.44C28.5333 10.6133 27.0533 11.7467 25.08 12.84C24.04 13.4 22.9066 13.9333 21.68 14.44C20.48 14.92 19.28 15.36 18.08 15.76C16.88 16.1333 15.76 16.4267 14.72 16.64C13.7066 16.8533 12.8533 16.96 12.16 16.96H12.12ZM7.31995 26.44C5.82662 26.44 5.07995 25.72 5.07995 24.28C5.07995 23.9333 5.11995 23.56 5.19995 23.16C5.57328 20.92 6.39995 18.68 7.67995 16.44C8.98662 14.2 10.56 11.84 12.4 9.36L13.64 7.6C13.6933 7.54667 13.72 7.46667 13.72 7.36C13.72 7.30667 13.7066 7.24 13.68 7.16C13.68 7.08 13.68 7.02667 13.68 7C13.68 6.65334 13.9866 6.32 14.6 6C14.92 5.46667 15.3333 5.06667 15.84 4.8C16.3466 4.53334 16.8266 4.4 17.28 4.4C17.9733 4.4 18.32 4.62667 18.32 5.08C18.32 5.37334 18.1866 5.65334 17.92 5.92C17.8133 6.02667 17.6666 6.18667 17.48 6.4C17.2933 6.58667 17.0533 6.82667 16.76 7.12C15.8533 8.05334 15 8.97334 14.2 9.88C13.4266 10.76 12.6933 11.6267 12 12.48V12.44C8.95995 16.28 7.07995 19.8533 6.35995 23.16C6.33328 23.2933 6.30662 23.4133 6.27995 23.52C6.27995 23.6267 6.27995 23.7067 6.27995 23.76C6.27995 24.2667 6.37328 24.6933 6.55995 25.04C6.74662 25.4133 6.95995 25.6133 7.19995 25.64C7.41328 25.6667 7.58662 25.72 7.71995 25.8C7.85328 25.88 7.94662 25.9733 7.99995 26.08V26.16C7.99995 26.3467 7.77328 26.44 7.31995 26.44ZM29.3181 24.96C29.2647 24.96 29.2114 24.9467 29.1581 24.92C29.1047 24.92 29.0514 24.9067 28.9981 24.88C28.6247 24.6933 28.3847 24.4267 28.2781 24.08C28.1714 23.7333 28.1447 23.2933 28.1981 22.76C28.2514 22.5467 28.3047 22.1733 28.3581 21.64C28.4381 21.1067 28.5314 20.68 28.6381 20.36L26.5981 22.32L25.4781 23.4C24.7047 24.1733 24.0647 24.56 23.5581 24.56C23.3447 24.56 23.1714 24.48 23.0381 24.32C22.7981 24.0267 22.6781 23.6667 22.6781 23.24C22.6781 22.68 22.8247 22.08 23.1181 21.44C23.4114 20.8 23.7581 20.1867 24.1581 19.6C24.5581 18.9867 24.9181 18.48 25.2381 18.08C26.0381 17.0933 26.8114 16.32 27.5581 15.76C28.3314 15.2 29.1314 14.92 29.9581 14.92C30.4114 14.92 30.8514 15 31.2781 15.16C31.7314 15.32 32.1447 15.5867 32.5181 15.96L32.5581 16C32.5581 16.08 32.4914 16.16 32.3581 16.24C32.3047 16.2933 32.2514 16.3333 32.1981 16.36C32.1714 16.3867 32.1447 16.4133 32.1181 16.44C31.7981 16.76 31.4381 17.2933 31.0381 18.04C30.6381 18.7867 30.2914 19.5733 29.9981 20.4C29.7047 21.2 29.5581 21.8933 29.5581 22.48C29.5581 23.0133 29.6914 23.3733 29.9581 23.56C30.0914 23.64 30.2381 23.68 30.3981 23.68C30.7447 23.68 31.2247 23.4667 31.8381 23.04C31.8647 23.0133 31.9181 22.9733 31.9981 22.92C32.1047 22.84 32.2514 22.7333 32.4381 22.6C32.6514 22.44 32.8247 22.36 32.9581 22.36C33.0914 22.36 33.1581 22.4133 33.1581 22.52C33.1581 22.68 33.0514 22.8667 32.8381 23.08C32.6781 23.2133 32.4914 23.36 32.2781 23.52C32.0914 23.68 31.8647 23.84 31.5981 24C31.1981 24.2933 30.7847 24.52 30.3581 24.68C29.9314 24.8667 29.5847 24.96 29.3181 24.96ZM24.7981 22.4C25.3581 22.4 26.3981 21.5733 27.9181 19.92C28.3181 19.4667 28.6781 19.04 28.9981 18.64C29.3181 18.2133 29.6114 17.8 29.8781 17.4C30.3581 16.6267 30.5181 16.0933 30.3581 15.8C30.2781 15.64 30.1181 15.56 29.8781 15.56C29.5847 15.56 29.1847 15.72 28.6781 16.04C28.1714 16.3333 27.6514 16.72 27.1181 17.2C26.6114 17.68 26.1447 18.16 25.7181 18.64C25.4247 19.0133 25.1314 19.5333 24.8381 20.2C24.5447 20.8667 24.3981 21.4133 24.3981 21.84C24.3981 22.2133 24.5314 22.4 24.7981 22.4ZM42.1178 25.04C41.4244 25.04 41.0778 24.5333 41.0778 23.52C41.0778 22.48 41.4378 20.9467 42.1578 18.92C41.3044 20.0133 40.4511 20.9867 39.5978 21.84C38.7711 22.6667 37.9444 23.3467 37.1178 23.88C36.5311 24.3067 35.9978 24.52 35.5178 24.52C34.8778 24.52 34.5578 24.08 34.5578 23.2C34.5578 22.72 34.6378 22.28 34.7978 21.88C35.0111 21.2933 35.3178 20.6133 35.7178 19.84C36.1444 19.0667 36.6378 18.2933 37.1978 17.52C37.7578 16.7467 38.3311 16.0933 38.9178 15.56C39.1311 15.4267 39.2644 15.36 39.3178 15.36C39.5044 15.36 39.5978 15.4667 39.5978 15.68C39.5978 15.76 39.5578 15.8667 39.4778 16C39.2378 16.2667 38.9578 16.6533 38.6378 17.16C38.3178 17.6667 38.0111 18.2133 37.7178 18.8C37.4244 19.3867 37.1711 19.9333 36.9578 20.44C36.7711 20.92 36.6778 21.28 36.6778 21.52C36.6778 22 36.8911 22.24 37.3178 22.24C37.5044 22.24 37.7044 22.1733 37.9178 22.04C38.9044 21.4267 39.8111 20.6933 40.6378 19.84C41.4644 18.96 42.2378 17.7733 42.9578 16.28C43.1978 16.12 43.4644 16.04 43.7578 16.04C44.0511 16.04 44.2911 16.1333 44.4778 16.32C44.6911 16.5067 44.7978 16.76 44.7978 17.08C44.7978 17.32 44.7311 17.6 44.5978 17.92C44.5711 18.0267 44.5178 18.1333 44.4378 18.24C44.3844 18.3467 44.3178 18.4667 44.2378 18.6C44.1578 18.7333 44.0911 18.8667 44.0378 19C43.9844 19.1067 43.9311 19.2 43.8778 19.28C43.3711 20.1867 42.9711 20.9467 42.6778 21.56C42.4111 22.1733 42.2778 22.7067 42.2778 23.16C42.2778 23.6933 42.5178 23.96 42.9978 23.96C43.4244 23.96 43.8511 23.8 44.2778 23.48C44.5444 23.2933 44.7711 23.2 44.9578 23.2C45.2511 23.2 45.1844 23.3867 44.7578 23.76C44.3578 24.1067 43.8644 24.4267 43.2778 24.72C42.7178 24.9333 42.3311 25.04 42.1178 25.04ZM46.0478 26.52C45.7544 26.52 45.5011 26.4267 45.2878 26.24C45.1011 26.0533 45.0211 25.8267 45.0478 25.56C45.1011 24.4667 45.3011 23.4133 45.6478 22.4C46.0211 21.3867 46.5544 20.1733 47.2478 18.76C47.3278 18.5733 47.3944 18.4133 47.4478 18.28C47.5278 18.12 47.5944 17.9867 47.6478 17.88C48.2344 16.6267 48.8344 15.4267 49.4478 14.28C50.0611 13.1333 50.6744 12.0133 51.2878 10.92L51.8478 9.92C52.4878 8.77334 53.0478 7.85334 53.5278 7.16C54.0078 6.44 54.4878 5.92 54.9678 5.6C55.5811 5.22667 55.9544 5.04 56.0878 5.04C56.3011 5.04 56.5144 5.22667 56.7278 5.6C56.8611 5.86667 56.5944 6.52 55.9278 7.56C55.5811 8.09334 55.1411 8.76 54.6078 9.56C54.1011 10.36 53.4878 11.2667 52.7678 12.28C52.6344 12.4667 52.4078 12.8 52.0878 13.28C51.7944 13.7333 51.3944 14.3333 50.8878 15.08C50.3811 15.8267 49.9411 16.5067 49.5678 17.12C49.1944 17.7067 48.8878 18.2267 48.6478 18.68C48.1678 19.56 47.7144 20.5067 47.2878 21.52C46.8611 22.5067 46.6478 23.28 46.6478 23.84C46.6478 24.3467 46.8478 24.6 47.2478 24.6C47.8878 24.6 48.9144 24.0533 50.3278 22.96C50.4878 22.9867 50.5678 23.0667 50.5678 23.2C50.5678 23.3067 50.4344 23.4933 50.1678 23.76C49.9278 24 49.6211 24.2533 49.2478 24.52C48.9011 24.8133 48.4878 25.1467 48.0078 25.52L47.3678 26C46.9411 26.3467 46.5011 26.52 46.0478 26.52ZM52.2196 26.52C51.9263 26.52 51.673 26.4267 51.4596 26.24C51.273 26.0533 51.193 25.8267 51.2196 25.56C51.273 24.4667 51.473 23.4133 51.8196 22.4C52.193 21.3867 52.7263 20.1733 53.4196 18.76C53.4996 18.5733 53.5663 18.4133 53.6196 18.28C53.6996 18.12 53.7663 17.9867 53.8196 17.88C54.4063 16.6267 55.0063 15.4267 55.6196 14.28C56.233 13.1333 56.8463 12.0133 57.4596 10.92L58.0196 9.92C58.6596 8.77334 59.2196 7.85334 59.6996 7.16C60.1796 6.44 60.6596 5.92 61.1396 5.6C61.753 5.22667 62.1263 5.04 62.2596 5.04C62.473 5.04 62.6863 5.22667 62.8996 5.6C63.033 5.86667 62.7663 6.52 62.0996 7.56C61.753 8.09334 61.313 8.76 60.7796 9.56C60.273 10.36 59.6596 11.2667 58.9396 12.28C58.8063 12.4667 58.5796 12.8 58.2596 13.28C57.9663 13.7333 57.5663 14.3333 57.0596 15.08C56.553 15.8267 56.113 16.5067 55.7396 17.12C55.3663 17.7067 55.0596 18.2267 54.8196 18.68C54.3396 19.56 53.8863 20.5067 53.4596 21.52C53.033 22.5067 52.8196 23.28 52.8196 23.84C52.8196 24.3467 53.0196 24.6 53.4196 24.6C54.0596 24.6 55.0863 24.0533 56.4996 22.96C56.6596 22.9867 56.7396 23.0667 56.7396 23.2C56.7396 23.3067 56.6063 23.4933 56.3396 23.76C56.0996 24 55.793 24.2533 55.4196 24.52C55.073 24.8133 54.6596 25.1467 54.1796 25.52L53.5396 26C53.113 26.3467 52.673 26.52 52.2196 26.52ZM62.3915 15.12C62.0448 15.12 61.8715 15.04 61.8715 14.88C61.8715 14.7467 61.9648 14.56 62.1515 14.32C62.3648 14.0533 62.6048 13.8267 62.8715 13.64C63.4582 13.2667 63.9115 12.9467 64.2315 12.68C64.5782 12.4133 64.9915 11.96 65.4715 11.32C65.4982 11.3733 65.5115 11.48 65.5115 11.64C65.5115 11.9867 65.3648 12.4133 65.0715 12.92C64.8048 13.4 64.4982 13.84 64.1515 14.24C63.8048 14.64 63.4982 14.8933 63.2315 15C62.9915 15.08 62.7115 15.12 62.3915 15.12ZM58.8315 24.92C58.6182 24.92 58.4182 24.84 58.2315 24.68C58.0448 24.52 57.9515 24.3067 57.9515 24.04C57.9515 23.48 58.3382 22.4533 59.1115 20.96L59.5515 20.08C59.6048 20.0267 59.6715 19.8933 59.7515 19.68C59.8582 19.4667 60.0048 19.1867 60.1915 18.84C60.3782 18.4667 60.5248 18.1333 60.6315 17.84C60.7382 17.5467 60.8182 17.2667 60.8715 17C60.8715 16.9733 60.9248 16.92 61.0315 16.84C61.1382 16.76 61.2448 16.6933 61.3515 16.64L61.5915 16.6C61.8048 16.6 61.9782 16.64 62.1115 16.72C62.2715 16.8 62.3248 16.9067 62.2715 17.04C62.0848 17.44 61.9248 17.7867 61.7915 18.08C61.6582 18.3733 61.5515 18.6267 61.4715 18.84H61.4315C61.1382 19.5067 60.8848 20.1467 60.6715 20.76C60.4848 21.3467 60.4048 21.9067 60.4315 22.44L60.4715 23.52C60.4448 23.7867 60.3515 24.0133 60.1915 24.2C60.0848 24.28 59.9382 24.3733 59.7515 24.48C59.5648 24.6133 59.3248 24.7467 59.0315 24.88C59.0048 24.9067 58.9382 24.92 58.8315 24.92ZM62.8465 24.52C62.3665 24.52 62.1265 24.3333 62.1265 23.96C62.1265 23.72 62.2065 23.4133 62.3665 23.04C62.5532 22.6667 62.7398 22.3067 62.9265 21.96C63.4332 21.0533 63.8998 20.1733 64.3265 19.32C64.7532 18.4667 65.1665 17.56 65.5665 16.6C65.7532 16.1733 66.0332 15.96 66.4065 15.96C66.8065 15.96 66.9265 16.2 66.7665 16.68C66.6065 17.08 66.4465 17.44 66.2865 17.76C65.5398 19.28 65.1665 20.3067 65.1665 20.84C65.1665 21.08 65.2465 21.2267 65.4065 21.28C65.7798 20.9867 66.0598 20.7733 66.2465 20.64C66.4332 20.48 66.5398 20.3867 66.5665 20.36C66.9398 20.0667 67.3532 19.7333 67.8065 19.36C68.2865 18.96 68.8065 18.5067 69.3665 18C70.2465 17.2 70.9798 16.8 71.5665 16.8C72.2865 16.8 72.5932 17.4533 72.4865 18.76C72.4598 19.2667 72.4598 19.76 72.4865 20.24C72.5132 20.3467 72.5265 20.5067 72.5265 20.72C72.5265 20.9067 72.5265 21.1333 72.5265 21.4C72.5265 21.6667 72.6865 21.8 73.0065 21.8C73.3798 21.8 73.7265 21.6933 74.0465 21.48L74.9265 20.88L75.8065 20.32C75.8598 20.2933 75.9532 20.28 76.0865 20.28C76.2465 20.28 76.2465 20.4 76.0865 20.64C74.4065 22.72 73.0198 23.76 71.9265 23.76C71.7132 23.76 71.4998 23.72 71.2865 23.64C71.0998 23.56 70.9665 23.3333 70.8865 22.96C70.8065 22.56 70.7532 22.1333 70.7265 21.68C70.7265 21.2267 70.7265 20.88 70.7265 20.64L70.7665 19.32C70.7665 18.76 70.6198 18.48 70.3265 18.48C69.6332 18.48 67.9265 19.9067 65.2065 22.76C64.9932 23.0267 64.6598 23.3867 64.2065 23.84C63.7532 24.2933 63.2998 24.52 62.8465 24.52ZM78.4421 24.32C77.8821 24.32 77.3888 24.1733 76.9621 23.88C76.2688 23.3467 75.9221 22.5467 75.9221 21.48C75.9221 20.4133 76.2955 19.28 77.0421 18.08C77.7888 16.88 78.9221 15.7733 80.4421 14.76C80.7088 14.5733 81.0688 14.48 81.5221 14.48C82.1088 14.48 82.6288 14.64 83.0821 14.96C83.5621 15.28 83.7488 15.6933 83.6421 16.2C83.4555 17.0267 83.0421 17.76 82.4021 18.4C81.7888 19.04 81.0555 19.6133 80.2021 20.12C79.3755 20.6 78.5221 21.0667 77.6421 21.52C77.6155 21.6 77.5888 21.68 77.5621 21.76C77.5621 21.84 77.5621 21.92 77.5621 22C77.5621 22.3733 77.6821 22.7067 77.9221 23C78.1888 23.2667 78.5488 23.4 79.0021 23.4C79.3488 23.4 79.6421 23.3467 79.8821 23.24C80.3088 23.08 80.6555 22.9333 80.9221 22.8C81.2155 22.6667 81.5488 22.4667 81.9221 22.2C82.2955 21.9333 82.8021 21.5333 83.4421 21C83.7355 20.7867 83.9088 20.68 83.9621 20.68C84.1221 20.68 84.1755 20.8 84.1221 21.04C83.8555 21.4667 83.3888 21.9333 82.7221 22.44C82.0821 22.9467 81.3621 23.3867 80.5621 23.76C79.7888 24.1333 79.0821 24.32 78.4421 24.32ZM77.8821 20.44C78.0955 20.44 78.5355 20.2267 79.2021 19.8C79.8688 19.3733 80.4955 18.9067 81.0821 18.4C82.0955 17.4667 82.6021 16.7467 82.6021 16.24C82.6021 16.1067 82.5621 15.9867 82.4821 15.88C82.4021 15.7467 82.2821 15.68 82.1221 15.68C81.6155 15.68 80.7621 16.28 79.5621 17.48C78.7355 18.28 78.1755 19.2667 77.8821 20.44ZM97.004 13.2C96.684 13.2 96.404 13.1467 96.164 13.04C95.444 12.8267 94.7107 12.3733 93.964 11.68C93.2173 10.96 92.564 10.1067 92.004 9.12C91.4707 8.10667 91.1507 7.10667 91.044 6.12C91.0173 6.01334 91.004 5.88 91.004 5.72C91.004 5.56 91.004 5.37334 91.004 5.16C91.004 1.72 93.164 4.76837e-06 97.484 4.76837e-06C99.6173 4.76837e-06 101.964 0.333338 104.524 1C107.084 1.66667 110.057 2.56 113.444 3.68001C114.297 3.97334 115.017 4.21334 115.604 4.4C116.191 4.58667 116.617 4.72 116.884 4.8C117.791 5.06667 118.631 5.2 119.404 5.2C120.257 5.2 120.884 5.04 121.284 4.72C121.684 4.37334 121.871 4 121.844 3.6V3.44C121.844 3.12 121.937 2.96 122.124 2.96C122.337 2.96 122.564 3.12 122.804 3.44C122.911 3.57334 122.964 3.76 122.964 4C122.964 4.56 122.657 5.08 122.044 5.56C121.431 6.04 120.497 6.28 119.244 6.28C118.097 6.28 116.831 6.09334 115.444 5.72C114.057 5.34667 112.257 4.8 110.044 4.08C107.564 3.28 105.524 2.68 103.924 2.28C102.324 1.85334 100.831 1.64 99.444 1.64C96.1907 1.64 94.124 3.06667 93.244 5.92C93.164 6.18667 93.124 6.49334 93.124 6.84C93.124 7.50667 93.2973 8.26667 93.644 9.12C94.0173 9.94667 94.4707 10.6933 95.004 11.36C95.5373 12 96.0573 12.3733 96.564 12.48H96.844C97.484 12.48 97.804 12.6 97.804 12.84C97.804 12.92 97.7373 13 97.604 13.08C97.444 13.16 97.244 13.2 97.004 13.2ZM99.564 27.6C98.3107 27.3333 97.684 26.6533 97.684 25.56C97.684 25.0267 97.8173 24.32 98.084 23.44C98.3507 22.6667 98.5907 21.9867 98.804 21.4C99.044 20.7867 99.2707 20.2667 99.484 19.84C99.6973 19.4133 99.9507 18.9333 100.244 18.4C100.564 17.8667 100.937 17.2667 101.364 16.6L99.364 17.76C99.0173 17.9467 98.7107 18.1067 98.444 18.24C98.1773 18.3733 97.9373 18.4667 97.724 18.52C97.6973 18.52 97.6707 18.5333 97.644 18.56C97.644 18.56 97.6307 18.56 97.604 18.56C97.4707 18.56 97.404 18.4533 97.404 18.24C97.404 17.9467 97.4973 17.5867 97.684 17.16C97.8973 16.7333 98.0973 16.4533 98.284 16.32C98.6307 16.1333 98.9507 15.9733 99.244 15.84C99.5373 15.7067 99.7907 15.6133 100.004 15.56C100.084 15.5333 100.177 15.5067 100.284 15.48C100.391 15.4267 100.511 15.3867 100.644 15.36C100.884 15.28 101.204 15.16 101.604 15C102.004 14.8133 102.324 14.7067 102.564 14.68C102.564 14.68 102.657 14.5467 102.844 14.28C103.031 13.9867 103.311 13.56 103.684 13C104.804 11.2667 105.497 10.16 105.764 9.68C106.404 8.53334 106.977 7.64 107.484 7C107.777 6.6 108.191 6.4 108.724 6.4C109.097 6.4 109.444 6.49334 109.764 6.68C110.084 6.86667 110.244 7.06667 110.244 7.28C110.244 7.41334 110.191 7.52 110.084 7.6C109.337 8.24 108.444 9.14667 107.404 10.32C106.391 11.4667 105.391 12.6933 104.404 14C106.537 13.44 108.537 13.16 110.404 13.16C110.831 13.16 111.137 13.2 111.324 13.28C111.537 13.4133 111.644 13.5333 111.644 13.64C111.644 13.72 111.564 13.8267 111.404 13.96C111.324 14.0133 111.217 14.0533 111.084 14.08C110.977 14.1067 110.857 14.1333 110.724 14.16C109.711 14.2133 108.817 14.3067 108.044 14.44C107.271 14.5733 106.511 14.76 105.764 15C105.044 15.2133 104.231 15.5067 103.324 15.88C102.764 16.68 102.297 17.36 101.924 17.92C101.551 18.4533 101.244 18.96 101.004 19.44C100.764 19.8933 100.537 20.4 100.324 20.96C100.111 21.4933 99.884 22.16 99.644 22.96C99.3773 23.76 99.244 24.4 99.244 24.88C99.244 25.6267 99.5773 26.08 100.244 26.24C100.484 26.2667 100.604 26.4 100.604 26.64C100.604 26.88 100.484 27.1067 100.244 27.32C100.031 27.56 99.804 27.6533 99.564 27.6ZM110.708 24.32C110.148 24.32 109.654 24.1733 109.228 23.88C108.534 23.3467 108.188 22.5467 108.188 21.48C108.188 20.4133 108.561 19.28 109.308 18.08C110.054 16.88 111.188 15.7733 112.708 14.76C112.974 14.5733 113.334 14.48 113.788 14.48C114.374 14.48 114.894 14.64 115.348 14.96C115.828 15.28 116.014 15.6933 115.908 16.2C115.721 17.0267 115.308 17.76 114.668 18.4C114.054 19.04 113.321 19.6133 112.468 20.12C111.641 20.6 110.788 21.0667 109.908 21.52C109.881 21.6 109.854 21.68 109.828 21.76C109.828 21.84 109.828 21.92 109.828 22C109.828 22.3733 109.948 22.7067 110.188 23C110.454 23.2667 110.814 23.4 111.268 23.4C111.614 23.4 111.908 23.3467 112.148 23.24C112.574 23.08 112.921 22.9333 113.188 22.8C113.481 22.6667 113.814 22.4667 114.188 22.2C114.561 21.9333 115.068 21.5333 115.708 21C116.001 20.7867 116.174 20.68 116.228 20.68C116.388 20.68 116.441 20.8 116.388 21.04C116.121 21.4667 115.654 21.9333 114.988 22.44C114.348 22.9467 113.628 23.3867 112.828 23.76C112.054 24.1333 111.348 24.32 110.708 24.32ZM110.148 20.44C110.361 20.44 110.801 20.2267 111.468 19.8C112.134 19.3733 112.761 18.9067 113.348 18.4C114.361 17.4667 114.868 16.7467 114.868 16.24C114.868 16.1067 114.828 15.9867 114.748 15.88C114.668 15.7467 114.548 15.68 114.388 15.68C113.881 15.68 113.028 16.28 111.828 17.48C111.001 18.28 110.441 19.2667 110.148 20.44ZM116.357 24.72C116.011 24.72 115.837 24.4133 115.837 23.8C115.837 23.2933 115.957 22.8 116.197 22.32C116.811 21.1467 117.371 19.9867 117.877 18.84C118.224 18.1467 118.544 17.48 118.837 16.84C119.157 16.2 119.451 15.6133 119.717 15.08C119.877 14.92 120.037 14.84 120.197 14.84C120.544 14.84 120.651 15 120.517 15.32C120.464 15.5067 120.384 15.7333 120.277 16C120.197 16.24 120.091 16.5333 119.957 16.88C119.531 18 119.277 18.7867 119.197 19.24C119.944 18.5733 120.704 17.96 121.477 17.4C122.277 16.8133 123.024 16.3333 123.717 15.96C124.411 15.5867 124.997 15.4 125.477 15.4C125.904 15.4 126.117 15.5733 126.117 15.92C126.117 16.2133 125.984 16.5333 125.717 16.88C125.451 17.2 125.184 17.36 124.917 17.36C124.784 17.36 124.677 17.32 124.597 17.24C124.517 17.2133 124.357 17.2 124.117 17.2C123.264 17.2 122.371 17.6133 121.437 18.44C120.451 19.2667 119.557 20.2667 118.757 21.44C117.957 22.5867 117.371 23.5867 116.997 24.44C116.811 24.6267 116.597 24.72 116.357 24.72ZM124.248 24.72C123.901 24.72 123.728 24.4133 123.728 23.8C123.728 23.2933 123.848 22.8 124.088 22.32C124.701 21.1467 125.261 19.9867 125.768 18.84C126.115 18.1467 126.435 17.48 126.728 16.84C127.048 16.2 127.341 15.6133 127.608 15.08C127.768 14.92 127.928 14.84 128.088 14.84C128.435 14.84 128.541 15 128.408 15.32C128.355 15.5067 128.275 15.7333 128.168 16C128.088 16.24 127.981 16.5333 127.848 16.88C127.421 18 127.168 18.7867 127.088 19.24C127.835 18.5733 128.595 17.96 129.368 17.4C130.168 16.8133 130.915 16.3333 131.608 15.96C132.301 15.5867 132.888 15.4 133.368 15.4C133.795 15.4 134.008 15.5733 134.008 15.92C134.008 16.2133 133.875 16.5333 133.608 16.88C133.341 17.2 133.075 17.36 132.808 17.36C132.675 17.36 132.568 17.32 132.488 17.24C132.408 17.2133 132.248 17.2 132.008 17.2C131.155 17.2 130.261 17.6133 129.328 18.44C128.341 19.2667 127.448 20.2667 126.648 21.44C125.848 22.5867 125.261 23.5867 124.888 24.44C124.701 24.6267 124.488 24.72 124.248 24.72ZM134.419 24.32C133.859 24.32 133.365 24.1733 132.939 23.88C132.245 23.3467 131.899 22.5467 131.899 21.48C131.899 20.4133 132.272 19.28 133.019 18.08C133.765 16.88 134.899 15.7733 136.419 14.76C136.685 14.5733 137.045 14.48 137.499 14.48C138.085 14.48 138.605 14.64 139.059 14.96C139.539 15.28 139.725 15.6933 139.619 16.2C139.432 17.0267 139.019 17.76 138.379 18.4C137.765 19.04 137.032 19.6133 136.179 20.12C135.352 20.6 134.499 21.0667 133.619 21.52C133.592 21.6 133.565 21.68 133.539 21.76C133.539 21.84 133.539 21.92 133.539 22C133.539 22.3733 133.659 22.7067 133.899 23C134.165 23.2667 134.525 23.4 134.979 23.4C135.325 23.4 135.619 23.3467 135.859 23.24C136.285 23.08 136.632 22.9333 136.899 22.8C137.192 22.6667 137.525 22.4667 137.899 22.2C138.272 21.9333 138.779 21.5333 139.419 21C139.712 20.7867 139.885 20.68 139.939 20.68C140.099 20.68 140.152 20.8 140.099 21.04C139.832 21.4667 139.365 21.9333 138.699 22.44C138.059 22.9467 137.339 23.3867 136.539 23.76C135.765 24.1333 135.059 24.32 134.419 24.32ZM133.859 20.44C134.072 20.44 134.512 20.2267 135.179 19.8C135.845 19.3733 136.472 18.9067 137.059 18.4C138.072 17.4667 138.579 16.7467 138.579 16.24C138.579 16.1067 138.539 15.9867 138.459 15.88C138.379 15.7467 138.259 15.68 138.099 15.68C137.592 15.68 136.739 16.28 135.539 17.48C134.712 18.28 134.152 19.2667 133.859 20.44ZM144.188 15.12C143.842 15.12 143.668 15.04 143.668 14.88C143.668 14.7467 143.762 14.56 143.948 14.32C144.162 14.0533 144.402 13.8267 144.668 13.64C145.255 13.2667 145.708 12.9467 146.028 12.68C146.375 12.4133 146.788 11.96 147.268 11.32C147.295 11.3733 147.308 11.48 147.308 11.64C147.308 11.9867 147.162 12.4133 146.868 12.92C146.602 13.4 146.295 13.84 145.948 14.24C145.602 14.64 145.295 14.8933 145.028 15C144.788 15.08 144.508 15.12 144.188 15.12ZM140.628 24.92C140.415 24.92 140.215 24.84 140.028 24.68C139.842 24.52 139.748 24.3067 139.748 24.04C139.748 23.48 140.135 22.4533 140.908 20.96L141.348 20.08C141.402 20.0267 141.468 19.8933 141.548 19.68C141.655 19.4667 141.802 19.1867 141.988 18.84C142.175 18.4667 142.322 18.1333 142.428 17.84C142.535 17.5467 142.615 17.2667 142.668 17C142.668 16.9733 142.722 16.92 142.828 16.84C142.935 16.76 143.042 16.6933 143.148 16.64L143.388 16.6C143.602 16.6 143.775 16.64 143.908 16.72C144.068 16.8 144.122 16.9067 144.068 17.04C143.882 17.44 143.722 17.7867 143.588 18.08C143.455 18.3733 143.348 18.6267 143.268 18.84H143.228C142.935 19.5067 142.682 20.1467 142.468 20.76C142.282 21.3467 142.202 21.9067 142.228 22.44L142.268 23.52C142.242 23.7867 142.148 24.0133 141.988 24.2C141.882 24.28 141.735 24.3733 141.548 24.48C141.362 24.6133 141.122 24.7467 140.828 24.88C140.802 24.9067 140.735 24.92 140.628 24.92ZM144.443 24.72C144.097 24.72 143.923 24.4133 143.923 23.8C143.923 23.2933 144.043 22.8 144.283 22.32C144.897 21.1467 145.457 19.9867 145.963 18.84C146.31 18.1467 146.63 17.48 146.923 16.84C147.243 16.2 147.537 15.6133 147.803 15.08C147.963 14.92 148.123 14.84 148.283 14.84C148.63 14.84 148.737 15 148.603 15.32C148.55 15.5067 148.47 15.7333 148.363 16C148.283 16.24 148.177 16.5333 148.043 16.88C147.617 18 147.363 18.7867 147.283 19.24C148.03 18.5733 148.79 17.96 149.563 17.4C150.363 16.8133 151.11 16.3333 151.803 15.96C152.497 15.5867 153.083 15.4 153.563 15.4C153.99 15.4 154.203 15.5733 154.203 15.92C154.203 16.2133 154.07 16.5333 153.803 16.88C153.537 17.2 153.27 17.36 153.003 17.36C152.87 17.36 152.763 17.32 152.683 17.24C152.603 17.2133 152.443 17.2 152.203 17.2C151.35 17.2 150.457 17.6133 149.523 18.44C148.537 19.2667 147.643 20.2667 146.843 21.44C146.043 22.5867 145.457 23.5867 145.083 24.44C144.897 24.6267 144.683 24.72 144.443 24.72ZM158.654 24.96C158.601 24.96 158.547 24.9467 158.494 24.92C158.441 24.92 158.387 24.9067 158.334 24.88C157.961 24.6933 157.721 24.4267 157.614 24.08C157.507 23.7333 157.481 23.2933 157.534 22.76C157.587 22.5467 157.641 22.1733 157.694 21.64C157.774 21.1067 157.867 20.68 157.974 20.36L155.934 22.32L154.814 23.4C154.041 24.1733 153.401 24.56 152.894 24.56C152.681 24.56 152.507 24.48 152.374 24.32C152.134 24.0267 152.014 23.6667 152.014 23.24C152.014 22.68 152.161 22.08 152.454 21.44C152.747 20.8 153.094 20.1867 153.494 19.6C153.894 18.9867 154.254 18.48 154.574 18.08C155.374 17.0933 156.147 16.32 156.894 15.76C157.667 15.2 158.467 14.92 159.294 14.92C159.747 14.92 160.187 15 160.614 15.16C161.067 15.32 161.481 15.5867 161.854 15.96L161.894 16C161.894 16.08 161.827 16.16 161.694 16.24C161.641 16.2933 161.587 16.3333 161.534 16.36C161.507 16.3867 161.481 16.4133 161.454 16.44C161.134 16.76 160.774 17.2933 160.374 18.04C159.974 18.7867 159.627 19.5733 159.334 20.4C159.041 21.2 158.894 21.8933 158.894 22.48C158.894 23.0133 159.027 23.3733 159.294 23.56C159.427 23.64 159.574 23.68 159.734 23.68C160.081 23.68 160.561 23.4667 161.174 23.04C161.201 23.0133 161.254 22.9733 161.334 22.92C161.441 22.84 161.587 22.7333 161.774 22.6C161.987 22.44 162.161 22.36 162.294 22.36C162.427 22.36 162.494 22.4133 162.494 22.52C162.494 22.68 162.387 22.8667 162.174 23.08C162.014 23.2133 161.827 23.36 161.614 23.52C161.427 23.68 161.201 23.84 160.934 24C160.534 24.2933 160.121 24.52 159.694 24.68C159.267 24.8667 158.921 24.96 158.654 24.96ZM154.134 22.4C154.694 22.4 155.734 21.5733 157.254 19.92C157.654 19.4667 158.014 19.04 158.334 18.64C158.654 18.2133 158.947 17.8 159.214 17.4C159.694 16.6267 159.854 16.0933 159.694 15.8C159.614 15.64 159.454 15.56 159.214 15.56C158.921 15.56 158.521 15.72 158.014 16.04C157.507 16.3333 156.987 16.72 156.454 17.2C155.947 17.68 155.481 18.16 155.054 18.64C154.761 19.0133 154.467 19.5333 154.174 20.2C153.881 20.8667 153.734 21.4133 153.734 21.84C153.734 22.2133 153.867 22.4 154.134 22.4Z" fill="white"/>
</svg>
