<svg width="78" height="15" viewBox="0 0 78 15" fill="none" xmlns="http://www.w3.org/2000/svg">
<path d="M2.90999 10.95L-9.73791e-06 1.05H1.12499L3.58499 9.96L5.92499 1.05H7.15499L9.49499 9.99L11.955 1.05H13.02L10.125 10.95H8.80499L7.03499 4.395L6.52499 2.175H6.50999L5.99999 4.395L4.24499 10.95H2.90999ZM14.9178 10.95V-3.33786e-06H15.9978V4.68C16.2378 4.21 16.5678 3.865 16.9878 3.645C17.4178 3.415 17.8928 3.3 18.4128 3.3C18.9228 3.3 19.3828 3.405 19.7928 3.615C20.2128 3.815 20.5478 4.125 20.7978 4.545C21.0478 4.965 21.1728 5.495 21.1728 6.135V10.95H20.0928V6.495C20.0928 5.665 19.9178 5.085 19.5678 4.755C19.2178 4.415 18.7828 4.245 18.2628 4.245C17.9028 4.245 17.5478 4.335 17.1978 4.515C16.8478 4.695 16.5578 4.98 16.3278 5.37C16.1078 5.76 15.9978 6.27 15.9978 6.9V10.95H14.9178ZM28.0687 6.075C28.0687 5.505 27.9187 5.06 27.6187 4.74C27.3187 4.41 26.8937 4.245 26.3437 4.245C25.8437 4.245 25.4187 4.365 25.0687 4.605C24.7187 4.835 24.4587 5.205 24.2887 5.715L23.4037 5.175C23.6037 4.605 23.9587 4.15 24.4687 3.81C24.9887 3.47 25.6237 3.3 26.3737 3.3C26.9037 3.3 27.3737 3.395 27.7837 3.585C28.2037 3.765 28.5337 4.045 28.7737 4.425C29.0237 4.805 29.1487 5.285 29.1487 5.865V9.525C29.1487 9.935 29.3387 10.14 29.7187 10.14C29.7987 10.14 29.8887 10.135 29.9887 10.125C30.0887 10.105 30.1737 10.08 30.2437 10.05L30.1837 10.905C30.1037 10.945 29.9987 10.98 29.8687 11.01C29.7487 11.04 29.6087 11.055 29.4487 11.055C29.1887 11.055 28.9487 11.005 28.7287 10.905C28.5187 10.795 28.3487 10.63 28.2187 10.41C28.0987 10.18 28.0387 9.895 28.0387 9.555V9.345L28.3087 9.375C28.1987 9.765 28.0037 10.09 27.7237 10.35C27.4537 10.6 27.1387 10.79 26.7787 10.92C26.4287 11.04 26.0737 11.1 25.7137 11.1C25.0637 11.1 24.5087 10.935 24.0487 10.605C23.5887 10.265 23.3587 9.76 23.3587 9.09C23.3587 8.55 23.5287 8.1 23.8687 7.74C24.2187 7.37 24.7287 7.115 25.3987 6.975L28.2637 6.375V7.275L25.9087 7.785C25.4187 7.885 25.0537 8.03 24.8137 8.22C24.5737 8.41 24.4537 8.68 24.4537 9.03C24.4537 9.37 24.5737 9.645 24.8137 9.855C25.0637 10.055 25.4187 10.155 25.8787 10.155C26.1487 10.155 26.4137 10.12 26.6737 10.05C26.9337 9.97 27.1687 9.85 27.3787 9.69C27.5887 9.53 27.7537 9.33 27.8737 9.09C28.0037 8.84 28.0687 8.545 28.0687 8.205V6.075ZM33.25 1.335V8.895C33.25 9.295 33.35 9.595 33.55 9.795C33.75 9.995 34.015 10.095 34.345 10.095C34.625 10.095 34.86 10.045 35.05 9.945C35.25 9.845 35.43 9.71 35.59 9.54L35.95 10.44C35.73 10.65 35.475 10.815 35.185 10.935C34.895 11.045 34.565 11.1 34.195 11.1C33.635 11.1 33.155 10.945 32.755 10.635C32.365 10.325 32.17 9.81 32.17 9.09V1.635L33.25 1.335ZM35.83 3.45V4.38H30.76V3.45H35.83ZM40.0547 11.1C39.3547 11.1 38.7147 10.945 38.1347 10.635C37.5547 10.325 37.1147 9.885 36.8147 9.315L37.7147 8.655C37.9147 9.135 38.2197 9.505 38.6297 9.765C39.0497 10.025 39.5497 10.155 40.1297 10.155C40.6497 10.155 41.0597 10.045 41.3597 9.825C41.6697 9.605 41.8247 9.315 41.8247 8.955C41.8247 8.725 41.7547 8.52 41.6147 8.34C41.4747 8.15 41.2097 8.01 40.8197 7.92L39.1397 7.545C38.4397 7.385 37.9397 7.135 37.6397 6.795C37.3397 6.455 37.1897 6.03 37.1897 5.52C37.1897 5.12 37.2997 4.755 37.5197 4.425C37.7497 4.085 38.0747 3.815 38.4947 3.615C38.9147 3.405 39.4047 3.3 39.9647 3.3C40.6647 3.3 41.2547 3.45 41.7347 3.75C42.2247 4.04 42.5847 4.455 42.8147 4.995L41.9297 5.58C41.7697 5.11 41.5047 4.77 41.1347 4.56C40.7647 4.35 40.3747 4.245 39.9647 4.245C39.6147 4.245 39.3097 4.3 39.0497 4.41C38.7897 4.51 38.5897 4.655 38.4497 4.845C38.3197 5.025 38.2547 5.235 38.2547 5.475C38.2547 5.705 38.3297 5.92 38.4797 6.12C38.6397 6.32 38.9247 6.465 39.3347 6.555L41.0897 6.945C41.7597 7.095 42.2297 7.325 42.4997 7.635C42.7697 7.945 42.9047 8.335 42.9047 8.805C42.9047 9.505 42.6397 10.065 42.1097 10.485C41.5897 10.895 40.9047 11.1 40.0547 11.1ZM47.5986 11.1C46.8986 11.1 46.2586 10.945 45.6786 10.635C45.0986 10.325 44.6586 9.885 44.3586 9.315L45.2586 8.655C45.4586 9.135 45.7636 9.505 46.1736 9.765C46.5936 10.025 47.0936 10.155 47.6736 10.155C48.1936 10.155 48.6036 10.045 48.9036 9.825C49.2136 9.605 49.3686 9.315 49.3686 8.955C49.3686 8.725 49.2986 8.52 49.1586 8.34C49.0186 8.15 48.7536 8.01 48.3636 7.92L46.6836 7.545C45.9836 7.385 45.4836 7.135 45.1836 6.795C44.8836 6.455 44.7336 6.03 44.7336 5.52C44.7336 5.12 44.8436 4.755 45.0636 4.425C45.2936 4.085 45.6186 3.815 46.0386 3.615C46.4586 3.405 46.9486 3.3 47.5086 3.3C48.2086 3.3 48.7986 3.45 49.2786 3.75C49.7686 4.04 50.1286 4.455 50.3586 4.995L49.4736 5.58C49.3136 5.11 49.0486 4.77 48.6786 4.56C48.3086 4.35 47.9186 4.245 47.5086 4.245C47.1586 4.245 46.8536 4.3 46.5936 4.41C46.3336 4.51 46.1336 4.655 45.9936 4.845C45.8636 5.025 45.7986 5.235 45.7986 5.475C45.7986 5.705 45.8736 5.92 46.0236 6.12C46.1836 6.32 46.4686 6.465 46.8786 6.555L48.6336 6.945C49.3036 7.095 49.7736 7.325 50.0436 7.635C50.3136 7.945 50.4486 8.335 50.4486 8.805C50.4486 9.505 50.1836 10.065 49.6536 10.485C49.1336 10.895 48.4486 11.1 47.5986 11.1ZM60.3193 10.95H59.1643L58.1143 8.115H53.7343L52.6843 10.95H51.5443L55.2943 1.05H56.5843L60.3193 10.95ZM54.1093 7.095H57.7393L55.9243 2.1L54.1093 7.095ZM62.0565 14.1V3.45H63.0015L63.0915 5.355L62.9565 5.16C63.1265 4.6 63.4515 4.15 63.9315 3.81C64.4115 3.47 64.9715 3.3 65.6115 3.3C66.2115 3.3 66.7565 3.455 67.2465 3.765C67.7365 4.075 68.1265 4.525 68.4165 5.115C68.7065 5.695 68.8515 6.39 68.8515 7.2C68.8515 8.01 68.7015 8.71 68.4015 9.3C68.1115 9.88 67.7165 10.325 67.2165 10.635C66.7165 10.945 66.1665 11.1 65.5665 11.1C64.9565 11.1 64.4265 10.94 63.9765 10.62C63.5265 10.3 63.2015 9.885 63.0015 9.375L63.1365 9.165V14.1H62.0565ZM65.4465 10.155C66.1665 10.155 66.7315 9.89 67.1415 9.36C67.5615 8.82 67.7715 8.1 67.7715 7.2C67.7715 6.3 67.5665 5.585 67.1565 5.055C66.7565 4.515 66.2015 4.245 65.4915 4.245C65.0315 4.245 64.6215 4.37 64.2615 4.62C63.9115 4.86 63.6365 5.2 63.4365 5.64C63.2365 6.08 63.1365 6.6 63.1365 7.2C63.1365 7.79 63.2315 8.31 63.4215 8.76C63.6215 9.2 63.8915 9.545 64.2315 9.795C64.5815 10.035 64.9865 10.155 65.4465 10.155ZM71.1092 14.1V3.45H72.0542L72.1442 5.355L72.0092 5.16C72.1792 4.6 72.5042 4.15 72.9842 3.81C73.4642 3.47 74.0242 3.3 74.6642 3.3C75.2642 3.3 75.8092 3.455 76.2992 3.765C76.7892 4.075 77.1792 4.525 77.4692 5.115C77.7592 5.695 77.9042 6.39 77.9042 7.2C77.9042 8.01 77.7542 8.71 77.4542 9.3C77.1642 9.88 76.7692 10.325 76.2692 10.635C75.7692 10.945 75.2192 11.1 74.6192 11.1C74.0092 11.1 73.4792 10.94 73.0292 10.62C72.5792 10.3 72.2542 9.885 72.0542 9.375L72.1892 9.165V14.1H71.1092ZM74.4992 10.155C75.2192 10.155 75.7842 9.89 76.1942 9.36C76.6142 8.82 76.8242 8.1 76.8242 7.2C76.8242 6.3 76.6192 5.585 76.2092 5.055C75.8092 4.515 75.2542 4.245 74.5442 4.245C74.0842 4.245 73.6742 4.37 73.3142 4.62C72.9642 4.86 72.6892 5.2 72.4892 5.64C72.2892 6.08 72.1892 6.6 72.1892 7.2C72.1892 7.79 72.2842 8.31 72.4742 8.76C72.6742 9.2 72.9442 9.545 73.2842 9.795C73.6342 10.035 74.0392 10.155 74.4992 10.155Z" fill="white"/>
</svg>
