<svg width="100" height="9" viewBox="0 0 100 9" fill="none" xmlns="http://www.w3.org/2000/svg">
<path d="M3.58797 1.41701V7.82601H2.71697V1.41701H3.58797ZM6.29197 4.17301V5.04401H-2.92659e-05V4.17301H6.29197ZM9.82655 8.85301C9.08988 8.85301 8.44422 8.67534 7.88955 8.32001C7.33488 7.95601 6.95788 7.46201 6.75855 6.83801L7.69455 6.35701C7.83322 6.84234 8.07588 7.23667 8.42255 7.54001C8.76922 7.83467 9.25888 7.98201 9.89155 7.98201C10.4549 7.98201 10.8882 7.82601 11.1915 7.51401C11.5035 7.20201 11.6595 6.79467 11.6595 6.29201C11.6595 5.96267 11.5989 5.69401 11.4775 5.48601C11.3562 5.26934 11.1699 5.10901 10.9185 5.00501C10.6759 4.89234 10.3639 4.83601 9.98255 4.83601C9.88722 4.83601 9.78322 4.84034 9.67055 4.84901C9.55788 4.84901 9.44522 4.85767 9.33255 4.87501V3.93901C9.41055 3.94767 9.48855 3.95201 9.56655 3.95201C9.64455 3.95201 9.71388 3.95201 9.77455 3.95201C10.3725 3.95201 10.8059 3.82201 11.0745 3.56201C11.3432 3.29334 11.4775 2.89034 11.4775 2.35301C11.4775 1.87634 11.3345 1.51234 11.0485 1.26101C10.7712 1.00967 10.3812 0.884007 9.87855 0.884007C9.35855 0.884007 8.95122 1.00967 8.65655 1.26101C8.36188 1.50367 8.13655 1.83734 7.98055 2.26201L7.09655 1.83301C7.23522 1.46901 7.43455 1.15267 7.69455 0.884007C7.96322 0.606673 8.28388 0.390007 8.65655 0.234006C9.02922 0.0780069 9.44522 7.15256e-06 9.90455 7.15256e-06C10.4679 7.15256e-06 10.9359 0.0996738 11.3085 0.299007C11.6899 0.498341 11.9715 0.767007 12.1535 1.10501C12.3442 1.44301 12.4395 1.82001 12.4395 2.23601C12.4395 2.53934 12.3962 2.81667 12.3095 3.06801C12.2315 3.31067 12.1189 3.52734 11.9715 3.71801C11.8329 3.90001 11.6682 4.04734 11.4775 4.16001C11.2955 4.26401 11.1005 4.33334 10.8925 4.36801V4.39401C11.1612 4.40267 11.3995 4.45901 11.6075 4.56301C11.8242 4.66701 12.0062 4.80567 12.1535 4.97901C12.3095 5.15234 12.4265 5.35167 12.5045 5.57701C12.5912 5.80234 12.6345 6.04067 12.6345 6.29201C12.6345 6.79467 12.5132 7.24101 12.2705 7.63101C12.0365 8.01234 11.7072 8.31134 11.2825 8.52801C10.8665 8.74467 10.3812 8.85301 9.82655 8.85301ZM12.7597 0.143007H18.8047V1.01401C18.12 1.76801 17.5567 2.55234 17.1147 3.36701C16.6813 4.17301 16.3607 5.02234 16.1527 5.91501C15.9447 6.79901 15.8363 7.73501 15.8277 8.72301H14.8657C14.883 7.25834 15.1517 5.85001 15.6717 4.49801C16.1917 3.13734 16.976 1.89801 18.0247 0.780007L18.1807 1.01401H12.7597V0.143007ZM22.1737 8.85301C21.4457 8.85301 20.852 8.68401 20.3927 8.34601C19.942 7.99934 19.5997 7.50967 19.3657 6.87701L20.2757 6.39601C20.397 6.88134 20.6094 7.26701 20.9127 7.55301C21.216 7.83901 21.6407 7.98201 22.1867 7.98201C22.5767 7.98201 22.9104 7.90401 23.1877 7.74801C23.4737 7.58334 23.6904 7.35801 23.8377 7.07201C23.9937 6.78601 24.0717 6.44801 24.0717 6.05801C24.0717 5.64201 23.998 5.29101 23.8507 5.00501C23.712 4.71901 23.5084 4.50234 23.2397 4.35501C22.971 4.20767 22.6504 4.13401 22.2777 4.13401C21.853 4.13401 21.4804 4.20767 21.1597 4.35501C20.839 4.49367 20.5834 4.71034 20.3927 5.00501L19.5737 4.84901L20.0547 0.143007H24.6697V1.01401H20.8347L20.5227 3.88701L20.4967 4.01701H20.5227C20.722 3.79167 20.9777 3.60967 21.2897 3.47101C21.6104 3.33234 21.996 3.26301 22.4467 3.26301C22.9667 3.26301 23.4217 3.38001 23.8117 3.61401C24.2017 3.83934 24.5007 4.16001 24.7087 4.57601C24.9254 4.98334 25.0337 5.46434 25.0337 6.01901C25.0337 6.59967 24.9124 7.10234 24.6697 7.52701C24.427 7.95167 24.089 8.28101 23.6557 8.51501C23.231 8.74034 22.737 8.85301 22.1737 8.85301ZM29.7865 8.72301V7.95601C30.5925 7.32334 31.2729 6.76434 31.8275 6.27901C32.3909 5.79367 32.8415 5.35167 33.1795 4.95301C33.5175 4.55434 33.7645 4.17301 33.9205 3.80901C34.0765 3.44501 34.1545 3.06801 34.1545 2.67801C34.1545 2.14067 33.9899 1.70734 33.6605 1.37801C33.3399 1.04867 32.9065 0.884007 32.3605 0.884007C31.7799 0.884007 31.3119 1.08334 30.9565 1.48201C30.6099 1.87201 30.4105 2.40067 30.3585 3.06801L29.5395 2.57401C29.6089 2.07134 29.7605 1.62934 29.9945 1.24801C30.2372 0.858007 30.5579 0.554674 30.9565 0.338007C31.3639 0.12134 31.8405 0.013007 32.3865 0.013007C32.9499 0.013007 33.4352 0.125673 33.8425 0.351007C34.2499 0.57634 34.5662 0.88834 34.7915 1.28701C35.0169 1.68567 35.1295 2.14934 35.1295 2.67801C35.1295 3.22401 34.9952 3.76134 34.7265 4.29001C34.4665 4.81867 34.0419 5.37334 33.4525 5.95401C32.8632 6.52601 32.0832 7.16301 31.1125 7.86501V7.87801C31.1992 7.86934 31.3162 7.86501 31.4635 7.86501C31.6109 7.86501 31.7582 7.86501 31.9055 7.86501C32.0615 7.85634 32.1785 7.85201 32.2565 7.85201H35.3245V8.72301H29.7865ZM39.1932 0.013007C39.8779 0.013007 40.4542 0.19934 40.9222 0.572007C41.3902 0.944673 41.7412 1.46467 41.9752 2.13201C42.2179 2.79067 42.3392 3.55767 42.3392 4.43301C42.3392 5.39501 42.2179 6.20534 41.9752 6.86401C41.7326 7.51401 41.3772 8.00801 40.9092 8.34601C40.4412 8.68401 39.8692 8.85301 39.1932 8.85301C38.5086 8.85301 37.9192 8.68834 37.4252 8.35901C36.9399 8.02101 36.5846 7.54434 36.3592 6.92901L37.2822 6.43501C37.4122 6.89434 37.6289 7.26701 37.9322 7.55301C38.2356 7.83901 38.6646 7.98201 39.2192 7.98201C39.6612 7.98201 40.0252 7.88667 40.3112 7.69601C40.6059 7.50534 40.8399 7.24101 41.0132 6.90301C41.1866 6.55634 41.3079 6.14901 41.3772 5.68101C41.4552 5.20434 41.4942 4.68434 41.4942 4.12101C41.4942 4.05167 41.4899 3.99534 41.4812 3.95201C41.4812 3.90001 41.4769 3.84801 41.4682 3.79601H41.4162C41.3296 4.21201 41.1606 4.55001 40.9092 4.81001C40.6666 5.06134 40.3849 5.24767 40.0642 5.36901C39.7436 5.48167 39.4229 5.53801 39.1022 5.53801C38.5649 5.53801 38.0882 5.42967 37.6722 5.21301C37.2649 4.98767 36.9442 4.67567 36.7102 4.27701C36.4762 3.87834 36.3592 3.40601 36.3592 2.86001C36.3592 2.27934 36.4719 1.77667 36.6972 1.35201C36.9226 0.92734 37.2476 0.598007 37.6722 0.364007C38.0969 0.130007 38.6039 0.013007 39.1932 0.013007ZM39.1932 0.910007C38.5952 0.910007 38.1359 1.08767 37.8152 1.44301C37.4946 1.78967 37.3342 2.27067 37.3342 2.88601C37.3342 3.42334 37.5032 3.85234 37.8412 4.17301C38.1879 4.48501 38.6386 4.64101 39.1932 4.64101C39.5572 4.64101 39.8779 4.56301 40.1552 4.40701C40.4326 4.24234 40.6492 4.02134 40.8052 3.74401C40.9699 3.45801 41.0522 3.13301 41.0522 2.76901C41.0522 2.40501 40.9699 2.08434 40.8052 1.80701C40.6492 1.52101 40.4326 1.30001 40.1552 1.14401C39.8779 0.988007 39.5572 0.910007 39.1932 0.910007ZM47.1334 8.72301V7.95601C47.9394 7.32334 48.6197 6.76434 49.1744 6.27901C49.7377 5.79367 50.1884 5.35167 50.5264 4.95301C50.8644 4.55434 51.1114 4.17301 51.2674 3.80901C51.4234 3.44501 51.5014 3.06801 51.5014 2.67801C51.5014 2.14067 51.3367 1.70734 51.0074 1.37801C50.6867 1.04867 50.2534 0.884007 49.7074 0.884007C49.1267 0.884007 48.6587 1.08334 48.3034 1.48201C47.9567 1.87201 47.7574 2.40067 47.7054 3.06801L46.8864 2.57401C46.9557 2.07134 47.1074 1.62934 47.3414 1.24801C47.5841 0.858007 47.9047 0.554674 48.3034 0.338007C48.7107 0.12134 49.1874 0.013007 49.7334 0.013007C50.2967 0.013007 50.7821 0.125673 51.1894 0.351007C51.5967 0.57634 51.9131 0.88834 52.1384 1.28701C52.3637 1.68567 52.4764 2.14934 52.4764 2.67801C52.4764 3.22401 52.3421 3.76134 52.0734 4.29001C51.8134 4.81867 51.3887 5.37334 50.7994 5.95401C50.2101 6.52601 49.4301 7.16301 48.4594 7.86501V7.87801C48.5461 7.86934 48.6631 7.86501 48.8104 7.86501C48.9577 7.86501 49.1051 7.86501 49.2524 7.86501C49.4084 7.85634 49.5254 7.85201 49.6034 7.85201H52.6714V8.72301H47.1334ZM56.4361 8.85301C55.6995 8.85301 55.0538 8.67534 54.4991 8.32001C53.9445 7.95601 53.5675 7.46201 53.3681 6.83801L54.3041 6.35701C54.4428 6.84234 54.6855 7.23667 55.0321 7.54001C55.3788 7.83467 55.8685 7.98201 56.5011 7.98201C57.0645 7.98201 57.4978 7.82601 57.8011 7.51401C58.1131 7.20201 58.2691 6.79467 58.2691 6.29201C58.2691 5.96267 58.2085 5.69401 58.0871 5.48601C57.9658 5.26934 57.7795 5.10901 57.5281 5.00501C57.2855 4.89234 56.9735 4.83601 56.5921 4.83601C56.4968 4.83601 56.3928 4.84034 56.2801 4.84901C56.1675 4.84901 56.0548 4.85767 55.9421 4.87501V3.93901C56.0201 3.94767 56.0981 3.95201 56.1761 3.95201C56.2541 3.95201 56.3235 3.95201 56.3841 3.95201C56.9821 3.95201 57.4155 3.82201 57.6841 3.56201C57.9528 3.29334 58.0871 2.89034 58.0871 2.35301C58.0871 1.87634 57.9441 1.51234 57.6581 1.26101C57.3808 1.00967 56.9908 0.884007 56.4881 0.884007C55.9681 0.884007 55.5608 1.00967 55.2661 1.26101C54.9715 1.50367 54.7461 1.83734 54.5901 2.26201L53.7061 1.83301C53.8448 1.46901 54.0441 1.15267 54.3041 0.884007C54.5728 0.606673 54.8935 0.390007 55.2661 0.234006C55.6388 0.0780069 56.0548 7.15256e-06 56.5141 7.15256e-06C57.0775 7.15256e-06 57.5455 0.0996738 57.9181 0.299007C58.2995 0.498341 58.5811 0.767007 58.7631 1.10501C58.9538 1.44301 59.0491 1.82001 59.0491 2.23601C59.0491 2.53934 59.0058 2.81667 58.9191 3.06801C58.8411 3.31067 58.7285 3.52734 58.5811 3.71801C58.4425 3.90001 58.2778 4.04734 58.0871 4.16001C57.9051 4.26401 57.7101 4.33334 57.5021 4.36801V4.39401C57.7708 4.40267 58.0091 4.45901 58.2171 4.56301C58.4338 4.66701 58.6158 4.80567 58.7631 4.97901C58.9191 5.15234 59.0361 5.35167 59.1141 5.57701C59.2008 5.80234 59.2441 6.04067 59.2441 6.29201C59.2441 6.79467 59.1228 7.24101 58.8801 7.63101C58.6461 8.01234 58.3168 8.31134 57.8921 8.52801C57.4761 8.74467 56.9908 8.85301 56.4361 8.85301ZM60.3188 8.72301V7.95601C61.1248 7.32334 61.8051 6.76434 62.3598 6.27901C62.9231 5.79367 63.3738 5.35167 63.7118 4.95301C64.0498 4.55434 64.2968 4.17301 64.4528 3.80901C64.6088 3.44501 64.6868 3.06801 64.6868 2.67801C64.6868 2.14067 64.5221 1.70734 64.1928 1.37801C63.8721 1.04867 63.4388 0.884007 62.8928 0.884007C62.3121 0.884007 61.8441 1.08334 61.4888 1.48201C61.1421 1.87201 60.9428 2.40067 60.8908 3.06801L60.0718 2.57401C60.1411 2.07134 60.2928 1.62934 60.5268 1.24801C60.7694 0.858007 61.0901 0.554674 61.4888 0.338007C61.8961 0.12134 62.3728 0.013007 62.9188 0.013007C63.4821 0.013007 63.9674 0.125673 64.3748 0.351007C64.7821 0.57634 65.0984 0.88834 65.3238 1.28701C65.5491 1.68567 65.6618 2.14934 65.6618 2.67801C65.6618 3.22401 65.5274 3.76134 65.2588 4.29001C64.9988 4.81867 64.5741 5.37334 63.9848 5.95401C63.3954 6.52601 62.6154 7.16301 61.6448 7.86501V7.87801C61.7314 7.86934 61.8484 7.86501 61.9958 7.86501C62.1431 7.86501 62.2904 7.86501 62.4378 7.86501C62.5938 7.85634 62.7108 7.85201 62.7888 7.85201H65.8568V8.72301H60.3188ZM69.6728 0.143007H75.7178V1.01401C75.0331 1.76801 74.4698 2.55234 74.0278 3.36701C73.5944 4.17301 73.2738 5.02234 73.0658 5.91501C72.8578 6.79901 72.7494 7.73501 72.7408 8.72301H71.7788C71.7961 7.25834 72.0648 5.85001 72.5848 4.49801C73.1048 3.13734 73.8891 1.89801 74.9378 0.780007L75.0938 1.01401H69.6728V0.143007ZM79.0998 8.85301C78.3631 8.85301 77.7175 8.67534 77.1628 8.32001C76.6081 7.95601 76.2311 7.46201 76.0318 6.83801L76.9678 6.35701C77.1065 6.84234 77.3491 7.23667 77.6958 7.54001C78.0425 7.83467 78.5321 7.98201 79.1648 7.98201C79.7281 7.98201 80.1615 7.82601 80.4648 7.51401C80.7768 7.20201 80.9328 6.79467 80.9328 6.29201C80.9328 5.96267 80.8721 5.69401 80.7508 5.48601C80.6295 5.26934 80.4431 5.10901 80.1918 5.00501C79.9491 4.89234 79.6371 4.83601 79.2558 4.83601C79.1605 4.83601 79.0565 4.84034 78.9438 4.84901C78.8311 4.84901 78.7185 4.85767 78.6058 4.87501V3.93901C78.6838 3.94767 78.7618 3.95201 78.8398 3.95201C78.9178 3.95201 78.9871 3.95201 79.0478 3.95201C79.6458 3.95201 80.0791 3.82201 80.3478 3.56201C80.6165 3.29334 80.7508 2.89034 80.7508 2.35301C80.7508 1.87634 80.6078 1.51234 80.3218 1.26101C80.0445 1.00967 79.6545 0.884007 79.1518 0.884007C78.6318 0.884007 78.2245 1.00967 77.9298 1.26101C77.6351 1.50367 77.4098 1.83734 77.2538 2.26201L76.3698 1.83301C76.5085 1.46901 76.7078 1.15267 76.9678 0.884007C77.2365 0.606673 77.5571 0.390007 77.9298 0.234006C78.3025 0.0780069 78.7185 7.15256e-06 79.1778 7.15256e-06C79.7411 7.15256e-06 80.2091 0.0996738 80.5818 0.299007C80.9631 0.498341 81.2448 0.767007 81.4268 1.10501C81.6175 1.44301 81.7128 1.82001 81.7128 2.23601C81.7128 2.53934 81.6695 2.81667 81.5828 3.06801C81.5048 3.31067 81.3921 3.52734 81.2448 3.71801C81.1061 3.90001 80.9415 4.04734 80.7508 4.16001C80.5688 4.26401 80.3738 4.33334 80.1658 4.36801V4.39401C80.4345 4.40267 80.6728 4.45901 80.8808 4.56301C81.0975 4.66701 81.2795 4.80567 81.4268 4.97901C81.5828 5.15234 81.6998 5.35167 81.7778 5.57701C81.8645 5.80234 81.9078 6.04067 81.9078 6.29201C81.9078 6.79467 81.7865 7.24101 81.5438 7.63101C81.3098 8.01234 80.9805 8.31134 80.5558 8.52801C80.1398 8.74467 79.6545 8.85301 79.0998 8.85301ZM89.5992 0.0260068C90.3879 0.0260068 91.0162 0.22534 91.4842 0.624007C91.9609 1.02267 92.1992 1.56434 92.1992 2.24901C92.1992 2.69967 92.0909 3.09834 91.8742 3.44501C91.6576 3.78301 91.3542 4.03434 90.9642 4.19901V4.21201C91.4582 4.38534 91.8482 4.66267 92.1342 5.04401C92.4289 5.41667 92.5762 5.87601 92.5762 6.42201C92.5762 6.91601 92.4506 7.34501 92.1992 7.70901C91.9566 8.07301 91.6099 8.35467 91.1592 8.55401C90.7172 8.75334 90.1972 8.85301 89.5992 8.85301C89.0099 8.85301 88.4899 8.75334 88.0392 8.55401C87.5886 8.35467 87.2376 8.07301 86.9862 7.70901C86.7349 7.34501 86.6092 6.91601 86.6092 6.42201C86.6092 5.88467 86.7522 5.42534 87.0382 5.04401C87.3329 4.66267 87.7272 4.38534 88.2212 4.21201V4.19901C87.8399 4.04301 87.5366 3.79601 87.3112 3.45801C87.0946 3.11134 86.9862 2.70834 86.9862 2.24901C86.9862 1.78967 87.0946 1.39534 87.3112 1.06601C87.5279 0.736673 87.8312 0.481007 88.2212 0.299007C88.6112 0.117007 89.0706 0.0260068 89.5992 0.0260068ZM89.5992 0.897006C89.0966 0.897006 88.6936 1.02701 88.3902 1.28701C88.0956 1.53834 87.9482 1.88934 87.9482 2.34001C87.9482 2.79067 88.0999 3.14601 88.4032 3.40601C88.7066 3.65734 89.1052 3.78301 89.5992 3.78301C90.0846 3.78301 90.4789 3.65734 90.7822 3.40601C91.0942 3.14601 91.2502 2.79067 91.2502 2.34001C91.2502 1.88934 91.0986 1.53834 90.7952 1.28701C90.5006 1.02701 90.1019 0.897006 89.5992 0.897006ZM89.5992 7.98201C90.0066 7.98201 90.3576 7.91701 90.6522 7.78701C90.9556 7.64834 91.1896 7.45767 91.3542 7.21501C91.5189 6.96367 91.6012 6.66901 91.6012 6.33101C91.6012 5.98434 91.5146 5.68967 91.3412 5.44701C91.1766 5.19567 90.9426 5.00501 90.6392 4.87501C90.3446 4.73634 89.9979 4.66701 89.5992 4.66701C89.2006 4.66701 88.8496 4.73634 88.5462 4.87501C88.2429 5.00501 88.0046 5.19567 87.8312 5.44701C87.6666 5.68967 87.5842 5.98434 87.5842 6.33101C87.5842 6.66901 87.6666 6.96367 87.8312 7.21501C87.9959 7.45767 88.2299 7.64834 88.5332 7.78701C88.8366 7.91701 89.1919 7.98201 89.5992 7.98201ZM93.7049 8.72301V7.95601C94.5109 7.32334 95.1912 6.76434 95.7459 6.27901C96.3092 5.79367 96.7599 5.35167 97.0979 4.95301C97.4359 4.55434 97.6829 4.17301 97.8389 3.80901C97.9949 3.44501 98.0729 3.06801 98.0729 2.67801C98.0729 2.14067 97.9082 1.70734 97.5789 1.37801C97.2582 1.04867 96.8249 0.884007 96.2789 0.884007C95.6982 0.884007 95.2302 1.08334 94.8749 1.48201C94.5282 1.87201 94.3289 2.40067 94.2769 3.06801L93.4579 2.57401C93.5272 2.07134 93.6789 1.62934 93.9129 1.24801C94.1555 0.858007 94.4762 0.554674 94.8749 0.338007C95.2822 0.12134 95.7589 0.013007 96.3049 0.013007C96.8682 0.013007 97.3536 0.125673 97.7609 0.351007C98.1682 0.57634 98.4846 0.88834 98.7099 1.28701C98.9352 1.68567 99.0479 2.14934 99.0479 2.67801C99.0479 3.22401 98.9136 3.76134 98.6449 4.29001C98.3849 4.81867 97.9602 5.37334 97.3709 5.95401C96.7816 6.52601 96.0016 7.16301 95.0309 7.86501V7.87801C95.1176 7.86934 95.2346 7.86501 95.3819 7.86501C95.5292 7.86501 95.6766 7.86501 95.8239 7.86501C95.9799 7.85634 96.0969 7.85201 96.1749 7.85201H99.2429V8.72301H93.7049Z" fill="white"/>
</svg>
