<svg width="93" height="12" viewBox="0 0 93 12" fill="none" xmlns="http://www.w3.org/2000/svg">
<path d="M8.77502 10.95H7.62001L6.57001 8.115H2.19001L1.14001 10.95H1.46516e-05L3.75001 1.05H5.04001L8.77502 10.95ZM2.56501 7.095H6.19501L4.38001 2.1L2.56501 7.095ZM13.1554 11.1C12.5554 11.1 12.0054 10.945 11.5054 10.635C11.0154 10.325 10.6204 9.88 10.3204 9.3C10.0304 8.71 9.88537 8.01 9.88537 7.2C9.88537 6.37 10.0404 5.665 10.3504 5.085C10.6604 4.505 11.0704 4.065 11.5804 3.765C12.0904 3.455 12.6454 3.3 13.2454 3.3C13.8554 3.3 14.3854 3.47 14.8354 3.81C15.2854 4.14 15.5854 4.585 15.7354 5.145L15.6004 5.235V0H16.6804V10.95H15.7354L15.6304 9.06L15.7804 8.985C15.7104 9.435 15.5454 9.82 15.2854 10.14C15.0254 10.45 14.7104 10.69 14.3404 10.86C13.9704 11.02 13.5754 11.1 13.1554 11.1ZM13.2754 10.155C13.7354 10.155 14.1404 10.035 14.4904 9.795C14.8404 9.545 15.1104 9.19 15.3004 8.73C15.5004 8.27 15.6004 7.73 15.6004 7.11C15.6004 6.51 15.5004 6 15.3004 5.58C15.1104 5.15 14.8454 4.82 14.5054 4.59C14.1654 4.36 13.7754 4.245 13.3354 4.245C12.5954 4.245 12.0154 4.515 11.5954 5.055C11.1754 5.585 10.9654 6.3 10.9654 7.2C10.9654 8.1 11.1704 8.82 11.5804 9.36C11.9904 9.89 12.5554 10.155 13.2754 10.155ZM22.2081 11.1C21.6081 11.1 21.0581 10.945 20.5581 10.635C20.0681 10.325 19.6731 9.88 19.3731 9.3C19.0831 8.71 18.9381 8.01 18.9381 7.2C18.9381 6.37 19.0931 5.665 19.4031 5.085C19.7131 4.505 20.1231 4.065 20.6331 3.765C21.1431 3.455 21.6981 3.3 22.2981 3.3C22.9081 3.3 23.4381 3.47 23.8881 3.81C24.3381 4.14 24.6381 4.585 24.7881 5.145L24.6531 5.235V0H25.7331V10.95H24.7881L24.6831 9.06L24.8331 8.985C24.7631 9.435 24.5981 9.82 24.3381 10.14C24.0781 10.45 23.7631 10.69 23.3931 10.86C23.0231 11.02 22.6281 11.1 22.2081 11.1ZM22.3281 10.155C22.7881 10.155 23.1931 10.035 23.5431 9.795C23.8931 9.545 24.1631 9.19 24.3531 8.73C24.5531 8.27 24.6531 7.73 24.6531 7.11C24.6531 6.51 24.5531 6 24.3531 5.58C24.1631 5.15 23.8981 4.82 23.5581 4.59C23.2181 4.36 22.8281 4.245 22.3881 4.245C21.6481 4.245 21.0681 4.515 20.6481 5.055C20.2281 5.585 20.0181 6.3 20.0181 7.2C20.0181 8.1 20.2231 8.82 20.6331 9.36C21.0431 9.89 21.6081 10.155 22.3281 10.155ZM34.7476 1.335V8.895C34.7476 9.295 34.8476 9.595 35.0476 9.795C35.2476 9.995 35.5126 10.095 35.8426 10.095C36.1226 10.095 36.3576 10.045 36.5476 9.945C36.7476 9.845 36.9276 9.71 37.0876 9.54L37.4476 10.44C37.2276 10.65 36.9726 10.815 36.6826 10.935C36.3926 11.045 36.0626 11.1 35.6926 11.1C35.1326 11.1 34.6526 10.945 34.2526 10.635C33.8626 10.325 33.6676 9.81 33.6676 9.09V1.635L34.7476 1.335ZM37.3276 3.45V4.38H32.2576V3.45H37.3276ZM42.0024 3.3C42.6824 3.3 43.2824 3.455 43.8024 3.765C44.3224 4.075 44.7324 4.525 45.0324 5.115C45.3324 5.695 45.4824 6.39 45.4824 7.2C45.4824 8.01 45.3324 8.71 45.0324 9.3C44.7324 9.88 44.3224 10.325 43.8024 10.635C43.2824 10.945 42.6824 11.1 42.0024 11.1C41.3324 11.1 40.7324 10.945 40.2024 10.635C39.6824 10.325 39.2724 9.88 38.9724 9.3C38.6724 8.71 38.5224 8.01 38.5224 7.2C38.5224 6.39 38.6724 5.695 38.9724 5.115C39.2724 4.525 39.6824 4.075 40.2024 3.765C40.7324 3.455 41.3324 3.3 42.0024 3.3ZM42.0024 4.23C41.5124 4.23 41.0874 4.35 40.7274 4.59C40.3674 4.83 40.0874 5.17 39.8874 5.61C39.6974 6.05 39.6024 6.58 39.6024 7.2C39.6024 7.81 39.6974 8.34 39.8874 8.79C40.0874 9.23 40.3674 9.57 40.7274 9.81C41.0874 10.05 41.5124 10.17 42.0024 10.17C42.5024 10.17 42.9274 10.05 43.2774 9.81C43.6374 9.57 43.9124 9.23 44.1024 8.79C44.3024 8.34 44.4024 7.81 44.4024 7.2C44.4024 6.58 44.3024 6.05 44.1024 5.61C43.9124 5.17 43.6374 4.83 43.2774 4.59C42.9274 4.35 42.5024 4.23 42.0024 4.23ZM60.409 1.05V10.95H59.329V1.05H60.409ZM54.034 1.05V10.95H52.954V1.05H54.034ZM59.839 5.415V6.435H53.524V5.415H59.839ZM66.2309 3.3C66.9109 3.3 67.5109 3.455 68.0309 3.765C68.5509 4.075 68.9609 4.525 69.2609 5.115C69.5609 5.695 69.7109 6.39 69.7109 7.2C69.7109 8.01 69.5609 8.71 69.2609 9.3C68.9609 9.88 68.5509 10.325 68.0309 10.635C67.5109 10.945 66.9109 11.1 66.2309 11.1C65.5609 11.1 64.9609 10.945 64.4309 10.635C63.9109 10.325 63.5009 9.88 63.2009 9.3C62.9009 8.71 62.7509 8.01 62.7509 7.2C62.7509 6.39 62.9009 5.695 63.2009 5.115C63.5009 4.525 63.9109 4.075 64.4309 3.765C64.9609 3.455 65.5609 3.3 66.2309 3.3ZM66.2309 4.23C65.7409 4.23 65.3159 4.35 64.9559 4.59C64.5959 4.83 64.3159 5.17 64.1159 5.61C63.9259 6.05 63.8309 6.58 63.8309 7.2C63.8309 7.81 63.9259 8.34 64.1159 8.79C64.3159 9.23 64.5959 9.57 64.9559 9.81C65.3159 10.05 65.7409 10.17 66.2309 10.17C66.7309 10.17 67.1559 10.05 67.5059 9.81C67.8659 9.57 68.1409 9.23 68.3309 8.79C68.5309 8.34 68.6309 7.81 68.6309 7.2C68.6309 6.58 68.5309 6.05 68.3309 5.61C68.1409 5.17 67.8659 4.83 67.5059 4.59C67.1559 4.35 66.7309 4.23 66.2309 4.23ZM71.9477 10.95V3.45H72.8927L72.9677 4.725C73.2177 4.245 73.5627 3.89 74.0027 3.66C74.4427 3.42 74.9077 3.3 75.3977 3.3C75.9377 3.3 76.4377 3.43 76.8977 3.69C77.3577 3.94 77.6977 4.33 77.9177 4.86C78.0677 4.51 78.2827 4.22 78.5627 3.99C78.8527 3.76 79.1727 3.59 79.5227 3.48C79.8727 3.36 80.2127 3.3 80.5427 3.3C81.0227 3.3 81.4727 3.4 81.8927 3.6C82.3127 3.8 82.6527 4.11 82.9127 4.53C83.1827 4.95 83.3177 5.485 83.3177 6.135V10.95H82.2377V6.24C82.2377 5.54 82.0627 5.035 81.7127 4.725C81.3627 4.405 80.9327 4.245 80.4227 4.245C80.0227 4.245 79.6527 4.345 79.3127 4.545C78.9727 4.745 78.6977 5.035 78.4877 5.415C78.2777 5.795 78.1727 6.25 78.1727 6.78V10.95H77.0927V6.24C77.0927 5.54 76.9177 5.035 76.5677 4.725C76.2177 4.405 75.7877 4.245 75.2777 4.245C74.9377 4.245 74.5927 4.34 74.2427 4.53C73.8927 4.71 73.6027 4.995 73.3727 5.385C73.1427 5.775 73.0277 6.275 73.0277 6.885V10.95H71.9477ZM88.9656 11.1C88.2856 11.1 87.6806 10.945 87.1506 10.635C86.6306 10.325 86.2206 9.88 85.9206 9.3C85.6206 8.71 85.4706 8.01 85.4706 7.2C85.4706 6.39 85.6156 5.695 85.9056 5.115C86.2056 4.525 86.6106 4.075 87.1206 3.765C87.6406 3.455 88.2306 3.3 88.8906 3.3C89.5606 3.3 90.1306 3.45 90.6006 3.75C91.0706 4.05 91.4306 4.46 91.6806 4.98C91.9306 5.5 92.0556 6.09 92.0556 6.75C92.0556 6.91 92.0506 7.05 92.0406 7.17C92.0306 7.29 92.0206 7.395 92.0106 7.485H86.1756V6.525H91.5306L90.9756 6.645C90.9756 6.135 90.8856 5.705 90.7056 5.355C90.5356 4.995 90.2906 4.72 89.9706 4.53C89.6606 4.34 89.2956 4.245 88.8756 4.245C88.3956 4.245 87.9756 4.365 87.6156 4.605C87.2656 4.845 86.9956 5.185 86.8056 5.625C86.6156 6.065 86.5206 6.59 86.5206 7.2C86.5206 7.81 86.6206 8.335 86.8206 8.775C87.0206 9.215 87.3006 9.555 87.6606 9.795C88.0306 10.035 88.4606 10.155 88.9506 10.155C89.4706 10.155 89.9006 10.045 90.2406 9.825C90.5906 9.595 90.8656 9.295 91.0656 8.925L91.9206 9.42C91.7406 9.76 91.5056 10.06 91.2156 10.32C90.9356 10.57 90.6056 10.765 90.2256 10.905C89.8456 11.035 89.4256 11.1 88.9656 11.1Z" fill="white"/>
</svg>
