<svg width="80" height="11" viewBox="0 0 80 11" fill="none" xmlns="http://www.w3.org/2000/svg">
<path d="M-4.87342e-05 10.05V0.149999H3.88495C5.01495 0.149999 5.84495 0.389999 6.37495 0.869999C6.91495 1.34 7.18495 1.995 7.18495 2.835C7.18495 3.345 7.03995 3.81 6.74995 4.23C6.45995 4.65 6.01495 4.915 5.41495 5.025V5.04C6.05495 5.14 6.54995 5.405 6.89995 5.835C7.24995 6.265 7.42495 6.765 7.42495 7.335C7.42495 8.175 7.12995 8.84 6.53995 9.33C5.94995 9.81 5.09495 10.05 3.97495 10.05H-4.87342e-05ZM1.58995 8.745H3.94495C4.53495 8.745 4.97995 8.615 5.27995 8.355C5.57995 8.095 5.72995 7.725 5.72995 7.245C5.72995 6.755 5.57995 6.385 5.27995 6.135C4.97995 5.875 4.53495 5.745 3.94495 5.745H1.58995V8.745ZM1.58995 4.425H3.70495C4.30495 4.425 4.74995 4.305 5.03995 4.065C5.33995 3.815 5.48995 3.445 5.48995 2.955C5.48995 2.465 5.33995 2.1 5.03995 1.86C4.74995 1.61 4.30495 1.485 3.70495 1.485H1.58995V4.425ZM13.6879 -1.01328e-06C14.6279 -1.01328e-06 15.4379 0.204999 16.1179 0.614999C16.7979 1.025 17.3229 1.61 17.6929 2.37C18.0629 3.13 18.2479 4.04 18.2479 5.1C18.2479 6.15 18.0629 7.06 17.6929 7.83C17.3229 8.59 16.7979 9.175 16.1179 9.585C15.4379 9.995 14.6279 10.2 13.6879 10.2C12.7479 10.2 11.9379 9.995 11.2579 9.585C10.5779 9.175 10.0529 8.59 9.68292 7.83C9.31292 7.06 9.12792 6.15 9.12792 5.1C9.12792 4.04 9.31292 3.13 9.68292 2.37C10.0529 1.61 10.5779 1.025 11.2579 0.614999C11.9379 0.204999 12.7479 -1.01328e-06 13.6879 -1.01328e-06ZM13.6879 1.38C13.0879 1.38 12.5729 1.53 12.1429 1.83C11.7129 2.12 11.3829 2.54 11.1529 3.09C10.9229 3.64 10.8079 4.31 10.8079 5.1C10.8079 5.88 10.9229 6.55 11.1529 7.11C11.3829 7.66 11.7129 8.085 12.1429 8.385C12.5729 8.675 13.0879 8.82 13.6879 8.82C14.2879 8.82 14.7979 8.675 15.2179 8.385C15.6479 8.085 15.9779 7.66 16.2079 7.11C16.4479 6.55 16.5679 5.88 16.5679 5.1C16.5679 4.31 16.4479 3.64 16.2079 3.09C15.9779 2.54 15.6479 2.12 15.2179 1.83C14.7979 1.53 14.2879 1.38 13.6879 1.38ZM24.5717 -1.01328e-06C25.5117 -1.01328e-06 26.3217 0.204999 27.0017 0.614999C27.6817 1.025 28.2067 1.61 28.5767 2.37C28.9467 3.13 29.1317 4.04 29.1317 5.1C29.1317 6.15 28.9467 7.06 28.5767 7.83C28.2067 8.59 27.6817 9.175 27.0017 9.585C26.3217 9.995 25.5117 10.2 24.5717 10.2C23.6317 10.2 22.8217 9.995 22.1417 9.585C21.4617 9.175 20.9367 8.59 20.5667 7.83C20.1967 7.06 20.0117 6.15 20.0117 5.1C20.0117 4.04 20.1967 3.13 20.5667 2.37C20.9367 1.61 21.4617 1.025 22.1417 0.614999C22.8217 0.204999 23.6317 -1.01328e-06 24.5717 -1.01328e-06ZM24.5717 1.38C23.9717 1.38 23.4567 1.53 23.0267 1.83C22.5967 2.12 22.2667 2.54 22.0367 3.09C21.8067 3.64 21.6917 4.31 21.6917 5.1C21.6917 5.88 21.8067 6.55 22.0367 7.11C22.2667 7.66 22.5967 8.085 23.0267 8.385C23.4567 8.675 23.9717 8.82 24.5717 8.82C25.1717 8.82 25.6817 8.675 26.1017 8.385C26.5317 8.085 26.8617 7.66 27.0917 7.11C27.3317 6.55 27.4517 5.88 27.4517 5.1C27.4517 4.31 27.3317 3.64 27.0917 3.09C26.8617 2.54 26.5317 2.12 26.1017 1.83C25.6817 1.53 25.1717 1.38 24.5717 1.38ZM39.3105 0.149999L35.0355 4.965L34.8705 4.92L32.4405 7.68L32.2605 5.985L37.3605 0.149999H39.3105ZM33.0555 0.149999V10.05H31.4355V0.149999H33.0555ZM35.4255 3.675L39.4005 10.05H37.5105L34.1505 4.605L35.4255 3.675ZM53.6084 0.149999V10.05H51.7184L47.9834 3.705L47.1284 2.07H47.1134L47.1584 3.645V10.05H45.6884V0.149999H47.5634L51.2984 6.495L52.1684 8.13H52.1834L52.1234 6.555V0.149999H53.6084ZM60.475 -1.01328e-06C61.415 -1.01328e-06 62.225 0.204999 62.905 0.614999C63.585 1.025 64.11 1.61 64.48 2.37C64.85 3.13 65.035 4.04 65.035 5.1C65.035 6.15 64.85 7.06 64.48 7.83C64.11 8.59 63.585 9.175 62.905 9.585C62.225 9.995 61.415 10.2 60.475 10.2C59.535 10.2 58.725 9.995 58.045 9.585C57.365 9.175 56.84 8.59 56.47 7.83C56.1 7.06 55.915 6.15 55.915 5.1C55.915 4.04 56.1 3.13 56.47 2.37C56.84 1.61 57.365 1.025 58.045 0.614999C58.725 0.204999 59.535 -1.01328e-06 60.475 -1.01328e-06ZM60.475 1.38C59.875 1.38 59.36 1.53 58.93 1.83C58.5 2.12 58.17 2.54 57.94 3.09C57.71 3.64 57.595 4.31 57.595 5.1C57.595 5.88 57.71 6.55 57.94 7.11C58.17 7.66 58.5 8.085 58.93 8.385C59.36 8.675 59.875 8.82 60.475 8.82C61.075 8.82 61.585 8.675 62.005 8.385C62.435 8.085 62.765 7.66 62.995 7.11C63.235 6.55 63.355 5.88 63.355 5.1C63.355 4.31 63.235 3.64 62.995 3.09C62.765 2.54 62.435 2.12 62.005 1.83C61.585 1.53 61.075 1.38 60.475 1.38ZM69.0516 10.05L66.1716 0.149999H67.8966L70.0566 8.655L72.1716 0.149999H73.8066L75.9366 8.67L78.0816 0.149999H79.7316L76.8666 10.05H74.9916L73.4616 4.14L72.9816 1.845H72.9516L72.4716 4.14L70.9566 10.05H69.0516Z" fill="#6F4501"/>
</svg>
