<svg width="33" height="10" viewBox="0 0 33 10" fill="none" xmlns="http://www.w3.org/2000/svg">
<path d="M8.89599e-06 9.49V0.91H5.75901V1.781H0.936009V4.693H4.70601V5.577H0.936009V8.619H5.94101V9.49H8.89599e-06ZM7.77767 9.49V2.99H8.59667L8.66167 4.095C8.87833 3.679 9.17733 3.37133 9.55867 3.172C9.94 2.964 10.343 2.86 10.7677 2.86C11.2357 2.86 11.669 2.97267 12.0677 3.198C12.4663 3.41467 12.761 3.75267 12.9517 4.212C13.0817 3.90867 13.268 3.65733 13.5107 3.458C13.762 3.25867 14.0393 3.11133 14.3427 3.016C14.646 2.912 14.9407 2.86 15.2267 2.86C15.6427 2.86 16.0327 2.94667 16.3967 3.12C16.7607 3.29333 17.0553 3.562 17.2807 3.926C17.5147 4.29 17.6317 4.75367 17.6317 5.317V9.49H16.6957V5.408C16.6957 4.80133 16.544 4.36367 16.2407 4.095C15.9373 3.81767 15.5647 3.679 15.1227 3.679C14.776 3.679 14.4553 3.76567 14.1607 3.939C13.866 4.11233 13.6277 4.36367 13.4457 4.693C13.2637 5.02233 13.1727 5.41667 13.1727 5.876V9.49H12.2367V5.408C12.2367 4.80133 12.085 4.36367 11.7817 4.095C11.4783 3.81767 11.1057 3.679 10.6637 3.679C10.369 3.679 10.07 3.76133 9.76667 3.926C9.46333 4.082 9.212 4.329 9.01267 4.667C8.81333 5.005 8.71367 5.43833 8.71367 5.967V9.49H7.77767ZM23.6185 5.265C23.6185 4.771 23.4885 4.38533 23.2285 4.108C22.9685 3.822 22.6001 3.679 22.1235 3.679C21.6901 3.679 21.3218 3.783 21.0185 3.991C20.7151 4.19033 20.4898 4.511 20.3425 4.953L19.5755 4.485C19.7488 3.991 20.0565 3.59667 20.4985 3.302C20.9491 3.00733 21.4995 2.86 22.1495 2.86C22.6088 2.86 23.0161 2.94233 23.3715 3.107C23.7355 3.263 24.0215 3.50567 24.2295 3.835C24.4461 4.16433 24.5545 4.58033 24.5545 5.083V8.255C24.5545 8.61033 24.7191 8.788 25.0485 8.788C25.1178 8.788 25.1958 8.78367 25.2825 8.775C25.3691 8.75767 25.4428 8.736 25.5035 8.71L25.4515 9.451C25.3821 9.48567 25.2911 9.516 25.1785 9.542C25.0745 9.568 24.9531 9.581 24.8145 9.581C24.5891 9.581 24.3811 9.53767 24.1905 9.451C24.0085 9.35567 23.8611 9.21267 23.7485 9.022C23.6445 8.82267 23.5925 8.57567 23.5925 8.281V8.099L23.8265 8.125C23.7311 8.463 23.5621 8.74467 23.3195 8.97C23.0855 9.18667 22.8125 9.35133 22.5005 9.464C22.1971 9.568 21.8895 9.62 21.5775 9.62C21.0141 9.62 20.5331 9.477 20.1345 9.191C19.7358 8.89633 19.5365 8.45867 19.5365 7.878C19.5365 7.41 19.6838 7.02 19.9785 6.708C20.2818 6.38733 20.7238 6.16633 21.3045 6.045L23.7875 5.525V6.305L21.7465 6.747C21.3218 6.83367 21.0055 6.95933 20.7975 7.124C20.5895 7.28867 20.4855 7.52267 20.4855 7.826C20.4855 8.12067 20.5895 8.359 20.7975 8.541C21.0141 8.71433 21.3218 8.801 21.7205 8.801C21.9545 8.801 22.1841 8.77067 22.4095 8.71C22.6348 8.64067 22.8385 8.53667 23.0205 8.398C23.2025 8.25933 23.3455 8.086 23.4495 7.878C23.5621 7.66133 23.6185 7.40567 23.6185 7.111V5.265ZM27.7059 2.99V9.49H26.7699V2.99H27.7059ZM27.3029 1.742C27.0689 1.742 26.8782 1.67267 26.7309 1.534C26.5922 1.38667 26.5229 1.196 26.5229 0.962C26.5229 0.728 26.5922 0.541666 26.7309 0.402999C26.8782 0.255666 27.0689 0.182 27.3029 0.182C27.5369 0.182 27.7232 0.255666 27.8619 0.402999C28.0092 0.541666 28.0829 0.728 28.0829 0.962C28.0829 1.196 28.0092 1.38667 27.8619 1.534C27.7232 1.67267 27.5369 1.742 27.3029 1.742ZM30.98 0V7.865C30.98 8.177 31.0277 8.411 31.123 8.567C31.2184 8.723 31.4004 8.801 31.669 8.801C31.8164 8.801 31.9377 8.788 32.033 8.762C32.1284 8.736 32.254 8.68833 32.41 8.619L32.28 9.438C32.1674 9.49867 32.0287 9.542 31.864 9.568C31.708 9.60267 31.5564 9.62 31.409 9.62C30.889 9.62 30.5294 9.45967 30.33 9.139C30.1394 8.81833 30.044 8.40667 30.044 7.904V0H30.98Z" fill="white"/>
</svg>
