<svg width="28" height="11" viewBox="0 0 28 11" fill="none" xmlns="http://www.w3.org/2000/svg">
<path opacity="0.67" d="M1.96546e-05 10.05V0.149987H6.64502V1.15499H1.08002V4.51499H5.43002V5.53499H1.08002V9.04499H6.85502V10.05H1.96546e-05ZM16.6542 0.149987V10.05H15.3342L11.1042 3.11999L10.1892 1.40999H10.1742L10.2192 2.83499V10.05H9.19924V0.149987H10.5192L14.7342 7.06499L15.6642 8.80499H15.6792L15.6342 7.36499V0.149987H16.6542ZM23.6883 10.2C22.7883 10.2 22.0033 9.99499 21.3333 9.58499C20.6733 9.16499 20.1633 8.57499 19.8033 7.81499C19.4433 7.05499 19.2633 6.14999 19.2633 5.09999C19.2633 4.04999 19.4533 3.14499 19.8333 2.38499C20.2133 1.62499 20.7383 1.03999 21.4083 0.629987C22.0883 0.209988 22.8733 -1.24574e-05 23.7633 -1.24574e-05C24.7133 -1.24574e-05 25.4883 0.189987 26.0883 0.569987C26.6983 0.949987 27.1783 1.52999 27.5283 2.30999L26.5383 2.84999C26.3283 2.23999 25.9883 1.77999 25.5183 1.46999C25.0483 1.15999 24.4633 1.00499 23.7633 1.00499C23.1033 1.00499 22.5183 1.16999 22.0083 1.49999C21.5083 1.82999 21.1133 2.29999 20.8233 2.90999C20.5333 3.51999 20.3883 4.24999 20.3883 5.09999C20.3883 5.94999 20.5183 6.67999 20.7783 7.28999C21.0383 7.89999 21.4133 8.36999 21.9033 8.69999C22.4033 9.02999 23.0133 9.19499 23.7333 9.19499C24.1633 9.19499 24.5533 9.13499 24.9033 9.01499C25.2533 8.88499 25.5533 8.70499 25.8033 8.47499C26.0633 8.23499 26.2633 7.94999 26.4033 7.61999C26.5433 7.28999 26.6133 6.91999 26.6133 6.50999V6.10499H23.5383V5.09999H27.6033V10.05H26.7483L26.6883 8.12999L26.9133 8.15999C26.6633 8.79999 26.2683 9.29999 25.7283 9.65999C25.1883 10.02 24.5083 10.2 23.6883 10.2Z" fill="#FF5D29"/>
</svg>
