<svg width="41" height="13" viewBox="0 0 41 13" fill="none" xmlns="http://www.w3.org/2000/svg">
<path d="M3.83503 9.62C3.05503 9.62 2.3747 9.44233 1.79403 9.087C1.22203 8.723 0.780028 8.21166 0.468028 7.553C0.156028 6.89433 2.8342e-05 6.11 2.8342e-05 5.2C2.8342e-05 4.29 0.164695 3.50566 0.494028 2.847C0.823362 2.18833 1.27836 1.68133 1.85903 1.326C2.44836 0.961998 3.1287 0.779998 3.90003 0.779998C4.72336 0.779998 5.39503 0.944664 5.91503 1.274C6.4437 1.60333 6.8597 2.106 7.16303 2.782L6.30503 3.25C6.12303 2.72133 5.82836 2.32266 5.42103 2.054C5.0137 1.78533 4.5067 1.651 3.90003 1.651C3.32803 1.651 2.82103 1.794 2.37903 2.08C1.9457 2.366 1.60336 2.77333 1.35203 3.302C1.1007 3.83066 0.975028 4.46333 0.975028 5.2C0.975028 5.93666 1.0877 6.56933 1.31303 7.098C1.53836 7.62666 1.86336 8.034 2.28803 8.32C2.72136 8.606 3.25003 8.749 3.87403 8.749C4.2467 8.749 4.5847 8.697 4.88803 8.593C5.19136 8.48033 5.45136 8.32433 5.66803 8.125C5.89336 7.917 6.0667 7.67 6.18803 7.384C6.30936 7.098 6.37003 6.77733 6.37003 6.422V6.071H3.70503V5.2H7.22803V9.49H6.48703L6.43503 7.826L6.63003 7.852C6.41336 8.40666 6.07103 8.84 5.60303 9.152C5.13503 9.464 4.5457 9.62 3.83503 9.62ZM13.0936 5.265C13.0936 4.771 12.9636 4.38533 12.7036 4.108C12.4436 3.822 12.0752 3.679 11.5986 3.679C11.1652 3.679 10.7969 3.783 10.4936 3.991C10.1902 4.19033 9.9649 4.511 9.81757 4.953L9.05057 4.485C9.2239 3.991 9.53157 3.59666 9.97357 3.302C10.4242 3.00733 10.9746 2.86 11.6246 2.86C12.0839 2.86 12.4912 2.94233 12.8466 3.107C13.2106 3.263 13.4966 3.50566 13.7046 3.835C13.9212 4.16433 14.0296 4.58033 14.0296 5.083V8.255C14.0296 8.61033 14.1942 8.788 14.5236 8.788C14.5929 8.788 14.6709 8.78366 14.7576 8.775C14.8442 8.75766 14.9179 8.736 14.9786 8.71L14.9266 9.451C14.8572 9.48566 14.7662 9.516 14.6536 9.542C14.5496 9.568 14.4282 9.581 14.2896 9.581C14.0642 9.581 13.8562 9.53766 13.6656 9.451C13.4836 9.35566 13.3362 9.21266 13.2236 9.022C13.1196 8.82266 13.0676 8.57566 13.0676 8.281V8.099L13.3016 8.125C13.2062 8.463 13.0372 8.74466 12.7946 8.97C12.5606 9.18666 12.2876 9.35133 11.9756 9.464C11.6722 9.568 11.3646 9.62 11.0526 9.62C10.4892 9.62 10.0082 9.477 9.60957 9.191C9.2109 8.89633 9.01157 8.45866 9.01157 7.878C9.01157 7.41 9.1589 7.02 9.45357 6.708C9.7569 6.38733 10.1989 6.16633 10.7796 6.045L13.2626 5.525V6.305L11.2216 6.747C10.7969 6.83366 10.4806 6.95933 10.2726 7.124C10.0646 7.28866 9.96057 7.52266 9.96057 7.826C9.96057 8.12066 10.0646 8.359 10.2726 8.541C10.4892 8.71433 10.7969 8.801 11.1956 8.801C11.4296 8.801 11.6592 8.77066 11.8846 8.71C12.1099 8.64066 12.3136 8.53666 12.4956 8.398C12.6776 8.25933 12.8206 8.086 12.9246 7.878C13.0372 7.66133 13.0936 7.40566 13.0936 7.111V5.265ZM17.129 -2.38419e-06V7.865C17.129 8.177 17.1766 8.411 17.272 8.567C17.3673 8.723 17.5493 8.801 17.818 8.801C17.9653 8.801 18.0866 8.788 18.182 8.762C18.2773 8.736 18.403 8.68833 18.559 8.619L18.429 9.438C18.3163 9.49866 18.1776 9.542 18.013 9.568C17.857 9.60266 17.7053 9.62 17.558 9.62C17.038 9.62 16.6783 9.45966 16.479 9.139C16.2883 8.81833 16.193 8.40666 16.193 7.904V-2.38419e-06H17.129ZM20.7598 -2.38419e-06V7.865C20.7598 8.177 20.8075 8.411 20.9028 8.567C20.9981 8.723 21.1801 8.801 21.4488 8.801C21.5961 8.801 21.7175 8.788 21.8128 8.762C21.9081 8.736 22.0338 8.68833 22.1898 8.619L22.0598 9.438C21.9471 9.49866 21.8085 9.542 21.6438 9.568C21.4878 9.60266 21.3361 9.62 21.1888 9.62C20.6688 9.62 20.3091 9.45966 20.1098 9.139C19.9191 8.81833 19.8238 8.40666 19.8238 7.904V-2.38419e-06H20.7598ZM26.0807 9.62C25.4913 9.62 24.967 9.48566 24.5077 9.217C24.057 8.94833 23.7017 8.56266 23.4417 8.06C23.1817 7.54866 23.0517 6.942 23.0517 6.24C23.0517 5.538 23.1773 4.93566 23.4287 4.433C23.6887 3.92166 24.0397 3.53166 24.4817 3.263C24.9323 2.99433 25.4437 2.86 26.0157 2.86C26.5963 2.86 27.0903 2.99 27.4977 3.25C27.905 3.51 28.217 3.86533 28.4337 4.316C28.6503 4.76666 28.7587 5.278 28.7587 5.85C28.7587 5.98866 28.7543 6.11 28.7457 6.214C28.737 6.318 28.7283 6.409 28.7197 6.487H23.6627V5.655H28.3037L27.8227 5.759C27.8227 5.317 27.7447 4.94433 27.5887 4.641C27.4413 4.329 27.229 4.09066 26.9517 3.926C26.683 3.76133 26.3667 3.679 26.0027 3.679C25.5867 3.679 25.2227 3.783 24.9107 3.991C24.6073 4.199 24.3733 4.49366 24.2087 4.875C24.044 5.25633 23.9617 5.71133 23.9617 6.24C23.9617 6.76866 24.0483 7.22366 24.2217 7.605C24.395 7.98633 24.6377 8.281 24.9497 8.489C25.2703 8.697 25.643 8.801 26.0677 8.801C26.5183 8.801 26.891 8.70566 27.1857 8.515C27.489 8.31566 27.7273 8.05566 27.9007 7.735L28.6417 8.164C28.4857 8.45866 28.282 8.71866 28.0307 8.944C27.788 9.16066 27.502 9.32966 27.1727 9.451C26.8433 9.56366 26.4793 9.62 26.0807 9.62ZM30.7049 9.49V2.99H31.4849L31.6019 4.134C31.7579 3.72666 32.0006 3.41466 32.3299 3.198C32.6592 2.97266 33.0536 2.86 33.5129 2.86C33.6342 2.86 33.7556 2.873 33.8769 2.899C33.9982 2.91633 34.1022 2.95533 34.1889 3.016L34.0329 3.861C33.9462 3.81766 33.8466 3.78733 33.7339 3.77C33.6299 3.744 33.4826 3.731 33.2919 3.731C33.0319 3.731 32.7719 3.81766 32.5119 3.991C32.2606 4.15566 32.0526 4.40266 31.8879 4.732C31.7232 5.06133 31.6409 5.46433 31.6409 5.941V9.49H30.7049ZM40.7128 2.99L37.7878 10.608C37.6491 10.972 37.4931 11.2797 37.3198 11.531C37.1551 11.7823 36.9514 11.9687 36.7088 12.09C36.4748 12.22 36.1844 12.285 35.8378 12.285C35.5691 12.285 35.3178 12.2417 35.0838 12.155C34.8498 12.077 34.6461 11.9687 34.4728 11.83L34.7458 11.024C34.9018 11.18 35.0708 11.2927 35.2528 11.362C35.4434 11.4313 35.6254 11.466 35.7988 11.466C36.0328 11.466 36.2451 11.3923 36.4358 11.245C36.6264 11.0977 36.8041 10.8073 36.9688 10.374L37.3068 9.477L36.6698 7.917L34.7068 2.99H35.7598L37.3978 7.41L37.7488 8.489L38.1778 7.293L39.7118 2.99H40.7128Z" fill="white"/>
</svg>
