<svg width="96" height="13" viewBox="0 0 96 13" fill="none" xmlns="http://www.w3.org/2000/svg">
<path d="M6.35701 0.910005L2.79501 4.70601L2.65201 4.84901L0.481009 7.17601L0.468009 5.91501L5.13501 0.910005H6.35701ZM0.936009 0.910005V9.49001H8.89599e-06V0.910005H0.936009ZM2.89901 4.09501L6.40901 9.49001H5.27801L2.13201 4.64101L2.89901 4.09501ZM11.0628 5.26501C11.0628 4.77101 10.9328 4.38534 10.6728 4.10801C10.4128 3.82201 10.0445 3.67901 9.56781 3.67901C9.13447 3.67901 8.76614 3.78301 8.46281 3.99101C8.15947 4.19034 7.93414 4.51101 7.78681 4.95301L7.01981 4.48501C7.19314 3.99101 7.50081 3.59667 7.94281 3.30201C8.39347 3.00734 8.94381 2.86 9.59381 2.86C10.0531 2.86 10.4605 2.94234 10.8158 3.10701C11.1798 3.26301 11.4658 3.50567 11.6738 3.83501C11.8905 4.16434 11.9988 4.58034 11.9988 5.08301V8.25501C11.9988 8.61034 12.1635 8.78801 12.4928 8.78801C12.5621 8.78801 12.6401 8.78367 12.7268 8.77501C12.8135 8.75767 12.8871 8.73601 12.9478 8.71001L12.8958 9.45101C12.8265 9.48567 12.7355 9.51601 12.6228 9.54201C12.5188 9.56801 12.3975 9.58101 12.2588 9.58101C12.0335 9.58101 11.8255 9.53767 11.6348 9.45101C11.4528 9.35567 11.3055 9.21267 11.1928 9.02201C11.0888 8.82267 11.0368 8.57567 11.0368 8.28101V8.09901L11.2708 8.12501C11.1755 8.46301 11.0065 8.74467 10.7638 8.97001C10.5298 9.18667 10.2568 9.35134 9.94481 9.46401C9.64147 9.56801 9.33381 9.62001 9.02181 9.62001C8.45847 9.62001 7.97747 9.47701 7.57881 9.19101C7.18014 8.89634 6.98081 8.45867 6.98081 7.87801C6.98081 7.41001 7.12814 7.02001 7.42281 6.70801C7.72614 6.38734 8.16814 6.16634 8.74881 6.04501L11.2318 5.52501V6.30501L9.19081 6.74701C8.76614 6.83367 8.44981 6.95934 8.24181 7.12401C8.03381 7.28867 7.92981 7.52267 7.92981 7.82601C7.92981 8.12067 8.03381 8.35901 8.24181 8.54101C8.45847 8.71434 8.76614 8.80101 9.16481 8.80101C9.39881 8.80101 9.62847 8.77067 9.85381 8.71001C10.0791 8.64067 10.2828 8.53667 10.4648 8.39801C10.6468 8.25934 10.7898 8.08601 10.8938 7.87801C11.0065 7.66134 11.0628 7.40567 11.0628 7.11101V5.26501ZM15.0982 5.24521e-06V7.86501C15.0982 8.17701 15.1459 8.41101 15.2412 8.56701C15.3365 8.72301 15.5185 8.80101 15.7872 8.80101C15.9345 8.80101 16.0559 8.78801 16.1512 8.76201C16.2465 8.73601 16.3722 8.68834 16.5282 8.61901L16.3982 9.43801C16.2855 9.49867 16.1469 9.54201 15.9822 9.56801C15.8262 9.60267 15.6745 9.62001 15.5272 9.62001C15.0072 9.62001 14.6475 9.45967 14.4482 9.13901C14.2575 8.81834 14.1622 8.40667 14.1622 7.90401V5.24521e-06H15.0982ZM21.6991 2.99001H22.6871L20.1001 9.49001H19.1511L16.5641 2.99001H17.6301L19.6451 8.54101L21.6991 2.99001ZM27.7191 5.26501C27.7191 4.77101 27.5891 4.38534 27.3291 4.10801C27.0691 3.82201 26.7007 3.67901 26.2241 3.67901C25.7907 3.67901 25.4224 3.78301 25.1191 3.99101C24.8157 4.19034 24.5904 4.51101 24.4431 4.95301L23.6761 4.48501C23.8494 3.99101 24.1571 3.59667 24.5991 3.30201C25.0497 3.00734 25.6001 2.86 26.2501 2.86C26.7094 2.86 27.1167 2.94234 27.4721 3.10701C27.8361 3.26301 28.1221 3.50567 28.3301 3.83501C28.5467 4.16434 28.6551 4.58034 28.6551 5.08301V8.25501C28.6551 8.61034 28.8197 8.78801 29.1491 8.78801C29.2184 8.78801 29.2964 8.78367 29.3831 8.77501C29.4697 8.75767 29.5434 8.73601 29.6041 8.71001L29.5521 9.45101C29.4827 9.48567 29.3917 9.51601 29.2791 9.54201C29.1751 9.56801 29.0537 9.58101 28.9151 9.58101C28.6897 9.58101 28.4817 9.53767 28.2911 9.45101C28.1091 9.35567 27.9617 9.21267 27.8491 9.02201C27.7451 8.82267 27.6931 8.57567 27.6931 8.28101V8.09901L27.9271 8.12501C27.8317 8.46301 27.6627 8.74467 27.4201 8.97001C27.1861 9.18667 26.9131 9.35134 26.6011 9.46401C26.2977 9.56801 25.9901 9.62001 25.6781 9.62001C25.1147 9.62001 24.6337 9.47701 24.2351 9.19101C23.8364 8.89634 23.6371 8.45867 23.6371 7.87801C23.6371 7.41001 23.7844 7.02001 24.0791 6.70801C24.3824 6.38734 24.8244 6.16634 25.4051 6.04501L27.8881 5.52501V6.30501L25.8471 6.74701C25.4224 6.83367 25.1061 6.95934 24.8981 7.12401C24.6901 7.28867 24.5861 7.52267 24.5861 7.82601C24.5861 8.12067 24.6901 8.35901 24.8981 8.54101C25.1147 8.71434 25.4224 8.80101 25.8211 8.80101C26.0551 8.80101 26.2847 8.77067 26.5101 8.71001C26.7354 8.64067 26.9391 8.53667 27.1211 8.39801C27.3031 8.25934 27.4461 8.08601 27.5501 7.87801C27.6627 7.66134 27.7191 7.40567 27.7191 7.11101V5.26501ZM30.8704 9.49001V2.99001H31.6504L31.7674 4.13401C31.9234 3.72667 32.1661 3.41467 32.4954 3.19801C32.8248 2.97267 33.2191 2.86 33.6784 2.86C33.7998 2.86 33.9211 2.873 34.0424 2.89901C34.1638 2.91634 34.2678 2.95534 34.3544 3.01601L34.1984 3.86101C34.1118 3.81767 34.0121 3.78734 33.8994 3.77001C33.7954 3.74401 33.6481 3.73101 33.4574 3.73101C33.1974 3.73101 32.9374 3.81767 32.6774 3.99101C32.4261 4.15567 32.2181 4.40267 32.0534 4.73201C31.8888 5.06134 31.8064 5.46434 31.8064 5.94101V9.49001H30.8704ZM36.7703 2.99001V9.49001H35.8343V2.99001H36.7703ZM36.3673 1.74201C36.1333 1.74201 35.9426 1.67267 35.7953 1.534C35.6566 1.38667 35.5873 1.19601 35.5873 0.962005C35.5873 0.728005 35.6566 0.541672 35.7953 0.403005C35.9426 0.255672 36.1333 0.182005 36.3673 0.182005C36.6013 0.182005 36.7876 0.255672 36.9263 0.403005C37.0736 0.541672 37.1473 0.728005 37.1473 0.962005C37.1473 1.19601 37.0736 1.38667 36.9263 1.534C36.7876 1.67267 36.6013 1.74201 36.3673 1.74201ZM44.2045 2.99001L41.2795 10.608C41.1408 10.972 40.9848 11.2797 40.8115 11.531C40.6468 11.7823 40.4431 11.9687 40.2005 12.09C39.9665 12.22 39.6761 12.285 39.3295 12.285C39.0608 12.285 38.8095 12.2417 38.5755 12.155C38.3415 12.077 38.1378 11.9687 37.9645 11.83L38.2375 11.024C38.3935 11.18 38.5625 11.2927 38.7445 11.362C38.9351 11.4313 39.1171 11.466 39.2905 11.466C39.5245 11.466 39.7368 11.3923 39.9275 11.245C40.1181 11.0977 40.2958 10.8073 40.4605 10.374L40.7985 9.47701L40.1615 7.91701L38.1985 2.99001H39.2515L40.8895 7.41001L41.2405 8.48901L41.6695 7.29301L43.2035 2.99001H44.2045ZM47.5903 9.62001C46.9836 9.62001 46.4289 9.48567 45.9263 9.21701C45.4236 8.94834 45.0423 8.56701 44.7823 8.07301L45.5623 7.50101C45.7356 7.91701 45.9999 8.23767 46.3553 8.46301C46.7193 8.68834 47.1526 8.80101 47.6553 8.80101C48.1059 8.80101 48.4613 8.70567 48.7213 8.51501C48.9899 8.32434 49.1243 8.07301 49.1243 7.76101C49.1243 7.56167 49.0636 7.38401 48.9423 7.22801C48.8209 7.06334 48.5913 6.94201 48.2533 6.86401L46.7973 6.53901C46.1906 6.40034 45.7573 6.18367 45.4973 5.88901C45.2373 5.59434 45.1073 5.22601 45.1073 4.78401C45.1073 4.43734 45.2026 4.12101 45.3933 3.83501C45.5926 3.54034 45.8743 3.30634 46.2383 3.13301C46.6023 2.951 47.0269 2.86 47.5123 2.86C48.1189 2.86 48.6303 2.99 49.0463 3.25001C49.4709 3.50134 49.7829 3.86101 49.9823 4.32901L49.2153 4.83601C49.0766 4.42867 48.8469 4.13401 48.5263 3.95201C48.2056 3.77001 47.8676 3.67901 47.5123 3.67901C47.2089 3.67901 46.9446 3.72667 46.7193 3.82201C46.4939 3.90867 46.3206 4.03434 46.1993 4.19901C46.0866 4.35501 46.0303 4.53701 46.0303 4.74501C46.0303 4.94434 46.0953 5.13067 46.2253 5.30401C46.3639 5.47734 46.6109 5.60301 46.9663 5.68101L48.4873 6.01901C49.0679 6.14901 49.4753 6.34834 49.7093 6.61701C49.9433 6.88567 50.0603 7.22367 50.0603 7.63101C50.0603 8.23767 49.8306 8.72301 49.3713 9.08701C48.9206 9.44234 48.3269 9.62001 47.5903 9.62001ZM57.3524 2.99001L54.6614 5.78501L54.4404 6.00601L52.4514 8.08601V6.91601L56.1694 2.99001H57.3524ZM52.8934 5.24521e-06V9.49001H51.9574V5.24521e-06H52.8934ZM54.7394 5.30401L57.4824 9.49001H56.3514L53.9724 5.83701L54.7394 5.30401ZM62.39 5.26501C62.39 4.77101 62.26 4.38534 62 4.10801C61.74 3.82201 61.3716 3.67901 60.895 3.67901C60.4616 3.67901 60.0933 3.78301 59.79 3.99101C59.4866 4.19034 59.2613 4.51101 59.114 4.95301L58.347 4.48501C58.5203 3.99101 58.828 3.59667 59.27 3.30201C59.7206 3.00734 60.271 2.86 60.921 2.86C61.3803 2.86 61.7876 2.94234 62.143 3.10701C62.507 3.26301 62.793 3.50567 63.001 3.83501C63.2176 4.16434 63.326 4.58034 63.326 5.08301V8.25501C63.326 8.61034 63.4906 8.78801 63.82 8.78801C63.8893 8.78801 63.9673 8.78367 64.054 8.77501C64.1406 8.75767 64.2143 8.73601 64.275 8.71001L64.223 9.45101C64.1536 9.48567 64.0626 9.51601 63.95 9.54201C63.846 9.56801 63.7246 9.58101 63.586 9.58101C63.3606 9.58101 63.1526 9.53767 62.962 9.45101C62.78 9.35567 62.6326 9.21267 62.52 9.02201C62.416 8.82267 62.364 8.57567 62.364 8.28101V8.09901L62.598 8.12501C62.5026 8.46301 62.3336 8.74467 62.091 8.97001C61.857 9.18667 61.584 9.35134 61.272 9.46401C60.9686 9.56801 60.661 9.62001 60.349 9.62001C59.7856 9.62001 59.3046 9.47701 58.906 9.19101C58.5073 8.89634 58.308 8.45867 58.308 7.87801C58.308 7.41001 58.4553 7.02001 58.75 6.70801C59.0533 6.38734 59.4953 6.16634 60.076 6.04501L62.559 5.52501V6.30501L60.518 6.74701C60.0933 6.83367 59.777 6.95934 59.569 7.12401C59.361 7.28867 59.257 7.52267 59.257 7.82601C59.257 8.12067 59.361 8.35901 59.569 8.54101C59.7856 8.71434 60.0933 8.80101 60.492 8.80101C60.726 8.80101 60.9556 8.77067 61.181 8.71001C61.4063 8.64067 61.61 8.53667 61.792 8.39801C61.974 8.25934 62.117 8.08601 62.221 7.87801C62.3336 7.66134 62.39 7.40567 62.39 7.11101V5.26501ZM70.5853 2.99001L67.6603 10.608C67.5217 10.972 67.3657 11.2797 67.1923 11.531C67.0277 11.7823 66.824 11.9687 66.5813 12.09C66.3473 12.22 66.057 12.285 65.7103 12.285C65.4417 12.285 65.1903 12.2417 64.9563 12.155C64.7223 12.077 64.5187 11.9687 64.3453 11.83L64.6183 11.024C64.7743 11.18 64.9433 11.2927 65.1253 11.362C65.316 11.4313 65.498 11.466 65.6713 11.466C65.9053 11.466 66.1177 11.3923 66.3083 11.245C66.499 11.0977 66.6767 10.8073 66.8413 10.374L67.1793 9.47701L66.5423 7.91701L64.5793 2.99001H65.6323L67.2703 7.41001L67.6213 8.48901L68.0503 7.29301L69.5843 2.99001H70.5853ZM75.6312 5.26501C75.6312 4.77101 75.5012 4.38534 75.2412 4.10801C74.9812 3.82201 74.6128 3.67901 74.1362 3.67901C73.7028 3.67901 73.3345 3.78301 73.0312 3.99101C72.7278 4.19034 72.5025 4.51101 72.3552 4.95301L71.5882 4.48501C71.7615 3.99101 72.0692 3.59667 72.5112 3.30201C72.9618 3.00734 73.5122 2.86 74.1622 2.86C74.6215 2.86 75.0288 2.94234 75.3842 3.10701C75.7482 3.26301 76.0342 3.50567 76.2422 3.83501C76.4588 4.16434 76.5672 4.58034 76.5672 5.08301V8.25501C76.5672 8.61034 76.7318 8.78801 77.0612 8.78801C77.1305 8.78801 77.2085 8.78367 77.2952 8.77501C77.3818 8.75767 77.4555 8.73601 77.5162 8.71001L77.4642 9.45101C77.3948 9.48567 77.3038 9.51601 77.1912 9.54201C77.0872 9.56801 76.9658 9.58101 76.8272 9.58101C76.6018 9.58101 76.3938 9.53767 76.2032 9.45101C76.0212 9.35567 75.8738 9.21267 75.7612 9.02201C75.6572 8.82267 75.6052 8.57567 75.6052 8.28101V8.09901L75.8392 8.12501C75.7438 8.46301 75.5748 8.74467 75.3322 8.97001C75.0982 9.18667 74.8252 9.35134 74.5132 9.46401C74.2098 9.56801 73.9022 9.62001 73.5902 9.62001C73.0268 9.62001 72.5458 9.47701 72.1472 9.19101C71.7485 8.89634 71.5492 8.45867 71.5492 7.87801C71.5492 7.41001 71.6965 7.02001 71.9912 6.70801C72.2945 6.38734 72.7365 6.16634 73.3172 6.04501L75.8002 5.52501V6.30501L73.7592 6.74701C73.3345 6.83367 73.0182 6.95934 72.8102 7.12401C72.6022 7.28867 72.4982 7.52267 72.4982 7.82601C72.4982 8.12067 72.6022 8.35901 72.8102 8.54101C73.0268 8.71434 73.3345 8.80101 73.7332 8.80101C73.9672 8.80101 74.1968 8.77067 74.4222 8.71001C74.6475 8.64067 74.8512 8.53667 75.0332 8.39801C75.2152 8.25934 75.3582 8.08601 75.4622 7.87801C75.5748 7.66134 75.6312 7.40567 75.6312 7.11101V5.26501ZM86.5433 9.49001V7.18901H82.4873V6.50001C82.496 6.50001 82.5003 6.50001 82.5003 6.50001C82.509 6.50001 82.5133 6.50001 82.5133 6.50001L86.2833 0.910005H87.4663V6.38301H88.9613V7.18901H87.4663V9.49001H86.5433ZM83.4753 6.38301H86.5433V2.977C86.5433 2.84701 86.5433 2.72134 86.5433 2.60001C86.552 2.47867 86.5563 2.34434 86.5563 2.197C86.565 2.04967 86.5737 1.87634 86.5823 1.67701H86.5563C86.4957 1.79834 86.4177 1.94134 86.3223 2.10601C86.2357 2.27067 86.1403 2.43534 86.0363 2.60001C85.941 2.75601 85.85 2.89901 85.7633 3.02901L83.4753 6.38301ZM90.4558 9.49001V8.72301C91.2618 8.09034 91.9422 7.53134 92.4968 7.04601C93.0602 6.56067 93.5108 6.11867 93.8488 5.72001C94.1868 5.32134 94.4338 4.94001 94.5898 4.57601C94.7458 4.21201 94.8238 3.83501 94.8238 3.44501C94.8238 2.90767 94.6592 2.47434 94.3298 2.14501C94.0092 1.81567 93.5758 1.651 93.0298 1.651C92.4492 1.651 91.9812 1.85034 91.6258 2.249C91.2792 2.63901 91.0798 3.16767 91.0278 3.83501L90.2088 3.34101C90.2782 2.83834 90.4298 2.39634 90.6638 2.015C90.9065 1.62501 91.2272 1.32167 91.6258 1.105C92.0332 0.888339 92.5098 0.780005 93.0558 0.780005C93.6192 0.780005 94.1045 0.892672 94.5118 1.118C94.9192 1.34334 95.2355 1.65534 95.4608 2.05401C95.6862 2.45267 95.7988 2.91634 95.7988 3.44501C95.7988 3.99101 95.6645 4.52834 95.3958 5.05701C95.1358 5.58567 94.7112 6.14034 94.1218 6.72101C93.5325 7.29301 92.7525 7.93001 91.7818 8.63201V8.64501C91.8685 8.63634 91.9855 8.63201 92.1328 8.63201C92.2802 8.63201 92.4275 8.63201 92.5748 8.63201C92.7308 8.62334 92.8478 8.61901 92.9258 8.61901H95.9938V9.49001H90.4558Z" fill="white"/>
</svg>
