<svg width="17" height="11" viewBox="0 0 17 11" fill="none" xmlns="http://www.w3.org/2000/svg">
<path opacity="0.67" d="M3.61502 -6.49691e-06C4.57502 -6.49691e-06 5.34502 0.254993 5.92502 0.764993C6.51502 1.27499 6.81002 1.97499 6.81002 2.86499C6.81002 3.45499 6.67502 3.94999 6.40502 4.34999C6.13502 4.73999 5.75502 5.04499 5.26502 5.26499C4.78502 5.48499 4.23002 5.63999 3.60002 5.72999L3.49502 5.74499H1.08002V9.89999H1.96546e-05V-6.49691e-06H3.61502ZM3.58502 4.72499C4.27502 4.72499 4.79502 4.56999 5.14502 4.25999C5.49502 3.93999 5.67002 3.47499 5.67002 2.86499C5.67002 2.24499 5.49502 1.77999 5.14502 1.46999C4.79502 1.15999 4.27502 1.00499 3.58502 1.00499H1.08002V4.72499H3.58502ZM4.24502 4.93499L7.35002 9.89999H6.07502L3.34502 5.53499L4.24502 4.93499ZM16.8547 -6.49691e-06V6.22499C16.8547 7.49499 16.5297 8.44999 15.8797 9.08999C15.2397 9.72999 14.3197 10.05 13.1197 10.05C11.9397 10.05 11.0247 9.72999 10.3747 9.08999C9.72475 8.44999 9.39975 7.49499 9.39975 6.22499V-6.49691e-06H10.4797V5.96999C10.4797 6.90999 10.6747 7.65999 11.0647 8.21999C11.4547 8.76999 12.1397 9.04499 13.1197 9.04499C14.0997 9.04499 14.7847 8.76999 15.1747 8.21999C15.5747 7.65999 15.7747 6.90999 15.7747 5.96999V-6.49691e-06H16.8547Z" fill="#FF5D29"/>
</svg>
