<svg width="47" height="11" viewBox="0 0 47 11" fill="none" xmlns="http://www.w3.org/2000/svg">
<path d="M3.97498 -1.01328e-06C4.82498 -1.01328e-06 5.54998 0.179999 6.14998 0.539999C6.75998 0.889999 7.25998 1.42 7.64998 2.13L6.76498 2.82C6.43498 2.17 6.03498 1.705 5.56498 1.425C5.09498 1.145 4.52998 1.005 3.86998 1.005C3.34998 1.005 2.91998 1.085 2.57998 1.245C2.23998 1.395 1.98498 1.605 1.81498 1.875C1.64498 2.135 1.55998 2.43 1.55998 2.76C1.55998 3.14 1.67498 3.47 1.90498 3.75C2.13498 4.02 2.58498 4.235 3.25498 4.395L5.26498 4.86C6.17498 5.07 6.81498 5.385 7.18498 5.805C7.55498 6.215 7.73998 6.735 7.73998 7.365C7.73998 7.925 7.58498 8.42 7.27498 8.85C6.97498 9.27 6.54998 9.6 5.99998 9.84C5.45998 10.08 4.82498 10.2 4.09498 10.2C3.40498 10.2 2.78998 10.105 2.24998 9.915C1.71998 9.715 1.26998 9.445 0.899981 9.105C0.529981 8.765 0.22998 8.38 -1.95093e-05 7.95L0.914981 7.185C1.09498 7.585 1.32998 7.94 1.61998 8.25C1.91998 8.55 2.27998 8.785 2.69998 8.955C3.12998 9.115 3.60998 9.195 4.13998 9.195C4.63998 9.195 5.07498 9.13 5.44498 9C5.81498 8.86 6.09998 8.66 6.29998 8.4C6.50998 8.14 6.61498 7.825 6.61498 7.455C6.61498 7.105 6.49998 6.8 6.26998 6.54C6.04998 6.28 5.64498 6.08 5.05498 5.94L2.89498 5.43C2.30498 5.29 1.82498 5.1 1.45498 4.86C1.09498 4.61 0.834981 4.32 0.674981 3.99C0.514981 3.66 0.434981 3.3 0.434981 2.91C0.434981 2.38 0.574981 1.895 0.85498 1.455C1.14498 1.015 1.55498 0.664999 2.08498 0.404999C2.61498 0.134999 3.24498 -1.01328e-06 3.97498 -1.01328e-06ZM17.6728 0.149999V10.05H16.5928V0.149999H17.6728ZM11.2978 0.149999V10.05H10.2178V0.149999H11.2978ZM17.1028 4.515V5.535H10.7878V4.515H17.1028ZM28.4119 10.05H27.2569L26.2069 7.215H21.8269L20.7769 10.05H19.6369L23.3869 0.149999H24.6769L28.4119 10.05ZM22.2019 6.195H25.8319L24.0169 1.2L22.2019 6.195ZM33.989 0.149999C34.949 0.149999 35.719 0.404999 36.299 0.914999C36.889 1.425 37.184 2.125 37.184 3.015C37.184 3.605 37.049 4.1 36.779 4.5C36.509 4.89 36.129 5.195 35.639 5.415C35.159 5.635 34.604 5.79 33.974 5.88L33.869 5.895H31.454V10.05H30.374V0.149999H33.989ZM33.959 4.875C34.649 4.875 35.169 4.72 35.519 4.41C35.869 4.09 36.044 3.625 36.044 3.015C36.044 2.395 35.869 1.93 35.519 1.62C35.169 1.31 34.649 1.155 33.959 1.155H31.454V4.875H33.959ZM34.619 5.085L37.724 10.05H36.449L33.719 5.685L34.619 5.085ZM39.9688 10.05V0.149999H46.6138V1.155H41.0488V4.515H45.3988V5.535H41.0488V9.045H46.8238V10.05H39.9688Z" fill="white"/>
</svg>
