<svg width="63" height="14" viewBox="0 0 63 14" fill="none" xmlns="http://www.w3.org/2000/svg">
<path d="M3.97498 0.899997C4.82498 0.899997 5.54998 1.08 6.14998 1.44C6.75998 1.79 7.25998 2.32 7.64998 3.03L6.76498 3.72C6.43498 3.07 6.03498 2.605 5.56498 2.325C5.09498 2.045 4.52998 1.905 3.86998 1.905C3.34998 1.905 2.91998 1.985 2.57998 2.145C2.23998 2.295 1.98498 2.505 1.81498 2.775C1.64498 3.035 1.55998 3.33 1.55998 3.66C1.55998 4.04 1.67498 4.37 1.90498 4.65C2.13498 4.92 2.58498 5.135 3.25498 5.295L5.26498 5.76C6.17498 5.97 6.81498 6.285 7.18498 6.705C7.55498 7.115 7.73998 7.635 7.73998 8.265C7.73998 8.825 7.58498 9.32 7.27498 9.75C6.97498 10.17 6.54998 10.5 5.99998 10.74C5.45998 10.98 4.82498 11.1 4.09498 11.1C3.40498 11.1 2.78998 11.005 2.24998 10.815C1.71998 10.615 1.26998 10.345 0.899981 10.005C0.529981 9.665 0.22998 9.28 -1.95093e-05 8.85L0.914981 8.085C1.09498 8.485 1.32998 8.84 1.61998 9.15C1.91998 9.45 2.27998 9.685 2.69998 9.855C3.12998 10.015 3.60998 10.095 4.13998 10.095C4.63998 10.095 5.07498 10.03 5.44498 9.9C5.81498 9.76 6.09998 9.56 6.29998 9.3C6.50998 9.04 6.61498 8.725 6.61498 8.355C6.61498 8.005 6.49998 7.7 6.26998 7.44C6.04998 7.18 5.64498 6.98 5.05498 6.84L2.89498 6.33C2.30498 6.19 1.82498 6 1.45498 5.76C1.09498 5.51 0.834981 5.22 0.674981 4.89C0.514981 4.56 0.434981 4.2 0.434981 3.81C0.434981 3.28 0.574981 2.795 0.85498 2.355C1.14498 1.915 1.55498 1.565 2.08498 1.305C2.61498 1.035 3.24498 0.899997 3.97498 0.899997ZM9.99279 10.95V-3.33786e-06H11.0728V4.68C11.3128 4.21 11.6428 3.865 12.0628 3.645C12.4928 3.415 12.9678 3.3 13.4878 3.3C13.9978 3.3 14.4578 3.405 14.8678 3.615C15.2878 3.815 15.6228 4.125 15.8728 4.545C16.1228 4.965 16.2478 5.495 16.2478 6.135V10.95H15.1678V6.495C15.1678 5.665 14.9928 5.085 14.6428 4.755C14.2928 4.415 13.8578 4.245 13.3378 4.245C12.9778 4.245 12.6228 4.335 12.2728 4.515C11.9228 4.695 11.6328 4.98 11.4028 5.37C11.1828 5.76 11.0728 6.27 11.0728 6.9V10.95H9.99279ZM21.8687 3.3C22.5487 3.3 23.1487 3.455 23.6687 3.765C24.1887 4.075 24.5987 4.525 24.8987 5.115C25.1987 5.695 25.3487 6.39 25.3487 7.2C25.3487 8.01 25.1987 8.71 24.8987 9.3C24.5987 9.88 24.1887 10.325 23.6687 10.635C23.1487 10.945 22.5487 11.1 21.8687 11.1C21.1987 11.1 20.5987 10.945 20.0687 10.635C19.5487 10.325 19.1387 9.88 18.8387 9.3C18.5387 8.71 18.3887 8.01 18.3887 7.2C18.3887 6.39 18.5387 5.695 18.8387 5.115C19.1387 4.525 19.5487 4.075 20.0687 3.765C20.5987 3.455 21.1987 3.3 21.8687 3.3ZM21.8687 4.23C21.3787 4.23 20.9537 4.35 20.5937 4.59C20.2337 4.83 19.9537 5.17 19.7537 5.61C19.5637 6.05 19.4687 6.58 19.4687 7.2C19.4687 7.81 19.5637 8.34 19.7537 8.79C19.9537 9.23 20.2337 9.57 20.5937 9.81C20.9537 10.05 21.3787 10.17 21.8687 10.17C22.3687 10.17 22.7937 10.05 23.1437 9.81C23.5037 9.57 23.7787 9.23 23.9687 8.79C24.1687 8.34 24.2687 7.81 24.2687 7.2C24.2687 6.58 24.1687 6.05 23.9687 5.61C23.7787 5.17 23.5037 4.83 23.1437 4.59C22.7937 4.35 22.3687 4.23 21.8687 4.23ZM36.5312 3.45H37.7312L35.2112 10.95H34.1162L32.0012 4.83L29.9912 10.95H28.8962L26.3762 3.45H27.5762L29.4662 9.69L31.5062 3.45H32.6012L34.6412 9.69L36.5312 3.45ZM50.6472 13.875C50.1672 13.875 49.7122 13.775 49.2822 13.575C48.8622 13.385 48.5222 13.06 48.2622 12.6C48.0022 12.15 47.8722 11.535 47.8722 10.755C47.8722 10.675 47.8722 10.59 47.8722 10.5C47.8822 10.41 47.8922 10.32 47.9022 10.23L48.8322 10.245C48.8222 10.335 48.8122 10.42 48.8022 10.5C48.7922 10.57 48.7872 10.645 48.7872 10.725C48.7872 11.295 48.8722 11.725 49.0422 12.015C49.2222 12.315 49.4572 12.515 49.7472 12.615C50.0372 12.725 50.3472 12.78 50.6772 12.78C51.0072 12.78 51.3172 12.73 51.6072 12.63C51.9072 12.54 52.1422 12.405 52.3122 12.225L52.6572 13.23C52.4372 13.43 52.1322 13.585 51.7422 13.695C51.3522 13.815 50.9872 13.875 50.6472 13.875ZM48.2472 0.899997C49.1572 0.899997 49.9422 1.11 50.6022 1.53C51.2722 1.94 51.7872 2.525 52.1472 3.285C52.5072 4.045 52.6872 4.95 52.6872 6C52.6872 7.05 52.5072 7.955 52.1472 8.715C51.7872 9.475 51.2722 10.065 50.6022 10.485C49.9422 10.895 49.1572 11.1 48.2472 11.1C47.3372 11.1 46.5472 10.895 45.8772 10.485C45.2172 10.065 44.7072 9.475 44.3472 8.715C43.9872 7.955 43.8072 7.05 43.8072 6C43.8072 4.95 43.9872 4.045 44.3472 3.285C44.7072 2.525 45.2172 1.94 45.8772 1.53C46.5472 1.11 47.3372 0.899997 48.2472 0.899997ZM48.2472 1.905C47.5672 1.905 46.9772 2.07 46.4772 2.4C45.9872 2.73 45.6072 3.2 45.3372 3.81C45.0672 4.42 44.9322 5.15 44.9322 6C44.9322 6.85 45.0672 7.58 45.3372 8.19C45.6072 8.8 45.9872 9.27 46.4772 9.6C46.9772 9.93 47.5672 10.095 48.2472 10.095C48.9272 10.095 49.5122 9.93 50.0022 9.6C50.5022 9.27 50.8872 8.8 51.1572 8.19C51.4272 7.58 51.5622 6.85 51.5622 6C51.5622 5.15 51.4272 4.42 51.1572 3.81C50.8872 3.2 50.5022 2.73 50.0022 2.4C49.5122 2.07 48.9272 1.905 48.2472 1.905ZM58.906 1.05C59.866 1.05 60.636 1.305 61.216 1.815C61.806 2.325 62.101 3.025 62.101 3.915C62.101 4.505 61.966 5 61.696 5.4C61.426 5.79 61.046 6.095 60.556 6.315C60.076 6.535 59.521 6.69 58.891 6.78L58.786 6.795H56.371V10.95H55.291V1.05H58.906ZM58.876 5.775C59.566 5.775 60.086 5.62 60.436 5.31C60.786 4.99 60.961 4.525 60.961 3.915C60.961 3.295 60.786 2.83 60.436 2.52C60.086 2.21 59.566 2.055 58.876 2.055H56.371V5.775H58.876ZM59.536 5.985L62.641 10.95H61.366L58.636 6.585L59.536 5.985Z" fill="white"/>
</svg>
