<svg width="53" height="13" viewBox="0 0 53 13" fill="none" xmlns="http://www.w3.org/2000/svg">
<path d="M6.76005 0.909998V1.781H3.84805V9.49H2.91205V1.781H4.68884e-05V0.909998H6.76005ZM9.4868 9.62C8.89746 9.62 8.37313 9.48566 7.9138 9.217C7.46313 8.94833 7.1078 8.56266 6.8478 8.06C6.5878 7.54866 6.4578 6.942 6.4578 6.24C6.4578 5.538 6.58346 4.93566 6.8348 4.433C7.0948 3.92166 7.4458 3.53166 7.8878 3.263C8.33846 2.99433 8.8498 2.86 9.4218 2.86C10.0025 2.86 10.4965 2.99 10.9038 3.25C11.3111 3.51 11.6231 3.86533 11.8398 4.316C12.0565 4.76666 12.1648 5.278 12.1648 5.85C12.1648 5.98866 12.1605 6.11 12.1518 6.214C12.1431 6.318 12.1345 6.409 12.1258 6.487H7.0688V5.655H11.7098L11.2288 5.759C11.2288 5.317 11.1508 4.94433 10.9948 4.641C10.8475 4.329 10.6351 4.09066 10.3578 3.926C10.0891 3.76133 9.7728 3.679 9.4088 3.679C8.9928 3.679 8.6288 3.783 8.3168 3.991C8.01346 4.199 7.77946 4.49366 7.6148 4.875C7.45013 5.25633 7.3678 5.71133 7.3678 6.24C7.3678 6.76866 7.45446 7.22366 7.6278 7.605C7.80113 7.98633 8.0438 8.281 8.3558 8.489C8.67646 8.697 9.04913 8.801 9.4738 8.801C9.92446 8.801 10.2971 8.70566 10.5918 8.515C10.8951 8.31566 11.1335 8.05566 11.3068 7.735L12.0478 8.164C11.8918 8.45866 11.6881 8.71866 11.4368 8.944C11.1941 9.16066 10.9081 9.32966 10.5788 9.451C10.2495 9.56366 9.88546 9.62 9.4868 9.62ZM14.995 -2.38419e-06V7.865C14.995 8.177 15.0427 8.411 15.138 8.567C15.2334 8.723 15.4154 8.801 15.684 8.801C15.8314 8.801 15.9527 8.788 16.048 8.762C16.1434 8.736 16.269 8.68833 16.425 8.619L16.295 9.438C16.1824 9.49866 16.0437 9.542 15.879 9.568C15.723 9.60266 15.5714 9.62 15.424 9.62C14.904 9.62 14.5444 9.45966 14.345 9.139C14.1544 8.81833 14.059 8.40666 14.059 7.904V-2.38419e-06H14.995ZM20.3159 9.62C19.7266 9.62 19.2022 9.48566 18.7429 9.217C18.2922 8.94833 17.9369 8.56266 17.6769 8.06C17.4169 7.54866 17.2869 6.942 17.2869 6.24C17.2869 5.538 17.4126 4.93566 17.6639 4.433C17.9239 3.92166 18.2749 3.53166 18.7169 3.263C19.1676 2.99433 19.6789 2.86 20.2509 2.86C20.8316 2.86 21.3256 2.99 21.7329 3.25C22.1402 3.51 22.4522 3.86533 22.6689 4.316C22.8856 4.76666 22.9939 5.278 22.9939 5.85C22.9939 5.98866 22.9896 6.11 22.9809 6.214C22.9722 6.318 22.9636 6.409 22.9549 6.487H17.8979V5.655H22.5389L22.0579 5.759C22.0579 5.317 21.9799 4.94433 21.8239 4.641C21.6766 4.329 21.4642 4.09066 21.1869 3.926C20.9182 3.76133 20.6019 3.679 20.2379 3.679C19.8219 3.679 19.4579 3.783 19.1459 3.991C18.8426 4.199 18.6086 4.49366 18.4439 4.875C18.2792 5.25633 18.1969 5.71133 18.1969 6.24C18.1969 6.76866 18.2836 7.22366 18.4569 7.605C18.6302 7.98633 18.8729 8.281 19.1849 8.489C19.5056 8.697 19.8782 8.801 20.3029 8.801C20.7536 8.801 21.1262 8.70566 21.4209 8.515C21.7242 8.31566 21.9626 8.05566 22.1359 7.735L22.8769 8.164C22.7209 8.45866 22.5172 8.71866 22.2659 8.944C22.0232 9.16066 21.7372 9.32966 21.4079 9.451C21.0786 9.56366 20.7146 9.62 20.3159 9.62ZM30.1661 1.794L30.3741 2.626C30.3655 2.626 30.3525 2.626 30.3351 2.626C30.3178 2.626 30.3005 2.626 30.2831 2.626C29.8758 2.626 29.5595 2.717 29.3341 2.899C29.1175 3.081 29.0091 3.36266 29.0091 3.744L28.4501 3.445C28.4501 3.107 28.5238 2.81666 28.6711 2.574C28.8185 2.32266 29.0135 2.132 29.2561 2.002C29.5075 1.86333 29.7891 1.794 30.1011 1.794C30.1185 1.794 30.1315 1.794 30.1401 1.794C30.1488 1.794 30.1575 1.794 30.1661 1.794ZM28.2161 8.71C28.8228 8.71 29.2951 8.853 29.6331 9.139C29.9711 9.41633 30.1401 9.78466 30.1401 10.244C30.1401 10.66 30.0058 11.0197 29.7371 11.323C29.4771 11.6263 29.1175 11.8603 28.6581 12.025C28.2075 12.1983 27.6961 12.285 27.1241 12.285C26.1535 12.285 25.4211 12.1117 24.9271 11.765C24.4418 11.427 24.1991 11.011 24.1991 10.517C24.1991 10.1703 24.3161 9.85833 24.5501 9.581C24.7841 9.31233 25.1568 9.15633 25.6681 9.113L25.6031 9.295C25.3171 9.217 25.0745 9.08266 24.8751 8.892C24.6758 8.70133 24.5761 8.43266 24.5761 8.086C24.5761 7.75666 24.6975 7.462 24.9401 7.202C25.1915 6.942 25.5641 6.786 26.0581 6.734L26.7341 7.046H26.5651C26.1665 7.08066 25.8718 7.18466 25.6811 7.358C25.4991 7.52266 25.4081 7.71766 25.4081 7.943C25.4081 8.19433 25.4991 8.385 25.6811 8.515C25.8631 8.645 26.1101 8.71 26.4221 8.71H28.2161ZM27.1371 11.518C27.6138 11.518 28.0125 11.4617 28.3331 11.349C28.6538 11.245 28.8965 11.102 29.0611 10.92C29.2258 10.7467 29.3081 10.556 29.3081 10.348C29.3081 10.088 29.2041 9.88 28.9961 9.724C28.7968 9.57666 28.4631 9.503 27.9951 9.503H26.1101C25.8155 9.503 25.5641 9.581 25.3561 9.737C25.1481 9.90166 25.0441 10.1183 25.0441 10.387C25.0441 10.725 25.2305 10.998 25.6031 11.206C25.9758 11.414 26.4871 11.518 27.1371 11.518ZM27.0461 2.86C27.5488 2.86 27.9908 2.95533 28.3721 3.146C28.7535 3.328 29.0525 3.58366 29.2691 3.913C29.4858 4.23366 29.5941 4.60633 29.5941 5.031C29.5941 5.45566 29.4815 5.83266 29.2561 6.162C29.0395 6.49133 28.7405 6.75133 28.3591 6.942C27.9778 7.124 27.5401 7.215 27.0461 7.215C26.2315 7.215 25.5988 7.01133 25.1481 6.604C24.7061 6.19666 24.4851 5.67233 24.4851 5.031C24.4851 4.60633 24.5935 4.23366 24.8101 3.913C25.0268 3.58366 25.3258 3.328 25.7071 3.146C26.0971 2.95533 26.5435 2.86 27.0461 2.86ZM27.0461 3.614C26.5868 3.614 26.2011 3.744 25.8891 4.004C25.5858 4.264 25.4341 4.60633 25.4341 5.031C25.4341 5.45566 25.5901 5.80233 25.9021 6.071C26.2141 6.331 26.5955 6.461 27.0461 6.461C27.4968 6.461 27.8738 6.331 28.1771 6.071C28.4891 5.80233 28.6451 5.45566 28.6451 5.031C28.6451 4.60633 28.4935 4.264 28.1901 4.004C27.8868 3.744 27.5055 3.614 27.0461 3.614ZM31.5671 9.49V2.99H32.3471L32.4641 4.134C32.6201 3.72666 32.8628 3.41466 33.1921 3.198C33.5214 2.97266 33.9158 2.86 34.3751 2.86C34.4964 2.86 34.6178 2.873 34.7391 2.899C34.8604 2.91633 34.9644 2.95533 35.0511 3.016L34.8951 3.861C34.8084 3.81766 34.7088 3.78733 34.5961 3.77C34.4921 3.744 34.3448 3.731 34.1541 3.731C33.8941 3.731 33.6341 3.81766 33.3741 3.991C33.1228 4.15566 32.9148 4.40266 32.7501 4.732C32.5854 5.06133 32.5031 5.46433 32.5031 5.941V9.49H31.5671ZM39.9938 5.265C39.9938 4.771 39.8638 4.38533 39.6038 4.108C39.3438 3.822 38.9755 3.679 38.4988 3.679C38.0655 3.679 37.6972 3.783 37.3938 3.991C37.0905 4.19033 36.8652 4.511 36.7178 4.953L35.9508 4.485C36.1242 3.991 36.4318 3.59666 36.8738 3.302C37.3245 3.00733 37.8748 2.86 38.5248 2.86C38.9842 2.86 39.3915 2.94233 39.7468 3.107C40.1108 3.263 40.3968 3.50566 40.6048 3.835C40.8215 4.16433 40.9298 4.58033 40.9298 5.083V8.255C40.9298 8.61033 41.0945 8.788 41.4238 8.788C41.4932 8.788 41.5712 8.78366 41.6578 8.775C41.7445 8.75766 41.8182 8.736 41.8788 8.71L41.8268 9.451C41.7575 9.48566 41.6665 9.516 41.5538 9.542C41.4498 9.568 41.3285 9.581 41.1898 9.581C40.9645 9.581 40.7565 9.53766 40.5658 9.451C40.3838 9.35566 40.2365 9.21266 40.1238 9.022C40.0198 8.82266 39.9678 8.57566 39.9678 8.281V8.099L40.2018 8.125C40.1065 8.463 39.9375 8.74466 39.6948 8.97C39.4608 9.18666 39.1878 9.35133 38.8758 9.464C38.5725 9.568 38.2648 9.62 37.9528 9.62C37.3895 9.62 36.9085 9.477 36.5098 9.191C36.1112 8.89633 35.9118 8.45866 35.9118 7.878C35.9118 7.41 36.0592 7.02 36.3538 6.708C36.6572 6.38733 37.0992 6.16633 37.6798 6.045L40.1628 5.525V6.305L38.1218 6.747C37.6972 6.83366 37.3808 6.95933 37.1728 7.124C36.9648 7.28866 36.8608 7.52266 36.8608 7.826C36.8608 8.12066 36.9648 8.359 37.1728 8.541C37.3895 8.71433 37.6972 8.801 38.0958 8.801C38.3298 8.801 38.5595 8.77066 38.7848 8.71C39.0102 8.64066 39.2138 8.53666 39.3958 8.398C39.5778 8.25933 39.7208 8.086 39.8248 7.878C39.9375 7.66133 39.9938 7.40566 39.9938 7.111V5.265ZM43.1452 9.49V2.99H43.9642L44.0292 4.095C44.2459 3.679 44.5449 3.37133 44.9262 3.172C45.3076 2.964 45.7106 2.86 46.1352 2.86C46.6032 2.86 47.0366 2.97266 47.4352 3.198C47.8339 3.41466 48.1286 3.75266 48.3192 4.212C48.4492 3.90866 48.6356 3.65733 48.8782 3.458C49.1296 3.25866 49.4069 3.11133 49.7102 3.016C50.0136 2.912 50.3082 2.86 50.5942 2.86C51.0102 2.86 51.4002 2.94666 51.7642 3.12C52.1282 3.29333 52.4229 3.562 52.6482 3.926C52.8822 4.29 52.9992 4.75366 52.9992 5.317V9.49H52.0632V5.408C52.0632 4.80133 51.9116 4.36366 51.6082 4.095C51.3049 3.81766 50.9322 3.679 50.4902 3.679C50.1436 3.679 49.8229 3.76566 49.5282 3.939C49.2336 4.11233 48.9952 4.36366 48.8132 4.693C48.6312 5.02233 48.5402 5.41666 48.5402 5.876V9.49H47.6042V5.408C47.6042 4.80133 47.4526 4.36366 47.1492 4.095C46.8459 3.81766 46.4732 3.679 46.0312 3.679C45.7366 3.679 45.4376 3.76133 45.1342 3.926C44.8309 4.082 44.5796 4.329 44.3802 4.667C44.1809 5.005 44.0812 5.43833 44.0812 5.967V9.49H43.1452Z" fill="white"/>
</svg>
