<svg width="41" height="10" viewBox="0 0 41 10" fill="none" xmlns="http://www.w3.org/2000/svg">
<path d="M6.76005 0.910001V1.781H3.84805V9.49H2.91205V1.781H4.68884e-05V0.910001H6.76005ZM9.08024 2.99V9.49H8.14424V2.99H9.08024ZM8.67724 1.742C8.44324 1.742 8.25258 1.67267 8.10524 1.534C7.96658 1.38667 7.89724 1.196 7.89724 0.962001C7.89724 0.728001 7.96658 0.541668 8.10524 0.403001C8.25258 0.255668 8.44324 0.182001 8.67724 0.182001C8.91124 0.182001 9.09758 0.255668 9.23624 0.403001C9.38358 0.541668 9.45724 0.728001 9.45724 0.962001C9.45724 1.196 9.38358 1.38667 9.23624 1.534C9.09758 1.67267 8.91124 1.742 8.67724 1.742ZM16.8654 2.99L14.1744 5.785L13.9534 6.006L11.9644 8.086V6.916L15.6824 2.99H16.8654ZM12.4064 1.43051e-06V9.49H11.4704V1.43051e-06H12.4064ZM14.2524 5.304L16.9954 9.49H15.8644L13.4854 5.837L14.2524 5.304ZM23.6004 1.157V7.709C23.6004 8.05567 23.6871 8.31567 23.8604 8.489C24.0338 8.66233 24.2634 8.749 24.5494 8.749C24.7921 8.749 24.9958 8.70567 25.1604 8.619C25.3338 8.53233 25.4898 8.41533 25.6284 8.268L25.9404 9.048C25.7498 9.23 25.5288 9.373 25.2774 9.477C25.0261 9.57234 24.7401 9.62 24.4194 9.62C23.9341 9.62 23.5181 9.48567 23.1714 9.217C22.8334 8.94833 22.6644 8.502 22.6644 7.878V1.417L23.6004 1.157ZM25.8364 2.99V3.796H21.4424V2.99H25.8364ZM29.8879 2.86C30.4772 2.86 30.9972 2.99433 31.4479 3.263C31.8985 3.53167 32.2539 3.92167 32.5139 4.433C32.7739 4.93567 32.9039 5.538 32.9039 6.24C32.9039 6.942 32.7739 7.54867 32.5139 8.06C32.2539 8.56267 31.8985 8.94833 31.4479 9.217C30.9972 9.48567 30.4772 9.62 29.8879 9.62C29.3072 9.62 28.7872 9.48567 28.3279 9.217C27.8772 8.94833 27.5219 8.56267 27.2619 8.06C27.0019 7.54867 26.8719 6.942 26.8719 6.24C26.8719 5.538 27.0019 4.93567 27.2619 4.433C27.5219 3.92167 27.8772 3.53167 28.3279 3.263C28.7872 2.99433 29.3072 2.86 29.8879 2.86ZM29.8879 3.666C29.4632 3.666 29.0949 3.77 28.7829 3.978C28.4709 4.186 28.2282 4.48067 28.0549 4.862C27.8902 5.24333 27.8079 5.70267 27.8079 6.24C27.8079 6.76867 27.8902 7.228 28.0549 7.618C28.2282 7.99933 28.4709 8.294 28.7829 8.502C29.0949 8.71 29.4632 8.814 29.8879 8.814C30.3212 8.814 30.6895 8.71 30.9929 8.502C31.3049 8.294 31.5432 7.99933 31.7079 7.618C31.8812 7.228 31.9679 6.76867 31.9679 6.24C31.9679 5.70267 31.8812 5.24333 31.7079 4.862C31.5432 4.48067 31.3049 4.186 30.9929 3.978C30.6895 3.77 30.3212 3.666 29.8879 3.666ZM40.2375 2.99L37.5465 5.785L37.3255 6.006L35.3365 8.086V6.916L39.0545 2.99H40.2375ZM35.7785 1.43051e-06V9.49H34.8425V1.43051e-06H35.7785ZM37.6245 5.304L40.3675 9.49H39.2365L36.8575 5.837L37.6245 5.304Z" fill="white"/>
</svg>
