<svg width="31" height="10" viewBox="0 0 31 10" fill="none" xmlns="http://www.w3.org/2000/svg">
<path d="M7.37105 0.910001L4.22505 9.49H3.15905L4.78607e-05 0.910001H1.00105L3.18505 7.033L3.69205 8.632L4.19905 7.033L6.37005 0.910001H7.37105ZM9.85527 2.99V9.49H8.91927V2.99H9.85527ZM9.45227 1.742C9.21827 1.742 9.0276 1.67267 8.88027 1.534C8.7416 1.38667 8.67227 1.196 8.67227 0.962001C8.67227 0.728001 8.7416 0.541668 8.88027 0.403001C9.0276 0.255668 9.21827 0.182001 9.45227 0.182001C9.68627 0.182001 9.8726 0.255668 10.0113 0.403001C10.1586 0.541668 10.2323 0.728001 10.2323 0.962001C10.2323 1.196 10.1586 1.38667 10.0113 1.534C9.8726 1.67267 9.68627 1.742 9.45227 1.742ZM15.2874 9.62C14.7501 9.62 14.2734 9.47267 13.8574 9.178C13.4501 8.87467 13.1728 8.48467 13.0254 8.008L13.1424 7.839L13.0644 9.49H12.2454V1.43051e-06H13.1814V4.524L13.0644 4.355C13.2378 3.913 13.5238 3.55333 13.9224 3.276C14.3211 2.99867 14.7804 2.86 15.3004 2.86C15.8204 2.86 16.2928 2.99433 16.7174 3.263C17.1508 3.53167 17.4931 3.91733 17.7444 4.42C18.0044 4.92267 18.1344 5.52933 18.1344 6.24C18.1344 6.942 18.0044 7.54867 17.7444 8.06C17.4931 8.56267 17.1508 8.94833 16.7174 9.217C16.2928 9.48567 15.8161 9.62 15.2874 9.62ZM15.1834 8.801C15.8161 8.801 16.3101 8.57133 16.6654 8.112C17.0208 7.644 17.1984 7.02 17.1984 6.24C17.1984 5.46 17.0208 4.84033 16.6654 4.381C16.3188 3.913 15.8291 3.679 15.1964 3.679C14.7978 3.679 14.4468 3.78733 14.1434 4.004C13.8401 4.22067 13.6018 4.524 13.4284 4.914C13.2638 5.29533 13.1814 5.746 13.1814 6.266C13.1814 6.77733 13.2638 7.22367 13.4284 7.605C13.6018 7.98633 13.8401 8.281 14.1434 8.489C14.4468 8.697 14.7934 8.801 15.1834 8.801ZM22.6651 9.62C22.0758 9.62 21.5515 9.48567 21.0921 9.217C20.6415 8.94833 20.2861 8.56267 20.0261 8.06C19.7661 7.54867 19.6361 6.942 19.6361 6.24C19.6361 5.538 19.7618 4.93567 20.0131 4.433C20.2731 3.92167 20.6241 3.53167 21.0661 3.263C21.5168 2.99433 22.0281 2.86 22.6001 2.86C23.1808 2.86 23.6748 2.99 24.0821 3.25C24.4895 3.51 24.8015 3.86533 25.0181 4.316C25.2348 4.76667 25.3431 5.278 25.3431 5.85C25.3431 5.98867 25.3388 6.11 25.3301 6.214C25.3215 6.318 25.3128 6.409 25.3041 6.487H20.2471V5.655H24.8881L24.4071 5.759C24.4071 5.317 24.3291 4.94433 24.1731 4.641C24.0258 4.329 23.8135 4.09067 23.5361 3.926C23.2675 3.76133 22.9511 3.679 22.5871 3.679C22.1711 3.679 21.8071 3.783 21.4951 3.991C21.1918 4.199 20.9578 4.49367 20.7931 4.875C20.6285 5.25633 20.5461 5.71133 20.5461 6.24C20.5461 6.76867 20.6328 7.22367 20.8061 7.605C20.9795 7.98633 21.2221 8.281 21.5341 8.489C21.8548 8.697 22.2275 8.801 22.6521 8.801C23.1028 8.801 23.4755 8.70567 23.7701 8.515C24.0735 8.31567 24.3118 8.05567 24.4851 7.735L25.2261 8.164C25.0701 8.45867 24.8665 8.71867 24.6151 8.944C24.3725 9.16067 24.0865 9.32967 23.7571 9.451C23.4278 9.56367 23.0638 9.62 22.6651 9.62ZM27.2894 9.49V2.99H28.0694L28.1864 4.134C28.3424 3.72667 28.5851 3.41467 28.9144 3.198C29.2437 2.97267 29.6381 2.86 30.0974 2.86C30.2187 2.86 30.3401 2.873 30.4614 2.899C30.5827 2.91633 30.6867 2.95533 30.7734 3.016L30.6174 3.861C30.5307 3.81767 30.4311 3.78733 30.3184 3.77C30.2144 3.744 30.0671 3.731 29.8764 3.731C29.6164 3.731 29.3564 3.81767 29.0964 3.991C28.8451 4.15567 28.6371 4.40267 28.4724 4.732C28.3077 5.06133 28.2254 5.46433 28.2254 5.941V9.49H27.2894Z" fill="white"/>
</svg>
