<svg width="68" height="13" viewBox="0 0 68 13" fill="none" xmlns="http://www.w3.org/2000/svg">
<path d="M2.52198 9.49001L-1.65775e-05 0.910005H0.974983L3.10698 8.63201L5.13498 0.910005H6.20098L8.22898 8.65801L10.361 0.910005H11.284L8.77498 9.49001H7.63098L6.09698 3.80901L5.65498 1.885H5.64198L5.19998 3.80901L3.67898 9.49001H2.52198ZM12.9288 9.49001V5.24521e-06H13.8648V4.05601C14.0728 3.64867 14.3588 3.34967 14.7228 3.15901C15.0955 2.95967 15.5071 2.86 15.9578 2.86C16.3998 2.86 16.7985 2.951 17.1538 3.13301C17.5178 3.30634 17.8081 3.57501 18.0248 3.93901C18.2415 4.30301 18.3498 4.76234 18.3498 5.31701V9.49001H17.4138V5.62901C17.4138 4.90967 17.2621 4.40701 16.9588 4.12101C16.6555 3.82634 16.2785 3.67901 15.8278 3.67901C15.5158 3.67901 15.2081 3.75701 14.9048 3.91301C14.6015 4.06901 14.3501 4.31601 14.1508 4.65401C13.9601 4.99201 13.8648 5.43401 13.8648 5.98001V9.49001H12.9288ZM24.3262 5.26501C24.3262 4.77101 24.1962 4.38534 23.9362 4.10801C23.6762 3.82201 23.3079 3.67901 22.8312 3.67901C22.3979 3.67901 22.0296 3.78301 21.7262 3.99101C21.4229 4.19034 21.1976 4.51101 21.0502 4.95301L20.2832 4.48501C20.4566 3.99101 20.7642 3.59667 21.2062 3.30201C21.6569 3.00734 22.2072 2.86 22.8572 2.86C23.3166 2.86 23.7239 2.94234 24.0792 3.10701C24.4432 3.26301 24.7292 3.50567 24.9372 3.83501C25.1539 4.16434 25.2622 4.58034 25.2622 5.08301V8.25501C25.2622 8.61034 25.4269 8.78801 25.7562 8.78801C25.8256 8.78801 25.9036 8.78367 25.9902 8.77501C26.0769 8.75767 26.1506 8.73601 26.2112 8.71001L26.1592 9.45101C26.0899 9.48567 25.9989 9.51601 25.8862 9.54201C25.7822 9.56801 25.6609 9.58101 25.5222 9.58101C25.2969 9.58101 25.0889 9.53767 24.8982 9.45101C24.7162 9.35567 24.5689 9.21267 24.4562 9.02201C24.3522 8.82267 24.3002 8.57567 24.3002 8.28101V8.09901L24.5342 8.12501C24.4389 8.46301 24.2699 8.74467 24.0272 8.97001C23.7932 9.18667 23.5202 9.35134 23.2082 9.46401C22.9049 9.56801 22.5972 9.62001 22.2852 9.62001C21.7219 9.62001 21.2409 9.47701 20.8422 9.19101C20.4436 8.89634 20.2442 8.45867 20.2442 7.87801C20.2442 7.41001 20.3916 7.02001 20.6862 6.70801C20.9896 6.38734 21.4316 6.16634 22.0122 6.04501L24.4952 5.52501V6.30501L22.4542 6.74701C22.0296 6.83367 21.7132 6.95934 21.5052 7.12401C21.2972 7.28867 21.1932 7.52267 21.1932 7.82601C21.1932 8.12067 21.2972 8.35901 21.5052 8.54101C21.7219 8.71434 22.0296 8.80101 22.4282 8.80101C22.6622 8.80101 22.8919 8.77067 23.1172 8.71001C23.3426 8.64067 23.5462 8.53667 23.7282 8.39801C23.9102 8.25934 24.0532 8.08601 24.1572 7.87801C24.2699 7.66134 24.3262 7.40567 24.3262 7.11101V5.26501ZM28.8166 1.15701V7.70901C28.8166 8.05567 28.9033 8.31567 29.0766 8.48901C29.2499 8.66234 29.4796 8.74901 29.7656 8.74901C30.0083 8.74901 30.2119 8.70567 30.3766 8.61901C30.5499 8.53234 30.7059 8.41534 30.8446 8.26801L31.1566 9.04801C30.9659 9.23001 30.7449 9.37301 30.4936 9.47701C30.2423 9.57234 29.9563 9.62001 29.6356 9.62001C29.1503 9.62001 28.7343 9.48567 28.3876 9.21701C28.0496 8.94834 27.8806 8.50201 27.8806 7.87801V1.417L28.8166 1.15701ZM31.0526 2.99001V3.79601H26.6586V2.99001H31.0526ZM34.714 9.62001C34.1074 9.62001 33.5527 9.48567 33.05 9.21701C32.5474 8.94834 32.166 8.56701 31.906 8.07301L32.686 7.50101C32.8594 7.91701 33.1237 8.23767 33.479 8.46301C33.843 8.68834 34.2764 8.80101 34.779 8.80101C35.2297 8.80101 35.585 8.70567 35.845 8.51501C36.1137 8.32434 36.248 8.07301 36.248 7.76101C36.248 7.56167 36.1874 7.38401 36.066 7.22801C35.9447 7.06334 35.715 6.94201 35.377 6.86401L33.921 6.53901C33.3144 6.40034 32.881 6.18367 32.621 5.88901C32.361 5.59434 32.231 5.22601 32.231 4.78401C32.231 4.43734 32.3264 4.12101 32.517 3.83501C32.7164 3.54034 32.998 3.30634 33.362 3.13301C33.726 2.951 34.1507 2.86 34.636 2.86C35.2427 2.86 35.754 2.99 36.17 3.25001C36.5947 3.50134 36.9067 3.86101 37.106 4.32901L36.339 4.83601C36.2004 4.42867 35.9707 4.13401 35.65 3.95201C35.3294 3.77001 34.9914 3.67901 34.636 3.67901C34.3327 3.67901 34.0684 3.72667 33.843 3.82201C33.6177 3.90867 33.4444 4.03434 33.323 4.19901C33.2104 4.35501 33.154 4.53701 33.154 4.74501C33.154 4.94434 33.219 5.13067 33.349 5.30401C33.4877 5.47734 33.7347 5.60301 34.09 5.68101L35.611 6.01901C36.1917 6.14901 36.599 6.34834 36.833 6.61701C37.067 6.88567 37.184 7.22367 37.184 7.63101C37.184 8.23767 36.9544 8.72301 36.495 9.08701C36.0444 9.44234 35.4507 9.62001 34.714 9.62001ZM41.2521 9.62001C40.6455 9.62001 40.0908 9.48567 39.5881 9.21701C39.0855 8.94834 38.7041 8.56701 38.4441 8.07301L39.2241 7.50101C39.3975 7.91701 39.6618 8.23767 40.0171 8.46301C40.3811 8.68834 40.8145 8.80101 41.3171 8.80101C41.7678 8.80101 42.1231 8.70567 42.3831 8.51501C42.6518 8.32434 42.7861 8.07301 42.7861 7.76101C42.7861 7.56167 42.7255 7.38401 42.6041 7.22801C42.4828 7.06334 42.2531 6.94201 41.9151 6.86401L40.4591 6.53901C39.8525 6.40034 39.4191 6.18367 39.1591 5.88901C38.8991 5.59434 38.7691 5.22601 38.7691 4.78401C38.7691 4.43734 38.8645 4.12101 39.0551 3.83501C39.2545 3.54034 39.5361 3.30634 39.9001 3.13301C40.2641 2.951 40.6888 2.86 41.1741 2.86C41.7808 2.86 42.2921 2.99 42.7081 3.25001C43.1328 3.50134 43.4448 3.86101 43.6441 4.32901L42.8771 4.83601C42.7385 4.42867 42.5088 4.13401 42.1881 3.95201C41.8675 3.77001 41.5295 3.67901 41.1741 3.67901C40.8708 3.67901 40.6065 3.72667 40.3811 3.82201C40.1558 3.90867 39.9825 4.03434 39.8611 4.19901C39.7485 4.35501 39.6921 4.53701 39.6921 4.74501C39.6921 4.94434 39.7571 5.13067 39.8871 5.30401C40.0258 5.47734 40.2728 5.60301 40.6281 5.68101L42.1491 6.01901C42.7298 6.14901 43.1371 6.34834 43.3711 6.61701C43.6051 6.88567 43.7221 7.22367 43.7221 7.63101C43.7221 8.23767 43.4925 8.72301 43.0331 9.08701C42.5825 9.44234 41.9888 9.62001 41.2521 9.62001ZM52.2767 9.49001H51.2757L50.3657 7.03301H46.5697L45.6597 9.49001H44.6717L47.9217 0.910005H49.0397L52.2767 9.49001ZM46.8947 6.14901H50.0407L48.4677 1.82001L46.8947 6.14901ZM53.7823 12.22V2.99001H54.6013L54.6793 4.64101L54.5623 4.47201C54.7096 3.98667 54.9913 3.59667 55.4073 3.30201C55.8233 3.00734 56.3086 2.86 56.8633 2.86C57.3833 2.86 57.8556 2.99434 58.2803 3.26301C58.705 3.53167 59.043 3.92167 59.2943 4.43301C59.5456 4.93567 59.6713 5.53801 59.6713 6.24001C59.6713 6.94201 59.5413 7.54867 59.2813 8.06001C59.03 8.56267 58.6876 8.94834 58.2543 9.21701C57.821 9.48567 57.3443 9.62001 56.8243 9.62001C56.2956 9.62001 55.8363 9.48134 55.4463 9.20401C55.0563 8.92667 54.7746 8.56701 54.6013 8.12501L54.7183 7.94301V12.22H53.7823ZM56.7203 8.80101C57.3443 8.80101 57.834 8.57134 58.1893 8.11201C58.5533 7.64401 58.7353 7.02001 58.7353 6.24001C58.7353 5.46001 58.5576 4.84034 58.2023 4.38101C57.8556 3.91301 57.3746 3.67901 56.7593 3.67901C56.3606 3.67901 56.0053 3.78734 55.6933 4.00401C55.39 4.21201 55.1516 4.50667 54.9783 4.88801C54.805 5.26934 54.7183 5.72001 54.7183 6.24001C54.7183 6.75134 54.8006 7.20201 54.9653 7.59201C55.1386 7.97334 55.3726 8.27234 55.6673 8.48901C55.9706 8.69701 56.3216 8.80101 56.7203 8.80101ZM61.628 12.22V2.99001H62.447L62.525 4.64101L62.408 4.47201C62.5553 3.98667 62.837 3.59667 63.253 3.30201C63.669 3.00734 64.1543 2.86 64.709 2.86C65.229 2.86 65.7013 2.99434 66.126 3.26301C66.5507 3.53167 66.8887 3.92167 67.14 4.43301C67.3913 4.93567 67.517 5.53801 67.517 6.24001C67.517 6.94201 67.387 7.54867 67.127 8.06001C66.8757 8.56267 66.5333 8.94834 66.1 9.21701C65.6667 9.48567 65.19 9.62001 64.67 9.62001C64.1413 9.62001 63.682 9.48134 63.292 9.20401C62.902 8.92667 62.6203 8.56701 62.447 8.12501L62.564 7.94301V12.22H61.628ZM64.566 8.80101C65.19 8.80101 65.6797 8.57134 66.035 8.11201C66.399 7.64401 66.581 7.02001 66.581 6.24001C66.581 5.46001 66.4033 4.84034 66.048 4.38101C65.7013 3.91301 65.2203 3.67901 64.605 3.67901C64.2063 3.67901 63.851 3.78734 63.539 4.00401C63.2357 4.21201 62.9973 4.50667 62.824 4.88801C62.6507 5.26934 62.564 5.72001 62.564 6.24001C62.564 6.75134 62.6463 7.20201 62.811 7.59201C62.9843 7.97334 63.2183 8.27234 63.513 8.48901C63.8163 8.69701 64.1673 8.80101 64.566 8.80101Z" fill="white"/>
</svg>
