<svg width="79" height="11" viewBox="0 0 79 11" fill="none" xmlns="http://www.w3.org/2000/svg">
<path d="M1.96546e-05 10.05V0.150003H3.40502C4.50502 0.150003 5.31002 0.390003 5.82002 0.870002C6.34002 1.35 6.60002 2.01 6.60002 2.85C6.60002 3.34 6.46502 3.795 6.19502 4.215C5.92502 4.635 5.51002 4.9 4.95002 5.01V5.025C5.53002 5.135 5.99002 5.405 6.33002 5.835C6.67002 6.255 6.84002 6.745 6.84002 7.305C6.84002 8.145 6.54002 8.815 5.94002 9.315C5.35002 9.805 4.50502 10.05 3.40502 10.05H1.96546e-05ZM1.08002 9.045H3.61502C4.30502 9.045 4.82502 8.895 5.17502 8.595C5.52502 8.285 5.70002 7.855 5.70002 7.305C5.70002 6.745 5.52502 6.315 5.17502 6.015C4.82502 5.715 4.30502 5.565 3.61502 5.565H1.08002V9.045ZM1.08002 4.56H3.39002C4.08002 4.56 4.59502 4.42 4.93502 4.14C5.28502 3.86 5.46002 3.43 5.46002 2.85C5.46002 2.29 5.28502 1.87 4.93502 1.59C4.59502 1.3 4.08002 1.155 3.39002 1.155H1.08002V4.56ZM13.2883 2.80142e-06C14.1983 2.80142e-06 14.9833 0.210003 15.6433 0.630003C16.3133 1.04 16.8283 1.625 17.1883 2.385C17.5483 3.145 17.7283 4.05 17.7283 5.1C17.7283 6.15 17.5483 7.055 17.1883 7.815C16.8283 8.575 16.3133 9.165 15.6433 9.585C14.9833 9.995 14.1983 10.2 13.2883 10.2C12.3783 10.2 11.5883 9.995 10.9183 9.585C10.2583 9.165 9.74826 8.575 9.38826 7.815C9.02826 7.055 8.84826 6.15 8.84826 5.1C8.84826 4.05 9.02826 3.145 9.38826 2.385C9.74826 1.625 10.2583 1.04 10.9183 0.630003C11.5883 0.210003 12.3783 2.80142e-06 13.2883 2.80142e-06ZM13.2883 1.005C12.6083 1.005 12.0183 1.17 11.5183 1.5C11.0283 1.83 10.6483 2.3 10.3783 2.91C10.1083 3.52 9.97326 4.25 9.97326 5.1C9.97326 5.95 10.1083 6.68 10.3783 7.29C10.6483 7.9 11.0283 8.37 11.5183 8.7C12.0183 9.03 12.6083 9.195 13.2883 9.195C13.9683 9.195 14.5533 9.03 15.0433 8.7C15.5433 8.37 15.9283 7.9 16.1983 7.29C16.4683 6.68 16.6033 5.95 16.6033 5.1C16.6033 4.25 16.4683 3.52 16.1983 2.91C15.9283 2.3 15.5433 1.83 15.0433 1.5C14.5533 1.17 13.9683 1.005 13.2883 1.005ZM24.1721 2.80142e-06C25.0821 2.80142e-06 25.8671 0.210003 26.5271 0.630003C27.1971 1.04 27.7121 1.625 28.0721 2.385C28.4321 3.145 28.6121 4.05 28.6121 5.1C28.6121 6.15 28.4321 7.055 28.0721 7.815C27.7121 8.575 27.1971 9.165 26.5271 9.585C25.8671 9.995 25.0821 10.2 24.1721 10.2C23.2621 10.2 22.4721 9.995 21.8021 9.585C21.1421 9.165 20.6321 8.575 20.2721 7.815C19.9121 7.055 19.7321 6.15 19.7321 5.1C19.7321 4.05 19.9121 3.145 20.2721 2.385C20.6321 1.625 21.1421 1.04 21.8021 0.630003C22.4721 0.210003 23.2621 2.80142e-06 24.1721 2.80142e-06ZM24.1721 1.005C23.4921 1.005 22.9021 1.17 22.4021 1.5C21.9121 1.83 21.5321 2.3 21.2621 2.91C20.9921 3.52 20.8571 4.25 20.8571 5.1C20.8571 5.95 20.9921 6.68 21.2621 7.29C21.5321 7.9 21.9121 8.37 22.4021 8.7C22.9021 9.03 23.4921 9.195 24.1721 9.195C24.8521 9.195 25.4371 9.03 25.9271 8.7C26.4271 8.37 26.8121 7.9 27.0821 7.29C27.3521 6.68 27.4871 5.95 27.4871 5.1C27.4871 4.25 27.3521 3.52 27.0821 2.91C26.8121 2.3 26.4271 1.83 25.9271 1.5C25.4371 1.17 24.8521 1.005 24.1721 1.005ZM38.5508 0.150003L34.4408 4.53L34.2758 4.695L31.7708 7.38L31.7558 5.925L37.1408 0.150003H38.5508ZM32.2958 0.150003V10.05H31.2158V0.150003H32.2958ZM34.5608 3.825L38.6108 10.05H37.3058L33.6758 4.455L34.5608 3.825ZM52.8798 0.150003V10.05H51.5598L47.3298 3.12L46.4148 1.41H46.3998L46.4448 2.835V10.05H45.4248V0.150003H46.7448L50.9598 7.065L51.8898 8.805H51.9048L51.8598 7.365V0.150003H52.8798ZM59.9289 2.80142e-06C60.8389 2.80142e-06 61.6239 0.210003 62.2839 0.630003C62.9539 1.04 63.4689 1.625 63.8289 2.385C64.1889 3.145 64.3689 4.05 64.3689 5.1C64.3689 6.15 64.1889 7.055 63.8289 7.815C63.4689 8.575 62.9539 9.165 62.2839 9.585C61.6239 9.995 60.8389 10.2 59.9289 10.2C59.0189 10.2 58.2289 9.995 57.5589 9.585C56.8989 9.165 56.3889 8.575 56.0289 7.815C55.6689 7.055 55.4889 6.15 55.4889 5.1C55.4889 4.05 55.6689 3.145 56.0289 2.385C56.3889 1.625 56.8989 1.04 57.5589 0.630003C58.2289 0.210003 59.0189 2.80142e-06 59.9289 2.80142e-06ZM59.9289 1.005C59.2489 1.005 58.6589 1.17 58.1589 1.5C57.6689 1.83 57.2889 2.3 57.0189 2.91C56.7489 3.52 56.6139 4.25 56.6139 5.1C56.6139 5.95 56.7489 6.68 57.0189 7.29C57.2889 7.9 57.6689 8.37 58.1589 8.7C58.6589 9.03 59.2489 9.195 59.9289 9.195C60.6089 9.195 61.1939 9.03 61.6839 8.7C62.1839 8.37 62.5689 7.9 62.8389 7.29C63.1089 6.68 63.2439 5.95 63.2439 5.1C63.2439 4.25 63.1089 3.52 62.8389 2.91C62.5689 2.3 62.1839 1.83 61.6839 1.5C61.1939 1.17 60.6089 1.005 59.9289 1.005ZM68.6705 10.05L65.7605 0.150003H66.8855L69.3455 9.06L71.6855 0.150003H72.9155L75.2555 9.09L77.7155 0.150003H78.7805L75.8855 10.05H74.5655L72.7955 3.495L72.2855 1.275H72.2705L71.7605 3.495L70.0055 10.05H68.6705Z" fill="white"/>
</svg>
