<svg width="155" height="13" viewBox="0 0 155 13" fill="none" xmlns="http://www.w3.org/2000/svg">
<path d="M3.89995 6V9.225C3.89995 9.645 3.76995 9.985 3.50995 10.245C3.24995 10.495 2.90995 10.62 2.48995 10.62H1.40995C0.989951 10.62 0.649951 10.495 0.389951 10.245C0.129951 9.985 -4.88069e-05 9.645 -4.88069e-05 9.225V1.395C-4.88069e-05 0.974997 0.129951 0.639997 0.389951 0.389997C0.649951 0.129997 0.989951 -3.27826e-06 1.40995 -3.27826e-06H2.48995C2.90995 -3.27826e-06 3.24995 0.129997 3.50995 0.389997C3.76995 0.639997 3.89995 0.974997 3.89995 1.395V4.755L2.47495 4.605V1.47C2.47495 1.42 2.44995 1.395 2.39995 1.395H1.49995C1.44995 1.395 1.42495 1.42 1.42495 1.47V9.15C1.42495 9.2 1.44995 9.225 1.49995 9.225H2.39995C2.44995 9.225 2.47495 9.2 2.47495 9.15V6H3.89995ZM7.07526 9.165V3.06H8.50026V9.165H8.72526L8.87526 10.56H7.07526V9.975L6.70026 10.56H6.29526C5.83526 10.56 5.46526 10.43 5.18526 10.17C4.91526 9.9 4.78026 9.565 4.78026 9.165V4.455H4.42026L4.57026 3.06H6.20526V9.09C6.20526 9.14 6.23026 9.165 6.28026 9.165H7.07526ZM9.16987 8.205L10.5949 8.355V9.09C10.5949 9.14 10.6199 9.165 10.6699 9.165H11.2699C11.3199 9.165 11.3449 9.14 11.3449 9.09V7.695L10.0099 7.125C9.84987 7.055 9.66987 6.945 9.46987 6.795C9.26987 6.645 9.16987 6.4 9.16987 6.06V4.395C9.16987 3.975 9.29987 3.64 9.55987 3.39C9.81987 3.13 10.1599 3 10.5799 3H11.3599C11.7799 3 12.1199 3.13 12.3799 3.39C12.6399 3.64 12.7699 3.975 12.7699 4.395V5.355L11.3449 5.205V4.47C11.3449 4.42 11.3199 4.395 11.2699 4.395H10.6699C10.6199 4.395 10.5949 4.42 10.5949 4.47V5.865L11.9299 6.435C12.0899 6.505 12.2699 6.615 12.4699 6.765C12.6699 6.915 12.7699 7.16 12.7699 7.5V9.165C12.7699 9.585 12.6399 9.925 12.3799 10.185C12.1199 10.435 11.7799 10.56 11.3599 10.56H10.5799C10.1599 10.56 9.81987 10.435 9.55987 10.185C9.29987 9.925 9.16987 9.585 9.16987 9.165V8.205ZM16.134 9.165V10.56H15.264C14.844 10.56 14.504 10.435 14.244 10.185C13.984 9.925 13.854 9.585 13.854 9.165V4.455H13.224L13.344 3.06H13.854V1.455H13.479L13.599 0.0599968H15.279V3.06H16.134L16.014 4.455H15.279V9.165H16.134ZM18.9837 4.47C18.9837 4.42 18.9587 4.395 18.9087 4.395H18.0087C17.9587 4.395 17.9337 4.42 17.9337 4.47V9.15C17.9337 9.2 17.9587 9.225 18.0087 9.225H18.9087C18.9587 9.225 18.9837 9.205 18.9837 9.165V4.47ZM16.5087 9.225V4.395C16.5087 3.975 16.6387 3.64 16.8987 3.39C17.1587 3.13 17.4987 3 17.9187 3H18.9987C19.4187 3 19.7587 3.13 20.0187 3.39C20.2787 3.64 20.4087 3.975 20.4087 4.395V9.225C20.4087 9.645 20.2787 9.985 20.0187 10.245C19.7587 10.495 19.4187 10.62 18.9987 10.62H17.9187C17.4987 10.62 17.1587 10.495 16.8987 10.245C16.6387 9.985 16.5087 9.645 16.5087 9.225ZM24.9358 10.56H23.5108V4.53C23.5108 4.48 23.4858 4.455 23.4358 4.455H22.6408V10.56H21.2158V4.455H20.8558L21.0058 3.06H22.6408V3.645L23.0158 3.06H23.4208C23.7508 3.06 24.0358 3.13 24.2758 3.27C24.5158 3.41 24.6908 3.6 24.8008 3.84L25.3108 3.06H25.7158C26.1758 3.06 26.5408 3.19 26.8108 3.45C27.0908 3.71 27.2308 4.045 27.2308 4.455V9.165H27.5908L27.4408 10.56H25.8058V4.53C25.8058 4.48 25.7808 4.455 25.7308 4.455H24.9358V10.56ZM34.6624 10.56H33.2374V4.53C33.2374 4.48 33.2124 4.455 33.1624 4.455H32.3674V10.56H30.9424V4.455H30.5824L30.7324 3.06H32.3674V3.645L32.7424 3.06H33.1474C33.4774 3.06 33.7624 3.13 34.0024 3.27C34.2424 3.41 34.4174 3.6 34.5274 3.84L35.0374 3.06H35.4424C35.9024 3.06 36.2674 3.19 36.5374 3.45C36.8174 3.71 36.9574 4.045 36.9574 4.455V9.165H37.3174L37.1674 10.56H35.5324V4.53C35.5324 4.48 35.5074 4.455 35.4574 4.455H34.6624V10.56ZM37.7636 9.225V4.395C37.7636 3.975 37.8936 3.64 38.1536 3.39C38.4136 3.13 38.7536 3 39.1736 3H40.1036C40.5236 3 40.8636 3.13 41.1236 3.39C41.3836 3.64 41.5136 3.975 41.5136 4.395V6.24H40.0886V4.47C40.0886 4.42 40.0636 4.395 40.0136 4.395H39.2636C39.2136 4.395 39.1886 4.42 39.1886 4.47V6.24H41.5136V7.635H39.1886V9.15C39.1886 9.2 39.2136 9.225 39.2636 9.225H40.0136C40.0636 9.225 40.0886 9.205 40.0886 9.165V8.34H41.5136V9.225C41.5136 9.645 41.3836 9.985 41.1236 10.245C40.8636 10.495 40.5236 10.62 40.1036 10.62H39.1736C38.7536 10.62 38.4136 10.495 38.1536 10.245C37.8936 9.985 37.7636 9.645 37.7636 9.225ZM42.3242 10.56V4.455H41.9642L42.1142 3.06H43.7492V3.645L44.1242 3.06H44.5292C44.9892 3.06 45.3542 3.19 45.6242 3.45C45.9042 3.71 46.0442 4.045 46.0442 4.455V9.165H46.4192L46.2692 10.56H44.6192V4.53C44.6192 4.48 44.5942 4.455 44.5442 4.455H43.7492V10.56H42.3242ZM46.3229 0.704997H47.6729L47.1779 3.15H45.8279L46.3229 0.704997ZM47.9736 8.205L49.3986 8.355V9.09C49.3986 9.14 49.4236 9.165 49.4736 9.165H50.0736C50.1236 9.165 50.1486 9.14 50.1486 9.09V7.695L48.8136 7.125C48.6536 7.055 48.4736 6.945 48.2736 6.795C48.0736 6.645 47.9736 6.4 47.9736 6.06V4.395C47.9736 3.975 48.1036 3.64 48.3636 3.39C48.6236 3.13 48.9636 3 49.3836 3H50.1636C50.5836 3 50.9236 3.13 51.1836 3.39C51.4436 3.64 51.5736 3.975 51.5736 4.395V5.355L50.1486 5.205V4.47C50.1486 4.42 50.1236 4.395 50.0736 4.395H49.4736C49.4236 4.395 49.3986 4.42 49.3986 4.47V5.865L50.7336 6.435C50.8936 6.505 51.0736 6.615 51.2736 6.765C51.4736 6.915 51.5736 7.16 51.5736 7.5V9.165C51.5736 9.585 51.4436 9.925 51.1836 10.185C50.9236 10.435 50.5836 10.56 50.1636 10.56H49.3836C48.9636 10.56 48.6236 10.435 48.3636 10.185C48.1036 9.925 47.9736 9.585 47.9736 9.165V8.205ZM55.083 10.56V1.455H54.723L54.873 0.0599968H56.508V3.645L56.883 3.06H57.288C57.748 3.06 58.113 3.19 58.383 3.45C58.663 3.71 58.803 4.045 58.803 4.455V9.165H59.163L59.013 10.56H57.378V4.53C57.378 4.48 57.353 4.455 57.303 4.455H56.508V10.56H55.083ZM61.0608 10.56C60.6008 10.56 60.2308 10.43 59.9508 10.17C59.6808 9.9 59.5458 9.565 59.5458 9.165V4.455C59.5458 4.045 59.6808 3.71 59.9508 3.45C60.2308 3.19 60.6008 3.06 61.0608 3.06H61.1208C61.3908 3.06 61.6308 3.125 61.8408 3.255V3.06H63.2658V9.165H63.4758L63.6258 10.56H61.8408V9.975L61.4658 10.56H61.0608ZM61.0458 4.455C60.9958 4.455 60.9708 4.48 60.9708 4.53V9.09C60.9708 9.14 60.9958 9.165 61.0458 9.165H61.8408V4.455H61.0458ZM65.349 1.065L65.499 2.46H64.074V1.065H65.349ZM65.499 3.06V10.56H64.074V4.455H63.849L63.999 3.06H65.499ZM67.7287 3.06V3.72L68.1337 3.06H69.1387V4.515H67.7287V10.56H66.3037V4.455H65.9437L66.0937 3.06H67.7287ZM69.5947 9.225V4.395C69.5947 3.975 69.7247 3.64 69.9847 3.39C70.2447 3.13 70.5847 3 71.0047 3H72.0847C72.5047 3 72.8447 3.13 73.1047 3.39C73.3647 3.64 73.4947 3.975 73.4947 4.395V6.375L72.0697 6.225V4.47C72.0697 4.42 72.0447 4.395 71.9947 4.395H71.0947C71.0447 4.395 71.0197 4.42 71.0197 4.47V9.15C71.0197 9.2 71.0447 9.225 71.0947 9.225H71.9947C72.0447 9.225 72.0697 9.205 72.0697 9.165V7.425H73.4947V9.225C73.4947 9.645 73.3647 9.985 73.1047 10.245C72.8447 10.495 72.5047 10.62 72.0847 10.62H71.0047C70.5847 10.62 70.2447 10.495 69.9847 10.245C69.7247 9.985 69.5947 9.645 69.5947 9.225ZM76.5967 9.165V3.06H78.0217V9.165H78.2467L78.3967 10.56H76.5967V9.975L76.2217 10.56H75.8167C75.3567 10.56 74.9867 10.43 74.7067 10.17C74.4367 9.9 74.3017 9.565 74.3017 9.165V4.455H73.9417L74.0917 3.06H75.7267V9.09C75.7267 9.14 75.7517 9.165 75.8017 9.165H76.5967ZM81.3781 9.165V10.56H80.5081C80.0881 10.56 79.7481 10.435 79.4881 10.185C79.2281 9.925 79.0981 9.585 79.0981 9.165V4.455H78.4681L78.5881 3.06H79.0981V1.455H78.7231L78.8431 0.0599968H80.5231V3.06H81.3781L81.2581 4.455H80.5231V9.165H81.3781ZM81.8261 8.205L83.2511 8.355V9.09C83.2511 9.14 83.2761 9.165 83.3261 9.165H83.9261C83.9761 9.165 84.0011 9.14 84.0011 9.09V7.695L82.6661 7.125C82.5061 7.055 82.3261 6.945 82.1261 6.795C81.9261 6.645 81.8261 6.4 81.8261 6.06V4.395C81.8261 3.975 81.9561 3.64 82.2161 3.39C82.4761 3.13 82.8161 3 83.2361 3H84.0161C84.4361 3 84.7761 3.13 85.0361 3.39C85.2961 3.64 85.4261 3.975 85.4261 4.395V5.355L84.0011 5.205V4.47C84.0011 4.42 83.9761 4.395 83.9261 4.395H83.3261C83.2761 4.395 83.2511 4.42 83.2511 4.47V5.865L84.5861 6.435C84.7461 6.505 84.9261 6.615 85.1261 6.765C85.3261 6.915 85.4261 7.16 85.4261 7.5V9.165C85.4261 9.585 85.2961 9.925 85.0361 10.185C84.7761 10.435 84.4361 10.56 84.0161 10.56H83.2361C82.8161 10.56 82.4761 10.435 82.2161 10.185C81.9561 9.925 81.8261 9.585 81.8261 9.165V8.205ZM90.2405 10.56C89.7805 10.56 89.4105 10.43 89.1305 10.17C88.8605 9.9 88.7255 9.565 88.7255 9.165V4.455C88.7255 4.045 88.8605 3.71 89.1305 3.45C89.4105 3.19 89.7805 3.06 90.2405 3.06H90.3005C90.5705 3.06 90.8105 3.125 91.0205 3.255V3.06H92.4455V9.165H92.6555L92.8055 10.56H91.0205V9.975L90.6455 10.56H90.2405ZM90.2255 4.455C90.1755 4.455 90.1505 4.48 90.1505 4.53V9.09C90.1505 9.14 90.1755 9.165 90.2255 9.165H91.0205V4.455H90.2255ZM93.3887 10.56V4.455H93.0287L93.1787 3.06H94.8137V3.645L95.1887 3.06H95.5937C96.0537 3.06 96.4187 3.19 96.6887 3.45C96.9687 3.71 97.1087 4.045 97.1087 4.455V9.165H97.4837L97.3337 10.56H95.6837V4.53C95.6837 4.48 95.6587 4.455 95.6087 4.455H94.8137V10.56H93.3887ZM99.3812 10.56C98.9212 10.56 98.5512 10.43 98.2712 10.17C98.0012 9.9 97.8662 9.565 97.8662 9.165V4.455C97.8662 4.045 98.0012 3.71 98.2712 3.45C98.5512 3.19 98.9212 3.06 99.3812 3.06H99.4412C99.7112 3.06 99.9512 3.125 100.161 3.255V1.455H99.8012L99.9512 0.0599968H101.586V9.165H101.796L101.946 10.56H100.161V9.975L99.7862 10.56H99.3812ZM99.3662 4.455C99.3162 4.455 99.2912 4.48 99.2912 4.53V9.09C99.2912 9.14 99.3162 9.165 99.3662 9.165H100.161V4.455H99.3662ZM105.298 10.56V1.455H104.938L105.088 0.0599968H106.723V3.645L107.098 3.06H107.503C107.963 3.06 108.328 3.19 108.598 3.45C108.878 3.71 109.018 4.045 109.018 4.455V9.165C109.018 9.565 108.878 9.9 108.598 10.17C108.328 10.43 107.963 10.56 107.503 10.56H107.443C107.173 10.56 106.933 10.495 106.723 10.365V10.56H105.298ZM107.518 4.455H106.723V9.165H107.518C107.568 9.165 107.593 9.14 107.593 9.09V4.53C107.593 4.48 107.568 4.455 107.518 4.455ZM109.614 9.225V4.395C109.614 3.975 109.744 3.64 110.004 3.39C110.264 3.13 110.604 3 111.024 3H111.954C112.374 3 112.714 3.13 112.974 3.39C113.234 3.64 113.364 3.975 113.364 4.395V6.24H111.939V4.47C111.939 4.42 111.914 4.395 111.864 4.395H111.114C111.064 4.395 111.039 4.42 111.039 4.47V6.24H113.364V7.635H111.039V9.15C111.039 9.2 111.064 9.225 111.114 9.225H111.864C111.914 9.225 111.939 9.205 111.939 9.165V8.34H113.364V9.225C113.364 9.645 113.234 9.985 112.974 10.245C112.714 10.495 112.374 10.62 111.954 10.62H111.024C110.604 10.62 110.264 10.495 110.004 10.245C109.744 9.985 109.614 9.645 109.614 9.225ZM115.553 10.56C115.093 10.56 114.723 10.43 114.443 10.17C114.173 9.9 114.038 9.565 114.038 9.165V4.455C114.038 4.045 114.173 3.71 114.443 3.45C114.723 3.19 115.093 3.06 115.553 3.06H115.613C115.883 3.06 116.123 3.125 116.333 3.255V3.06H117.758V9.165H117.968L118.118 10.56H116.333V9.975L115.958 10.56H115.553ZM115.538 4.455C115.488 4.455 115.463 4.48 115.463 4.53V9.09C115.463 9.14 115.488 9.165 115.538 9.165H116.333V4.455H115.538ZM120.199 3.06V3.72L120.604 3.06H121.609V4.515H120.199V10.56H118.774V4.455H118.414L118.564 3.06H120.199ZM123.58 10.56C123.12 10.56 122.75 10.43 122.47 10.17C122.2 9.9 122.065 9.565 122.065 9.165V4.455C122.065 4.045 122.2 3.71 122.47 3.45C122.75 3.19 123.12 3.06 123.58 3.06H123.64C123.91 3.06 124.15 3.125 124.36 3.255V1.455H124L124.15 0.0599968H125.785V9.165H125.995L126.145 10.56H124.36V9.975L123.985 10.56H123.58ZM123.565 4.455C123.515 4.455 123.49 4.48 123.49 4.53V9.09C123.49 9.14 123.515 9.165 123.565 9.165H124.36V4.455H123.565ZM129.287 8.205L130.712 8.355V9.09C130.712 9.14 130.737 9.165 130.787 9.165H131.387C131.437 9.165 131.462 9.14 131.462 9.09V7.695L130.127 7.125C129.967 7.055 129.787 6.945 129.587 6.795C129.387 6.645 129.287 6.4 129.287 6.06V4.395C129.287 3.975 129.417 3.64 129.677 3.39C129.937 3.13 130.277 3 130.697 3H131.477C131.897 3 132.237 3.13 132.497 3.39C132.757 3.64 132.887 3.975 132.887 4.395V5.355L131.462 5.205V4.47C131.462 4.42 131.437 4.395 131.387 4.395H130.787C130.737 4.395 130.712 4.42 130.712 4.47V5.865L132.047 6.435C132.207 6.505 132.387 6.615 132.587 6.765C132.787 6.915 132.887 7.16 132.887 7.5V9.165C132.887 9.585 132.757 9.925 132.497 10.185C132.237 10.435 131.897 10.56 131.477 10.56H130.697C130.277 10.56 129.937 10.435 129.677 10.185C129.417 9.925 129.287 9.585 129.287 9.165V8.205ZM136.251 9.165V10.56H135.381C134.961 10.56 134.621 10.435 134.361 10.185C134.101 9.925 133.971 9.585 133.971 9.165V4.455H133.341L133.461 3.06H133.971V1.455H133.596L133.716 0.0599968H135.396V3.06H136.251L136.131 4.455H135.396V9.165H136.251ZM138.361 10.56C137.901 10.56 137.531 10.43 137.251 10.17C136.981 9.9 136.846 9.565 136.846 9.165V4.455H136.621L136.771 3.06H138.271V9.165H139.141V3.06H140.566V11.265C140.566 11.655 140.431 11.965 140.161 12.195C139.891 12.435 139.556 12.555 139.156 12.555H138.256C137.836 12.555 137.496 12.425 137.236 12.165C136.976 11.915 136.846 11.58 136.846 11.16V10.86H138.271V11.265H139.141V9.975L138.766 10.56H138.361ZM142.742 0.0599968L142.757 9.165H143.132L143.282 10.56H141.332L141.317 1.455H141.017L141.167 0.0599968H142.742ZM145.007 1.065L145.157 2.46H143.732V1.065H145.007ZM145.157 3.06V10.56H143.732V4.455H143.507L143.657 3.06H145.157ZM145.962 10.56V4.455H145.602L145.752 3.06H147.387V3.645L147.762 3.06H148.167C148.627 3.06 148.992 3.19 149.262 3.45C149.542 3.71 149.682 4.045 149.682 4.455V9.165H150.057L149.907 10.56H148.257V4.53C148.257 4.48 148.232 4.455 148.182 4.455H147.387V10.56H145.962ZM151.861 10.86V11.19C151.861 11.24 151.886 11.265 151.936 11.265H152.656C152.706 11.265 152.731 11.24 152.731 11.19V9.975L152.356 10.56H151.951C151.491 10.56 151.121 10.43 150.841 10.17C150.571 9.9 150.436 9.565 150.436 9.165V4.455C150.436 4.045 150.571 3.71 150.841 3.45C151.121 3.19 151.491 3.06 151.951 3.06H152.011C152.281 3.06 152.521 3.125 152.731 3.255V3.06H154.156V11.16C154.156 11.58 154.026 11.915 153.766 12.165C153.506 12.425 153.166 12.555 152.746 12.555H151.846C151.426 12.555 151.086 12.425 150.826 12.165C150.566 11.915 150.436 11.58 150.436 11.16V10.86H151.861ZM151.936 4.455C151.886 4.455 151.861 4.48 151.861 4.53V9.09C151.861 9.14 151.886 9.165 151.936 9.165H152.731V4.455H151.936Z" fill="white"/>
</svg>
