<svg width="116" height="13" viewBox="0 0 116 13" fill="none" xmlns="http://www.w3.org/2000/svg">
<path d="M3.63005 9.105L3.51005 10.5H0.225049V1.395H4.88334e-05L0.150049 -7.15256e-07H3.63005L3.48005 1.395H1.65005V4.545H3.33005L3.18005 5.94H1.65005V9.105H3.63005ZM5.66583 10.5C5.20583 10.5 4.83583 10.37 4.55583 10.11C4.28583 9.84 4.15083 9.505 4.15083 9.105V4.395H3.92583L4.07583 3H5.57583V9.105H6.44583V3H7.87083V11.205C7.87083 11.595 7.73583 11.905 7.46583 12.135C7.19583 12.375 6.86083 12.495 6.46083 12.495H5.56083C5.14083 12.495 4.80083 12.365 4.54083 12.105C4.28083 11.855 4.15083 11.52 4.15083 11.1V10.8H5.57583V11.205H6.44583V9.915L6.07083 10.5H5.66583ZM8.47212 9.165V4.335C8.47212 3.915 8.60212 3.58 8.86212 3.33C9.12212 3.07 9.46212 2.94 9.88212 2.94H10.8121C11.2321 2.94 11.5721 3.07 11.8321 3.33C12.0921 3.58 12.2221 3.915 12.2221 4.335V6.18H10.7971V4.41C10.7971 4.36 10.7721 4.335 10.7221 4.335H9.97212C9.92212 4.335 9.89712 4.36 9.89712 4.41V6.18H12.2221V7.575H9.89712V9.09C9.89712 9.14 9.92212 9.165 9.97212 9.165H10.7221C10.7721 9.165 10.7971 9.145 10.7971 9.105V8.28H12.2221V9.165C12.2221 9.585 12.0921 9.925 11.8321 10.185C11.5721 10.435 11.2321 10.56 10.8121 10.56H9.88212C9.46212 10.56 9.12212 10.435 8.86212 10.185C8.60212 9.925 8.47212 9.585 8.47212 9.165ZM12.8227 8.145L14.2477 8.295V9.03C14.2477 9.08 14.2727 9.105 14.3227 9.105H14.9227C14.9727 9.105 14.9977 9.08 14.9977 9.03V7.635L13.6627 7.065C13.5027 6.995 13.3227 6.885 13.1227 6.735C12.9227 6.585 12.8227 6.34 12.8227 6V4.335C12.8227 3.915 12.9527 3.58 13.2127 3.33C13.4727 3.07 13.8127 2.94 14.2327 2.94H15.0127C15.4327 2.94 15.7727 3.07 16.0327 3.33C16.2927 3.58 16.4227 3.915 16.4227 4.335V5.295L14.9977 5.145V4.41C14.9977 4.36 14.9727 4.335 14.9227 4.335H14.3227C14.2727 4.335 14.2477 4.36 14.2477 4.41V5.805L15.5827 6.375C15.7427 6.445 15.9227 6.555 16.1227 6.705C16.3227 6.855 16.4227 7.1 16.4227 7.44V9.105C16.4227 9.525 16.2927 9.865 16.0327 10.125C15.7727 10.375 15.4327 10.5 15.0127 10.5H14.2327C13.8127 10.5 13.4727 10.375 13.2127 10.125C12.9527 9.865 12.8227 9.525 12.8227 9.105V8.145ZM21.2371 10.5C20.7771 10.5 20.4071 10.37 20.1271 10.11C19.8571 9.84 19.7221 9.505 19.7221 9.105V4.395C19.7221 3.985 19.8571 3.65 20.1271 3.39C20.4071 3.13 20.7771 3 21.2371 3H21.2971C21.5671 3 21.8071 3.065 22.0171 3.195V3H23.4421V9.105H23.6521L23.8021 10.5H22.0171V9.915L21.6421 10.5H21.2371ZM21.2221 4.395C21.1721 4.395 21.1471 4.42 21.1471 4.47V9.03C21.1471 9.08 21.1721 9.105 21.2221 9.105H22.0171V4.395H21.2221ZM25.8835 3V3.66L26.2885 3H27.2935V4.455H25.8835V10.5H24.4585V4.395H24.0985L24.2485 3H25.8835ZM27.7495 9.165V4.335C27.7495 3.915 27.8795 3.58 28.1395 3.33C28.3995 3.07 28.7395 2.94 29.1595 2.94H30.0895C30.5095 2.94 30.8495 3.07 31.1095 3.33C31.3695 3.58 31.4995 3.915 31.4995 4.335V6.18H30.0745V4.41C30.0745 4.36 30.0495 4.335 29.9995 4.335H29.2495C29.1995 4.335 29.1745 4.36 29.1745 4.41V6.18H31.4995V7.575H29.1745V9.09C29.1745 9.14 29.1995 9.165 29.2495 9.165H29.9995C30.0495 9.165 30.0745 9.145 30.0745 9.105V8.28H31.4995V9.165C31.4995 9.585 31.3695 9.925 31.1095 10.185C30.8495 10.435 30.5095 10.56 30.0895 10.56H29.1595C28.7395 10.56 28.3995 10.435 28.1395 10.185C27.8795 9.925 27.7495 9.585 27.7495 9.165ZM36.3104 10.5C35.8504 10.5 35.4804 10.37 35.2004 10.11C34.9304 9.84 34.7954 9.505 34.7954 9.105V4.395C34.7954 3.985 34.9304 3.65 35.2004 3.39C35.4804 3.13 35.8504 3 36.3104 3H36.3704C36.6404 3 36.8804 3.065 37.0904 3.195V1.395H36.7304L36.8804 -7.15256e-07H38.5154V9.105H38.7254L38.8754 10.5H37.0904V9.915L36.7154 10.5H36.3104ZM36.2954 4.395C36.2454 4.395 36.2204 4.42 36.2204 4.47V9.03C36.2204 9.08 36.2454 9.105 36.2954 9.105H37.0904V4.395H36.2954ZM40.8835 3V3.66L41.2885 3H42.2935V4.455H40.8835V10.5H39.4585V4.395H39.0985L39.2485 3H40.8835ZM44.1912 10.5C43.7312 10.5 43.3612 10.37 43.0812 10.11C42.8112 9.84 42.6762 9.505 42.6762 9.105V4.395C42.6762 3.985 42.8112 3.65 43.0812 3.39C43.3612 3.13 43.7312 3 44.1912 3H44.2512C44.5212 3 44.7612 3.065 44.9712 3.195V3H46.3962V9.105H46.6062L46.7562 10.5H44.9712V9.915L44.5962 10.5H44.1912ZM44.1762 4.395C44.1262 4.395 44.1012 4.42 44.1012 4.47V9.03C44.1012 9.08 44.1262 9.105 44.1762 9.105H44.9712V4.395H44.1762ZM51.8561 10.5V9.915L51.4811 10.5H51.0761C50.7461 10.5 50.4611 10.43 50.2211 10.29C49.9811 10.15 49.8061 9.96 49.6961 9.72L49.1861 10.5H48.7811C48.3211 10.5 47.9511 10.37 47.6711 10.11C47.4011 9.84 47.2661 9.505 47.2661 9.105V4.395H46.9061L47.0561 3H48.6911V9.03C48.6911 9.08 48.7161 9.105 48.7661 9.105H49.5611V3H50.9861V9.03C50.9861 9.08 51.0111 9.105 51.0611 9.105H51.8561V3H53.2811V9.105H53.4911L53.6411 10.5H51.8561ZM54.2974 10.5V4.395H53.9374L54.0874 3H55.7224V3.585L56.0974 3H56.5024C56.9624 3 57.3274 3.13 57.5974 3.39C57.8774 3.65 58.0174 3.985 58.0174 4.395V9.105H58.3924L58.2424 10.5H56.5924V4.47C56.5924 4.42 56.5674 4.395 56.5174 4.395H55.7224V10.5H54.2974ZM64.3034 9.105V10.5H63.4334C63.0134 10.5 62.6734 10.375 62.4134 10.125C62.1534 9.865 62.0234 9.525 62.0234 9.105V4.395H61.3934L61.5134 3H62.0234V1.395H61.6484L61.7684 -7.15256e-07H63.4484V3H64.3034L64.1834 4.395H63.4484V9.105H64.3034ZM67.1532 4.41C67.1532 4.36 67.1282 4.335 67.0782 4.335H66.1782C66.1282 4.335 66.1032 4.36 66.1032 4.41V9.09C66.1032 9.14 66.1282 9.165 66.1782 9.165H67.0782C67.1282 9.165 67.1532 9.145 67.1532 9.105V4.41ZM64.6782 9.165V4.335C64.6782 3.915 64.8082 3.58 65.0682 3.33C65.3282 3.07 65.6682 2.94 66.0882 2.94H67.1682C67.5882 2.94 67.9282 3.07 68.1882 3.33C68.4482 3.58 68.5782 3.915 68.5782 4.335V9.165C68.5782 9.585 68.4482 9.925 68.1882 10.185C67.9282 10.435 67.5882 10.56 67.1682 10.56H66.0882C65.6682 10.56 65.3282 10.435 65.0682 10.185C64.8082 9.925 64.6782 9.585 64.6782 9.165ZM74.3756 9.105V3H75.8006V9.105H76.0256L76.1756 10.5H74.3756V9.915L74.0006 10.5H73.5956C73.1356 10.5 72.7656 10.37 72.4856 10.11C72.2156 9.84 72.0806 9.505 72.0806 9.105V4.395H71.7206L71.8706 3H73.5056V9.03C73.5056 9.08 73.5306 9.105 73.5806 9.105H74.3756ZM76.6802 10.5V4.395H76.3202L76.4702 3H78.1052V3.585L78.4802 3H78.8852C79.3452 3 79.7102 3.13 79.9802 3.39C80.2602 3.65 80.4002 3.985 80.4002 4.395V9.105H80.7752L80.6252 10.5H78.9752V4.47C78.9752 4.42 78.9502 4.395 78.9002 4.395H78.1052V10.5H76.6802ZM82.5077 1.005L82.6577 2.4H81.2327V1.005H82.5077ZM82.6577 3V10.5H81.2327V4.395H81.0077L81.1577 3H82.6577ZM84.7674 10.5C84.3074 10.5 83.9374 10.37 83.6574 10.11C83.3874 9.84 83.2524 9.505 83.2524 9.105V4.395C83.2524 3.985 83.3874 3.65 83.6574 3.39C83.9374 3.13 84.3074 3 84.7674 3H84.8274C85.0974 3 85.3374 3.065 85.5474 3.195V3H86.9724V11.205H87.2724L87.3924 12.495H85.5474V9.915L85.1724 10.5H84.7674ZM84.7524 4.395C84.7024 4.395 84.6774 4.42 84.6774 4.47V9.03C84.6774 9.08 84.7024 9.105 84.7524 9.105H85.5474V4.395H84.7524ZM90.1226 9.105V3H91.5476V9.105H91.7726L91.9226 10.5H90.1226V9.915L89.7476 10.5H89.3426C88.8826 10.5 88.5126 10.37 88.2326 10.11C87.9626 9.84 87.8276 9.505 87.8276 9.105V4.395H87.4676L87.6176 3H89.2526V9.03C89.2526 9.08 89.2776 9.105 89.3276 9.105H90.1226ZM92.2172 9.165V4.335C92.2172 3.915 92.3472 3.58 92.6072 3.33C92.8672 3.07 93.2072 2.94 93.6272 2.94H94.5572C94.9772 2.94 95.3172 3.07 95.5772 3.33C95.8372 3.58 95.9672 3.915 95.9672 4.335V6.18H94.5422V4.41C94.5422 4.36 94.5172 4.335 94.4672 4.335H93.7172C93.6672 4.335 93.6422 4.36 93.6422 4.41V6.18H95.9672V7.575H93.6422V9.09C93.6422 9.14 93.6672 9.165 93.7172 9.165H94.4672C94.5172 9.165 94.5422 9.145 94.5422 9.105V8.28H95.9672V9.165C95.9672 9.585 95.8372 9.925 95.5772 10.185C95.3172 10.435 94.9772 10.56 94.5572 10.56H93.6272C93.2072 10.56 92.8672 10.435 92.6072 10.185C92.3472 9.925 92.2172 9.585 92.2172 9.165ZM96.7778 10.5V4.395H96.4178L96.5678 3H98.2028V3.585L98.5778 3H98.9828C99.4428 3 99.8078 3.13 100.078 3.39C100.358 3.65 100.498 3.985 100.498 4.395V9.105H100.873L100.723 10.5H99.0728V4.47C99.0728 4.42 99.0478 4.395 98.9978 4.395H98.2028V10.5H96.7778ZM101.255 9.165V4.335C101.255 3.915 101.385 3.58 101.645 3.33C101.905 3.07 102.245 2.94 102.665 2.94H103.595C104.015 2.94 104.355 3.07 104.615 3.33C104.875 3.58 105.005 3.915 105.005 4.335V6.18H103.58V4.41C103.58 4.36 103.555 4.335 103.505 4.335H102.755C102.705 4.335 102.68 4.36 102.68 4.41V6.18H105.005V7.575H102.68V9.09C102.68 9.14 102.705 9.165 102.755 9.165H103.505C103.555 9.165 103.58 9.145 103.58 9.105V8.28H105.005V9.165C105.005 9.585 104.875 9.925 104.615 10.185C104.355 10.435 104.015 10.56 103.595 10.56H102.665C102.245 10.56 101.905 10.435 101.645 10.185C101.385 9.925 101.255 9.585 101.255 9.165ZM105.606 8.145L107.031 8.295V9.03C107.031 9.08 107.056 9.105 107.106 9.105H107.706C107.756 9.105 107.781 9.08 107.781 9.03V7.635L106.446 7.065C106.286 6.995 106.106 6.885 105.906 6.735C105.706 6.585 105.606 6.34 105.606 6V4.335C105.606 3.915 105.736 3.58 105.996 3.33C106.256 3.07 106.596 2.94 107.016 2.94H107.796C108.216 2.94 108.556 3.07 108.816 3.33C109.076 3.58 109.206 3.915 109.206 4.335V5.295L107.781 5.145V4.41C107.781 4.36 107.756 4.335 107.706 4.335H107.106C107.056 4.335 107.031 4.36 107.031 4.41V5.805L108.366 6.375C108.526 6.445 108.706 6.555 108.906 6.705C109.106 6.855 109.206 7.1 109.206 7.44V9.105C109.206 9.525 109.076 9.865 108.816 10.125C108.556 10.375 108.216 10.5 107.796 10.5H107.016C106.596 10.5 106.256 10.375 105.996 10.125C105.736 9.865 105.606 9.525 105.606 9.105V8.145ZM109.81 8.145L111.235 8.295V9.03C111.235 9.08 111.26 9.105 111.31 9.105H111.91C111.96 9.105 111.985 9.08 111.985 9.03V7.635L110.65 7.065C110.49 6.995 110.31 6.885 110.11 6.735C109.91 6.585 109.81 6.34 109.81 6V4.335C109.81 3.915 109.94 3.58 110.2 3.33C110.46 3.07 110.8 2.94 111.22 2.94H112C112.42 2.94 112.76 3.07 113.02 3.33C113.28 3.58 113.41 3.915 113.41 4.335V5.295L111.985 5.145V4.41C111.985 4.36 111.96 4.335 111.91 4.335H111.31C111.26 4.335 111.235 4.36 111.235 4.41V5.805L112.57 6.375C112.73 6.445 112.91 6.555 113.11 6.705C113.31 6.855 113.41 7.1 113.41 7.44V9.105C113.41 9.525 113.28 9.865 113.02 10.125C112.76 10.375 112.42 10.5 112 10.5H111.22C110.8 10.5 110.46 10.375 110.2 10.125C109.94 9.865 109.81 9.525 109.81 9.105V8.145ZM114.014 9.105H115.409V10.5H114.014V9.105Z" fill="#AB5A40"/>
</svg>
