<svg width="67" height="14" viewBox="0 0 67 14" fill="none" xmlns="http://www.w3.org/2000/svg">
<path d="M1.08002 1.13249e-06V9.9H1.96546e-05V1.13249e-06H1.08002ZM3.99377 9.9V2.4H4.93877L5.02877 4.125L4.86377 3.975C5.07377 3.375 5.41877 2.94 5.89877 2.67C6.37877 2.39 6.90877 2.25 7.48877 2.25C7.99877 2.25 8.45877 2.355 8.86877 2.565C9.28877 2.775 9.62377 3.09 9.87377 3.51C10.1238 3.92 10.2488 4.445 10.2488 5.085V9.9H9.16877V5.46C9.16877 4.63 8.99377 4.045 8.64377 3.705C8.29377 3.365 7.85877 3.195 7.33877 3.195C6.97877 3.195 6.62377 3.285 6.27377 3.465C5.92377 3.645 5.63377 3.93 5.40377 4.32C5.18377 4.71 5.07377 5.22 5.07377 5.85V9.9H3.99377ZM15.4197 10.05C14.7197 10.05 14.0797 9.895 13.4997 9.585C12.9197 9.275 12.4797 8.835 12.1797 8.265L13.0797 7.605C13.2797 8.085 13.5847 8.455 13.9947 8.715C14.4147 8.975 14.9147 9.105 15.4947 9.105C16.0147 9.105 16.4247 8.995 16.7247 8.775C17.0347 8.555 17.1897 8.265 17.1897 7.905C17.1897 7.675 17.1197 7.47 16.9797 7.29C16.8397 7.1 16.5747 6.96 16.1847 6.87L14.5047 6.495C13.8047 6.335 13.3047 6.085 13.0047 5.745C12.7047 5.405 12.5547 4.98 12.5547 4.47C12.5547 4.07 12.6647 3.705 12.8847 3.375C13.1147 3.035 13.4397 2.765 13.8597 2.565C14.2797 2.355 14.7697 2.25 15.3297 2.25C16.0297 2.25 16.6197 2.4 17.0997 2.7C17.5897 2.99 17.9497 3.405 18.1797 3.945L17.2947 4.53C17.1347 4.06 16.8697 3.72 16.4997 3.51C16.1297 3.3 15.7397 3.195 15.3297 3.195C14.9797 3.195 14.6747 3.25 14.4147 3.36C14.1547 3.46 13.9547 3.605 13.8147 3.795C13.6847 3.975 13.6197 4.185 13.6197 4.425C13.6197 4.655 13.6947 4.87 13.8447 5.07C14.0047 5.27 14.2897 5.415 14.6997 5.505L16.4547 5.895C17.1247 6.045 17.5947 6.275 17.8647 6.585C18.1347 6.895 18.2697 7.285 18.2697 7.755C18.2697 8.455 18.0047 9.015 17.4747 9.435C16.9547 9.845 16.2697 10.05 15.4197 10.05ZM22.0036 0.285001V7.845C22.0036 8.245 22.1036 8.545 22.3036 8.745C22.5036 8.945 22.7686 9.045 23.0986 9.045C23.3786 9.045 23.6136 8.995 23.8036 8.895C24.0036 8.795 24.1836 8.66 24.3436 8.49L24.7036 9.39C24.4836 9.6 24.2286 9.765 23.9386 9.885C23.6486 9.995 23.3186 10.05 22.9486 10.05C22.3886 10.05 21.9086 9.895 21.5086 9.585C21.1186 9.275 20.9236 8.76 20.9236 8.04V0.585001L22.0036 0.285001ZM24.5836 2.4V3.33H19.5136V2.4H24.5836ZM30.5333 5.025C30.5333 4.455 30.3833 4.01 30.0833 3.69C29.7833 3.36 29.3583 3.195 28.8083 3.195C28.3083 3.195 27.8833 3.315 27.5333 3.555C27.1833 3.785 26.9233 4.155 26.7533 4.665L25.8683 4.125C26.0683 3.555 26.4233 3.1 26.9333 2.76C27.4533 2.42 28.0883 2.25 28.8383 2.25C29.3683 2.25 29.8383 2.345 30.2483 2.535C30.6683 2.715 30.9983 2.995 31.2383 3.375C31.4883 3.755 31.6133 4.235 31.6133 4.815V8.475C31.6133 8.885 31.8033 9.09 32.1833 9.09C32.2633 9.09 32.3533 9.085 32.4533 9.075C32.5533 9.055 32.6383 9.03 32.7083 9L32.6483 9.855C32.5683 9.895 32.4633 9.93 32.3333 9.96C32.2133 9.99 32.0733 10.005 31.9133 10.005C31.6533 10.005 31.4133 9.955 31.1933 9.855C30.9833 9.745 30.8133 9.58 30.6833 9.36C30.5633 9.13 30.5033 8.845 30.5033 8.505V8.295L30.7733 8.325C30.6633 8.715 30.4683 9.04 30.1883 9.3C29.9183 9.55 29.6033 9.74 29.2433 9.87C28.8933 9.99 28.5383 10.05 28.1783 10.05C27.5283 10.05 26.9733 9.885 26.5133 9.555C26.0533 9.215 25.8233 8.71 25.8233 8.04C25.8233 7.5 25.9933 7.05 26.3333 6.69C26.6833 6.32 27.1933 6.065 27.8633 5.925L30.7283 5.325V6.225L28.3733 6.735C27.8833 6.835 27.5183 6.98 27.2783 7.17C27.0383 7.36 26.9183 7.63 26.9183 7.98C26.9183 8.32 27.0383 8.595 27.2783 8.805C27.5283 9.005 27.8833 9.105 28.3433 9.105C28.6133 9.105 28.8783 9.07 29.1383 9C29.3983 8.92 29.6333 8.8 29.8433 8.64C30.0533 8.48 30.2183 8.28 30.3383 8.04C30.4683 7.79 30.5333 7.495 30.5333 7.155V5.025ZM40.1996 1.02L40.4396 1.98C40.4296 1.98 40.4146 1.98 40.3946 1.98C40.3746 1.98 40.3546 1.98 40.3346 1.98C39.8646 1.98 39.4996 2.085 39.2396 2.295C38.9896 2.505 38.8646 2.83 38.8646 3.27L38.2196 2.925C38.2196 2.535 38.3046 2.2 38.4746 1.92C38.6446 1.63 38.8696 1.41 39.1496 1.26C39.4396 1.1 39.7646 1.02 40.1246 1.02C40.1446 1.02 40.1596 1.02 40.1696 1.02C40.1796 1.02 40.1896 1.02 40.1996 1.02ZM37.9496 9C38.6496 9 39.1946 9.165 39.5846 9.495C39.9746 9.815 40.1696 10.24 40.1696 10.77C40.1696 11.25 40.0146 11.665 39.7046 12.015C39.4046 12.365 38.9896 12.635 38.4596 12.825C37.9396 13.025 37.3496 13.125 36.6896 13.125C35.5696 13.125 34.7246 12.925 34.1546 12.525C33.5946 12.135 33.3146 11.655 33.3146 11.085C33.3146 10.685 33.4496 10.325 33.7196 10.005C33.9896 9.695 34.4196 9.515 35.0096 9.465L34.9346 9.675C34.6046 9.585 34.3246 9.43 34.0946 9.21C33.8646 8.99 33.7496 8.68 33.7496 8.28C33.7496 7.9 33.8896 7.56 34.1696 7.26C34.4596 6.96 34.8896 6.78 35.4596 6.72L36.2396 7.08H36.0446C35.5846 7.12 35.2446 7.24 35.0246 7.44C34.8146 7.63 34.7096 7.855 34.7096 8.115C34.7096 8.405 34.8146 8.625 35.0246 8.775C35.2346 8.925 35.5196 9 35.8796 9H37.9496ZM36.7046 12.24C37.2546 12.24 37.7146 12.175 38.0846 12.045C38.4546 11.925 38.7346 11.76 38.9246 11.55C39.1146 11.35 39.2096 11.13 39.2096 10.89C39.2096 10.59 39.0896 10.35 38.8496 10.17C38.6196 10 38.2346 9.915 37.6946 9.915H35.5196C35.1796 9.915 34.8896 10.005 34.6496 10.185C34.4096 10.375 34.2896 10.625 34.2896 10.935C34.2896 11.325 34.5046 11.64 34.9346 11.88C35.3646 12.12 35.9546 12.24 36.7046 12.24ZM36.5996 2.25C37.1796 2.25 37.6896 2.36 38.1296 2.58C38.5696 2.79 38.9146 3.085 39.1646 3.465C39.4146 3.835 39.5396 4.265 39.5396 4.755C39.5396 5.245 39.4096 5.68 39.1496 6.06C38.8996 6.44 38.5546 6.74 38.1146 6.96C37.6746 7.17 37.1696 7.275 36.5996 7.275C35.6596 7.275 34.9296 7.04 34.4096 6.57C33.8996 6.1 33.6446 5.495 33.6446 4.755C33.6446 4.265 33.7696 3.835 34.0196 3.465C34.2696 3.085 34.6146 2.79 35.0546 2.58C35.5046 2.36 36.0196 2.25 36.5996 2.25ZM36.5996 3.12C36.0696 3.12 35.6246 3.27 35.2646 3.57C34.9146 3.87 34.7396 4.265 34.7396 4.755C34.7396 5.245 34.9196 5.645 35.2796 5.955C35.6396 6.255 36.0796 6.405 36.5996 6.405C37.1196 6.405 37.5546 6.255 37.9046 5.955C38.2646 5.645 38.4446 5.245 38.4446 4.755C38.4446 4.265 38.2696 3.87 37.9196 3.57C37.5696 3.27 37.1296 3.12 36.5996 3.12ZM41.816 9.9V2.4H42.716L42.851 3.72C43.031 3.25 43.311 2.89 43.691 2.64C44.071 2.38 44.526 2.25 45.056 2.25C45.196 2.25 45.336 2.265 45.476 2.295C45.616 2.315 45.736 2.36 45.836 2.43L45.656 3.405C45.556 3.355 45.441 3.32 45.311 3.3C45.191 3.27 45.021 3.255 44.801 3.255C44.501 3.255 44.201 3.355 43.901 3.555C43.611 3.745 43.371 4.03 43.181 4.41C42.991 4.79 42.896 5.255 42.896 5.805V9.9H41.816ZM51.5392 5.025C51.5392 4.455 51.3892 4.01 51.0892 3.69C50.7892 3.36 50.3642 3.195 49.8142 3.195C49.3142 3.195 48.8892 3.315 48.5392 3.555C48.1892 3.785 47.9292 4.155 47.7592 4.665L46.8742 4.125C47.0742 3.555 47.4292 3.1 47.9392 2.76C48.4592 2.42 49.0942 2.25 49.8442 2.25C50.3742 2.25 50.8442 2.345 51.2542 2.535C51.6742 2.715 52.0042 2.995 52.2442 3.375C52.4942 3.755 52.6192 4.235 52.6192 4.815V8.475C52.6192 8.885 52.8092 9.09 53.1892 9.09C53.2692 9.09 53.3592 9.085 53.4592 9.075C53.5592 9.055 53.6442 9.03 53.7142 9L53.6542 9.855C53.5742 9.895 53.4692 9.93 53.3392 9.96C53.2192 9.99 53.0792 10.005 52.9192 10.005C52.6592 10.005 52.4192 9.955 52.1992 9.855C51.9892 9.745 51.8192 9.58 51.6892 9.36C51.5692 9.13 51.5092 8.845 51.5092 8.505V8.295L51.7792 8.325C51.6692 8.715 51.4742 9.04 51.1942 9.3C50.9242 9.55 50.6092 9.74 50.2492 9.87C49.8992 9.99 49.5442 10.05 49.1842 10.05C48.5342 10.05 47.9792 9.885 47.5192 9.555C47.0592 9.215 46.8292 8.71 46.8292 8.04C46.8292 7.5 46.9992 7.05 47.3392 6.69C47.6892 6.32 48.1992 6.065 48.8692 5.925L51.7342 5.325V6.225L49.3792 6.735C48.8892 6.835 48.5242 6.98 48.2842 7.17C48.0442 7.36 47.9242 7.63 47.9242 7.98C47.9242 8.32 48.0442 8.595 48.2842 8.805C48.5342 9.005 48.8892 9.105 49.3492 9.105C49.6192 9.105 49.8842 9.07 50.1442 9C50.4042 8.92 50.6392 8.8 50.8492 8.64C51.0592 8.48 51.2242 8.28 51.3442 8.04C51.4742 7.79 51.5392 7.495 51.5392 7.155V5.025ZM55.1754 9.9V2.4H56.1204L56.1954 3.675C56.4454 3.195 56.7904 2.84 57.2304 2.61C57.6704 2.37 58.1354 2.25 58.6254 2.25C59.1654 2.25 59.6654 2.38 60.1254 2.64C60.5854 2.89 60.9254 3.28 61.1454 3.81C61.2954 3.46 61.5104 3.17 61.7904 2.94C62.0804 2.71 62.4004 2.54 62.7504 2.43C63.1004 2.31 63.4404 2.25 63.7704 2.25C64.2504 2.25 64.7004 2.35 65.1204 2.55C65.5404 2.75 65.8804 3.06 66.1404 3.48C66.4104 3.9 66.5454 4.435 66.5454 5.085V9.9H65.4654V5.19C65.4654 4.49 65.2904 3.985 64.9404 3.675C64.5904 3.355 64.1604 3.195 63.6504 3.195C63.2504 3.195 62.8804 3.295 62.5404 3.495C62.2004 3.695 61.9254 3.985 61.7154 4.365C61.5054 4.745 61.4004 5.2 61.4004 5.73V9.9H60.3204V5.19C60.3204 4.49 60.1454 3.985 59.7954 3.675C59.4454 3.355 59.0154 3.195 58.5054 3.195C58.1654 3.195 57.8204 3.29 57.4704 3.48C57.1204 3.66 56.8304 3.945 56.6004 4.335C56.3704 4.725 56.2554 5.225 56.2554 5.835V9.9H55.1754Z" fill="white"/>
</svg>
