<svg width="99" height="19" viewBox="0 0 99 19" fill="none" xmlns="http://www.w3.org/2000/svg">
<g filter="url(#filter0_d_2071_41)">
<path d="M7.97498 2.80142e-06C8.82498 2.80142e-06 9.54998 0.180003 10.15 0.540003C10.76 0.890003 11.26 1.42 11.65 2.13L10.765 2.82C10.435 2.17 10.035 1.705 9.56498 1.425C9.09498 1.145 8.52998 1.005 7.86998 1.005C7.34998 1.005 6.91998 1.085 6.57998 1.245C6.23998 1.395 5.98498 1.605 5.81498 1.875C5.64498 2.135 5.55998 2.43 5.55998 2.76C5.55998 3.14 5.67498 3.47 5.90498 3.75C6.13498 4.02 6.58498 4.235 7.25498 4.395L9.26498 4.86C10.175 5.07 10.815 5.385 11.185 5.805C11.555 6.215 11.74 6.735 11.74 7.365C11.74 7.925 11.585 8.42 11.275 8.85C10.975 9.27 10.55 9.6 9.99998 9.84C9.45998 10.08 8.82498 10.2 8.09498 10.2C7.40498 10.2 6.78998 10.105 6.24998 9.915C5.71998 9.715 5.26998 9.445 4.89998 9.105C4.52998 8.765 4.22998 8.38 3.99998 7.95L4.91498 7.185C5.09498 7.585 5.32998 7.94 5.61998 8.25C5.91998 8.55 6.27998 8.785 6.69998 8.955C7.12998 9.115 7.60998 9.195 8.13998 9.195C8.63998 9.195 9.07498 9.13 9.44498 9C9.81498 8.86 10.1 8.66 10.3 8.4C10.51 8.14 10.615 7.825 10.615 7.455C10.615 7.105 10.5 6.8 10.27 6.54C10.05 6.28 9.64498 6.08 9.05498 5.94L6.89498 5.43C6.30498 5.29 5.82498 5.1 5.45498 4.86C5.09498 4.61 4.83498 4.32 4.67498 3.99C4.51498 3.66 4.43498 3.3 4.43498 2.91C4.43498 2.38 4.57498 1.895 4.85498 1.455C5.14498 1.015 5.55498 0.665003 6.08498 0.405003C6.61498 0.135003 7.24498 2.80142e-06 7.97498 2.80142e-06ZM18.2228 5.175C18.2228 4.605 18.0728 4.16 17.7728 3.84C17.4728 3.51 17.0478 3.345 16.4978 3.345C15.9978 3.345 15.5728 3.465 15.2228 3.705C14.8728 3.935 14.6128 4.305 14.4428 4.815L13.5578 4.275C13.7578 3.705 14.1128 3.25 14.6228 2.91C15.1428 2.57 15.7778 2.4 16.5278 2.4C17.0578 2.4 17.5278 2.495 17.9378 2.685C18.3578 2.865 18.6878 3.145 18.9278 3.525C19.1778 3.905 19.3028 4.385 19.3028 4.965V8.625C19.3028 9.035 19.4928 9.24 19.8728 9.24C19.9528 9.24 20.0428 9.235 20.1428 9.225C20.2428 9.205 20.3278 9.18 20.3978 9.15L20.3378 10.005C20.2578 10.045 20.1528 10.08 20.0228 10.11C19.9028 10.14 19.7628 10.155 19.6028 10.155C19.3428 10.155 19.1028 10.105 18.8828 10.005C18.6728 9.895 18.5028 9.73 18.3728 9.51C18.2528 9.28 18.1928 8.995 18.1928 8.655V8.445L18.4628 8.475C18.3528 8.865 18.1578 9.19 17.8778 9.45C17.6078 9.7 17.2928 9.89 16.9328 10.02C16.5828 10.14 16.2278 10.2 15.8678 10.2C15.2178 10.2 14.6628 10.035 14.2028 9.705C13.7428 9.365 13.5128 8.86 13.5128 8.19C13.5128 7.65 13.6828 7.2 14.0228 6.84C14.3728 6.47 14.8828 6.215 15.5528 6.075L18.4178 5.475V6.375L16.0628 6.885C15.5728 6.985 15.2078 7.13 14.9678 7.32C14.7278 7.51 14.6078 7.78 14.6078 8.13C14.6078 8.47 14.7278 8.745 14.9678 8.955C15.2178 9.155 15.5728 9.255 16.0328 9.255C16.3028 9.255 16.5678 9.22 16.8278 9.15C17.0878 9.07 17.3228 8.95 17.5328 8.79C17.7428 8.63 17.9078 8.43 18.0278 8.19C18.1578 7.94 18.2228 7.645 18.2228 7.305V5.175ZM26.599 2.55H27.739L24.754 10.05H23.659L20.674 2.55H21.904L24.229 8.955L26.599 2.55ZM32.2851 10.2C31.6051 10.2 31.0001 10.045 30.4701 9.735C29.9501 9.425 29.5401 8.98 29.2401 8.4C28.9401 7.81 28.7901 7.11 28.7901 6.3C28.7901 5.49 28.9351 4.795 29.2251 4.215C29.5251 3.625 29.9301 3.175 30.4401 2.865C30.9601 2.555 31.5501 2.4 32.2101 2.4C32.8801 2.4 33.4501 2.55 33.9201 2.85C34.3901 3.15 34.7501 3.56 35.0001 4.08C35.2501 4.6 35.3751 5.19 35.3751 5.85C35.3751 6.01 35.3701 6.15 35.3601 6.27C35.3501 6.39 35.3401 6.495 35.3301 6.585H29.4951V5.625H34.8501L34.2951 5.745C34.2951 5.235 34.2051 4.805 34.0251 4.455C33.8551 4.095 33.6101 3.82 33.2901 3.63C32.9801 3.44 32.6151 3.345 32.1951 3.345C31.7151 3.345 31.2951 3.465 30.9351 3.705C30.5851 3.945 30.3151 4.285 30.1251 4.725C29.9351 5.165 29.8401 5.69 29.8401 6.3C29.8401 6.91 29.9401 7.435 30.1401 7.875C30.3401 8.315 30.6201 8.655 30.9801 8.895C31.3501 9.135 31.7801 9.255 32.2701 9.255C32.7901 9.255 33.2201 9.145 33.5601 8.925C33.9101 8.695 34.1851 8.395 34.3851 8.025L35.2401 8.52C35.0601 8.86 34.8251 9.16 34.5351 9.42C34.2551 9.67 33.9251 9.865 33.5451 10.005C33.1651 10.135 32.7451 10.2 32.2851 10.2ZM45.5705 2.4C46.0705 2.4 46.5105 2.485 46.8905 2.655C47.2805 2.815 47.6105 3.045 47.8805 3.345C48.1505 3.635 48.3655 3.985 48.5255 4.395L47.5055 4.89C47.3655 4.39 47.1305 4.01 46.8005 3.75C46.4705 3.48 46.0505 3.345 45.5405 3.345C45.0605 3.345 44.6405 3.465 44.2805 3.705C43.9305 3.935 43.6605 4.27 43.4705 4.71C43.2805 5.15 43.1855 5.68 43.1855 6.3C43.1855 6.91 43.2805 7.44 43.4705 7.89C43.6705 8.33 43.9455 8.67 44.2955 8.91C44.6555 9.14 45.0755 9.255 45.5555 9.255C45.9355 9.255 46.2655 9.195 46.5455 9.075C46.8255 8.945 47.0555 8.76 47.2355 8.52C47.4155 8.28 47.5405 7.99 47.6105 7.65L48.6005 7.995C48.4505 8.455 48.2355 8.85 47.9555 9.18C47.6755 9.51 47.3305 9.765 46.9205 9.945C46.5205 10.115 46.0655 10.2 45.5555 10.2C44.8855 10.2 44.2905 10.045 43.7705 9.735C43.2505 9.425 42.8405 8.98 42.5405 8.4C42.2505 7.81 42.1055 7.11 42.1055 6.3C42.1055 5.49 42.2555 4.795 42.5555 4.215C42.8555 3.625 43.2655 3.175 43.7855 2.865C44.3055 2.555 44.9005 2.4 45.5705 2.4ZM53.6568 2.4C54.3368 2.4 54.9368 2.555 55.4568 2.865C55.9768 3.175 56.3868 3.625 56.6868 4.215C56.9868 4.795 57.1368 5.49 57.1368 6.3C57.1368 7.11 56.9868 7.81 56.6868 8.4C56.3868 8.98 55.9768 9.425 55.4568 9.735C54.9368 10.045 54.3368 10.2 53.6568 10.2C52.9868 10.2 52.3868 10.045 51.8568 9.735C51.3368 9.425 50.9268 8.98 50.6268 8.4C50.3268 7.81 50.1768 7.11 50.1768 6.3C50.1768 5.49 50.3268 4.795 50.6268 4.215C50.9268 3.625 51.3368 3.175 51.8568 2.865C52.3868 2.555 52.9868 2.4 53.6568 2.4ZM53.6568 3.33C53.1668 3.33 52.7418 3.45 52.3818 3.69C52.0218 3.93 51.7418 4.27 51.5418 4.71C51.3518 5.15 51.2568 5.68 51.2568 6.3C51.2568 6.91 51.3518 7.44 51.5418 7.89C51.7418 8.33 52.0218 8.67 52.3818 8.91C52.7418 9.15 53.1668 9.27 53.6568 9.27C54.1568 9.27 54.5818 9.15 54.9318 8.91C55.2918 8.67 55.5668 8.33 55.7568 7.89C55.9568 7.44 56.0568 6.91 56.0568 6.3C56.0568 5.68 55.9568 5.15 55.7568 4.71C55.5668 4.27 55.2918 3.93 54.9318 3.69C54.5818 3.45 54.1568 3.33 53.6568 3.33ZM59.3737 10.05V2.55H60.3187L60.4087 4.275L60.2437 4.125C60.4537 3.525 60.7987 3.09 61.2787 2.82C61.7587 2.54 62.2887 2.4 62.8687 2.4C63.3787 2.4 63.8387 2.505 64.2487 2.715C64.6687 2.925 65.0037 3.24 65.2537 3.66C65.5037 4.07 65.6287 4.595 65.6287 5.235V10.05H64.5487V5.61C64.5487 4.78 64.3737 4.195 64.0237 3.855C63.6737 3.515 63.2387 3.345 62.7187 3.345C62.3587 3.345 62.0037 3.435 61.6537 3.615C61.3037 3.795 61.0137 4.08 60.7837 4.47C60.5637 4.86 60.4537 5.37 60.4537 6V10.05H59.3737ZM69.737 0.435003V7.995C69.737 8.395 69.837 8.695 70.037 8.895C70.237 9.095 70.502 9.195 70.832 9.195C71.112 9.195 71.347 9.145 71.537 9.045C71.737 8.945 71.917 8.81 72.077 8.64L72.437 9.54C72.217 9.75 71.962 9.915 71.672 10.035C71.382 10.145 71.052 10.2 70.682 10.2C70.122 10.2 69.642 10.045 69.242 9.735C68.852 9.425 68.657 8.91 68.657 8.19V0.735002L69.737 0.435003ZM72.317 2.55V3.48H67.247V2.55H72.317ZM78.2667 5.175C78.2667 4.605 78.1167 4.16 77.8167 3.84C77.5167 3.51 77.0917 3.345 76.5417 3.345C76.0417 3.345 75.6167 3.465 75.2667 3.705C74.9167 3.935 74.6567 4.305 74.4867 4.815L73.6017 4.275C73.8017 3.705 74.1567 3.25 74.6667 2.91C75.1867 2.57 75.8217 2.4 76.5717 2.4C77.1017 2.4 77.5717 2.495 77.9817 2.685C78.4017 2.865 78.7317 3.145 78.9717 3.525C79.2217 3.905 79.3467 4.385 79.3467 4.965V8.625C79.3467 9.035 79.5367 9.24 79.9167 9.24C79.9967 9.24 80.0867 9.235 80.1867 9.225C80.2867 9.205 80.3717 9.18 80.4417 9.15L80.3817 10.005C80.3017 10.045 80.1967 10.08 80.0667 10.11C79.9467 10.14 79.8067 10.155 79.6467 10.155C79.3867 10.155 79.1467 10.105 78.9267 10.005C78.7167 9.895 78.5467 9.73 78.4167 9.51C78.2967 9.28 78.2367 8.995 78.2367 8.655V8.445L78.5067 8.475C78.3967 8.865 78.2017 9.19 77.9217 9.45C77.6517 9.7 77.3367 9.89 76.9767 10.02C76.6267 10.14 76.2717 10.2 75.9117 10.2C75.2617 10.2 74.7067 10.035 74.2467 9.705C73.7867 9.365 73.5567 8.86 73.5567 8.19C73.5567 7.65 73.7267 7.2 74.0667 6.84C74.4167 6.47 74.9267 6.215 75.5967 6.075L78.4617 5.475V6.375L76.1067 6.885C75.6167 6.985 75.2517 7.13 75.0117 7.32C74.7717 7.51 74.6517 7.78 74.6517 8.13C74.6517 8.47 74.7717 8.745 75.0117 8.955C75.2617 9.155 75.6167 9.255 76.0767 9.255C76.3467 9.255 76.6117 9.22 76.8717 9.15C77.1317 9.07 77.3667 8.95 77.5767 8.79C77.7867 8.63 77.9517 8.43 78.0717 8.19C78.2017 7.94 78.2667 7.645 78.2667 7.305V5.175ZM84.8429 2.4C85.3429 2.4 85.7829 2.485 86.1629 2.655C86.5529 2.815 86.8829 3.045 87.1529 3.345C87.4229 3.635 87.6379 3.985 87.7979 4.395L86.7779 4.89C86.6379 4.39 86.4029 4.01 86.0729 3.75C85.7429 3.48 85.3229 3.345 84.8129 3.345C84.3329 3.345 83.9129 3.465 83.5529 3.705C83.2029 3.935 82.9329 4.27 82.7429 4.71C82.5529 5.15 82.4579 5.68 82.4579 6.3C82.4579 6.91 82.5529 7.44 82.7429 7.89C82.9429 8.33 83.2179 8.67 83.5679 8.91C83.9279 9.14 84.3479 9.255 84.8279 9.255C85.2079 9.255 85.5379 9.195 85.8179 9.075C86.0979 8.945 86.3279 8.76 86.5079 8.52C86.6879 8.28 86.8129 7.99 86.8829 7.65L87.8729 7.995C87.7229 8.455 87.5079 8.85 87.2279 9.18C86.9479 9.51 86.6029 9.765 86.1929 9.945C85.7929 10.115 85.3379 10.2 84.8279 10.2C84.1579 10.2 83.5629 10.045 83.0429 9.735C82.5229 9.425 82.1129 8.98 81.8129 8.4C81.5229 7.81 81.3779 7.11 81.3779 6.3C81.3779 5.49 81.5279 4.795 81.8279 4.215C82.1279 3.625 82.5379 3.175 83.0579 2.865C83.5779 2.555 84.1729 2.4 84.8429 2.4ZM91.5192 0.435003V7.995C91.5192 8.395 91.6192 8.695 91.8192 8.895C92.0192 9.095 92.2842 9.195 92.6142 9.195C92.8942 9.195 93.1292 9.145 93.3192 9.045C93.5192 8.945 93.6992 8.81 93.8592 8.64L94.2192 9.54C93.9992 9.75 93.7442 9.915 93.4542 10.035C93.1642 10.145 92.8342 10.2 92.4642 10.2C91.9042 10.2 91.4242 10.045 91.0242 9.735C90.6342 9.425 90.4392 8.91 90.4392 8.19V0.735002L91.5192 0.435003ZM94.0992 2.55V3.48H89.0292V2.55H94.0992Z" fill="white"/>
</g>
<defs>
<filter id="filter0_d_2071_41" x="0" y="0" width="98.2192" height="18.2" filterUnits="userSpaceOnUse" color-interpolation-filters="sRGB">
<feFlood flood-opacity="0" result="BackgroundImageFix"/>
<feColorMatrix in="SourceAlpha" type="matrix" values="0 0 0 0 0 0 0 0 0 0 0 0 0 0 0 0 0 0 127 0" result="hardAlpha"/>
<feOffset dy="4"/>
<feGaussianBlur stdDeviation="2"/>
<feComposite in2="hardAlpha" operator="out"/>
<feColorMatrix type="matrix" values="0 0 0 0 0 0 0 0 0 0 0 0 0 0 0 0 0 0 0.25 0"/>
<feBlend mode="normal" in2="BackgroundImageFix" result="effect1_dropShadow_2071_41"/>
<feBlend mode="normal" in="SourceGraphic" in2="effect1_dropShadow_2071_41" result="shape"/>
</filter>
</defs>
</svg>
