<svg width="62" height="15" viewBox="0 0 62 15" fill="none" xmlns="http://www.w3.org/2000/svg">
<path d="M7.79994 1.05V2.055H4.43994V10.95H3.35994V2.055H-5.85783e-05V1.05H7.79994ZM10.9462 11.1C10.2662 11.1 9.66119 10.945 9.13119 10.635C8.61119 10.325 8.20119 9.88 7.90119 9.3C7.60119 8.71 7.45119 8.01 7.45119 7.2C7.45119 6.39 7.59619 5.695 7.88619 5.115C8.18619 4.525 8.59119 4.075 9.10119 3.765C9.62119 3.455 10.2112 3.3 10.8712 3.3C11.5412 3.3 12.1112 3.45 12.5812 3.75C13.0512 4.05 13.4112 4.46 13.6612 4.98C13.9112 5.5 14.0362 6.09 14.0362 6.75C14.0362 6.91 14.0312 7.05 14.0212 7.17C14.0112 7.29 14.0012 7.395 13.9912 7.485H8.15619V6.525H13.5112L12.9562 6.645C12.9562 6.135 12.8662 5.705 12.6862 5.355C12.5162 4.995 12.2712 4.72 11.9512 4.53C11.6412 4.34 11.2762 4.245 10.8562 4.245C10.3762 4.245 9.95619 4.365 9.59619 4.605C9.24619 4.845 8.97619 5.185 8.78619 5.625C8.59619 6.065 8.50119 6.59 8.50119 7.2C8.50119 7.81 8.60119 8.335 8.80119 8.775C9.00119 9.215 9.28119 9.555 9.64119 9.795C10.0112 10.035 10.4412 10.155 10.9312 10.155C11.4512 10.155 11.8812 10.045 12.2212 9.825C12.5712 9.595 12.8462 9.295 13.0462 8.925L13.9012 9.42C13.7212 9.76 13.4862 10.06 13.1962 10.32C12.9162 10.57 12.5862 10.765 12.2062 10.905C11.8262 11.035 11.4062 11.1 10.9462 11.1ZM17.3019 -3.33786e-06V9.075C17.3019 9.435 17.3569 9.705 17.4669 9.885C17.5769 10.065 17.7869 10.155 18.0969 10.155C18.2669 10.155 18.4069 10.14 18.5169 10.11C18.6269 10.08 18.7719 10.025 18.9519 9.945L18.8019 10.89C18.6719 10.96 18.5119 11.01 18.3219 11.04C18.1419 11.08 17.9669 11.1 17.7969 11.1C17.1969 11.1 16.7819 10.915 16.5519 10.545C16.3319 10.175 16.2219 9.7 16.2219 9.12V-3.33786e-06H17.3019ZM23.4413 11.1C22.7613 11.1 22.1563 10.945 21.6263 10.635C21.1063 10.325 20.6963 9.88 20.3963 9.3C20.0963 8.71 19.9463 8.01 19.9463 7.2C19.9463 6.39 20.0913 5.695 20.3813 5.115C20.6813 4.525 21.0863 4.075 21.5963 3.765C22.1163 3.455 22.7063 3.3 23.3663 3.3C24.0363 3.3 24.6063 3.45 25.0763 3.75C25.5463 4.05 25.9063 4.46 26.1563 4.98C26.4063 5.5 26.5313 6.09 26.5313 6.75C26.5313 6.91 26.5263 7.05 26.5163 7.17C26.5063 7.29 26.4963 7.395 26.4863 7.485H20.6513V6.525H26.0063L25.4513 6.645C25.4513 6.135 25.3613 5.705 25.1813 5.355C25.0113 4.995 24.7663 4.72 24.4463 4.53C24.1363 4.34 23.7713 4.245 23.3513 4.245C22.8713 4.245 22.4513 4.365 22.0913 4.605C21.7413 4.845 21.4713 5.185 21.2813 5.625C21.0913 6.065 20.9963 6.59 20.9963 7.2C20.9963 7.81 21.0963 8.335 21.2963 8.775C21.4963 9.215 21.7763 9.555 22.1363 9.795C22.5063 10.035 22.9363 10.155 23.4263 10.155C23.9463 10.155 24.3763 10.045 24.7163 9.825C25.0663 9.595 25.3413 9.295 25.5413 8.925L26.3963 9.42C26.2163 9.76 25.9813 10.06 25.6913 10.32C25.4113 10.57 25.0813 10.765 24.7013 10.905C24.3213 11.035 23.9013 11.1 23.4413 11.1ZM34.807 2.07L35.047 3.03C35.037 3.03 35.022 3.03 35.002 3.03C34.982 3.03 34.962 3.03 34.942 3.03C34.472 3.03 34.107 3.135 33.847 3.345C33.597 3.555 33.472 3.88 33.472 4.32L32.827 3.975C32.827 3.585 32.912 3.25 33.082 2.97C33.252 2.68 33.477 2.46 33.757 2.31C34.047 2.15 34.372 2.07 34.732 2.07C34.752 2.07 34.767 2.07 34.777 2.07C34.787 2.07 34.797 2.07 34.807 2.07ZM32.557 10.05C33.257 10.05 33.802 10.215 34.192 10.545C34.582 10.865 34.777 11.29 34.777 11.82C34.777 12.3 34.622 12.715 34.312 13.065C34.012 13.415 33.597 13.685 33.067 13.875C32.547 14.075 31.957 14.175 31.297 14.175C30.177 14.175 29.332 13.975 28.762 13.575C28.202 13.185 27.922 12.705 27.922 12.135C27.922 11.735 28.057 11.375 28.327 11.055C28.597 10.745 29.027 10.565 29.617 10.515L29.542 10.725C29.212 10.635 28.932 10.48 28.702 10.26C28.472 10.04 28.357 9.73 28.357 9.33C28.357 8.95 28.497 8.61 28.777 8.31C29.067 8.01 29.497 7.83 30.067 7.77L30.847 8.13H30.652C30.192 8.17 29.852 8.29 29.632 8.49C29.422 8.68 29.317 8.905 29.317 9.165C29.317 9.455 29.422 9.675 29.632 9.825C29.842 9.975 30.127 10.05 30.487 10.05H32.557ZM31.312 13.29C31.862 13.29 32.322 13.225 32.692 13.095C33.062 12.975 33.342 12.81 33.532 12.6C33.722 12.4 33.817 12.18 33.817 11.94C33.817 11.64 33.697 11.4 33.457 11.22C33.227 11.05 32.842 10.965 32.302 10.965H30.127C29.787 10.965 29.497 11.055 29.257 11.235C29.017 11.425 28.897 11.675 28.897 11.985C28.897 12.375 29.112 12.69 29.542 12.93C29.972 13.17 30.562 13.29 31.312 13.29ZM31.207 3.3C31.787 3.3 32.297 3.41 32.737 3.63C33.177 3.84 33.522 4.135 33.772 4.515C34.022 4.885 34.147 5.315 34.147 5.805C34.147 6.295 34.017 6.73 33.757 7.11C33.507 7.49 33.162 7.79 32.722 8.01C32.282 8.22 31.777 8.325 31.207 8.325C30.267 8.325 29.537 8.09 29.017 7.62C28.507 7.15 28.252 6.545 28.252 5.805C28.252 5.315 28.377 4.885 28.627 4.515C28.877 4.135 29.222 3.84 29.662 3.63C30.112 3.41 30.627 3.3 31.207 3.3ZM31.207 4.17C30.677 4.17 30.232 4.32 29.872 4.62C29.522 4.92 29.347 5.315 29.347 5.805C29.347 6.295 29.527 6.695 29.887 7.005C30.247 7.305 30.687 7.455 31.207 7.455C31.727 7.455 32.162 7.305 32.512 7.005C32.872 6.695 33.052 6.295 33.052 5.805C33.052 5.315 32.877 4.92 32.527 4.62C32.177 4.32 31.737 4.17 31.207 4.17ZM36.4235 10.95V3.45H37.3235L37.4585 4.77C37.6385 4.3 37.9185 3.94 38.2985 3.69C38.6785 3.43 39.1335 3.3 39.6635 3.3C39.8035 3.3 39.9435 3.315 40.0835 3.345C40.2235 3.365 40.3435 3.41 40.4435 3.48L40.2635 4.455C40.1635 4.405 40.0485 4.37 39.9185 4.35C39.7985 4.32 39.6285 4.305 39.4085 4.305C39.1085 4.305 38.8085 4.405 38.5085 4.605C38.2185 4.795 37.9785 5.08 37.7885 5.46C37.5985 5.84 37.5035 6.305 37.5035 6.855V10.95H36.4235ZM46.1466 6.075C46.1466 5.505 45.9966 5.06 45.6966 4.74C45.3966 4.41 44.9716 4.245 44.4216 4.245C43.9216 4.245 43.4966 4.365 43.1466 4.605C42.7966 4.835 42.5366 5.205 42.3666 5.715L41.4816 5.175C41.6816 4.605 42.0366 4.15 42.5466 3.81C43.0666 3.47 43.7016 3.3 44.4516 3.3C44.9816 3.3 45.4516 3.395 45.8616 3.585C46.2816 3.765 46.6116 4.045 46.8516 4.425C47.1016 4.805 47.2266 5.285 47.2266 5.865V9.525C47.2266 9.935 47.4166 10.14 47.7966 10.14C47.8766 10.14 47.9666 10.135 48.0666 10.125C48.1666 10.105 48.2516 10.08 48.3216 10.05L48.2616 10.905C48.1816 10.945 48.0766 10.98 47.9466 11.01C47.8266 11.04 47.6866 11.055 47.5266 11.055C47.2666 11.055 47.0266 11.005 46.8066 10.905C46.5966 10.795 46.4266 10.63 46.2966 10.41C46.1766 10.18 46.1166 9.895 46.1166 9.555V9.345L46.3866 9.375C46.2766 9.765 46.0816 10.09 45.8016 10.35C45.5316 10.6 45.2166 10.79 44.8566 10.92C44.5066 11.04 44.1516 11.1 43.7916 11.1C43.1416 11.1 42.5866 10.935 42.1266 10.605C41.6666 10.265 41.4366 9.76 41.4366 9.09C41.4366 8.55 41.6066 8.1 41.9466 7.74C42.2966 7.37 42.8066 7.115 43.4766 6.975L46.3416 6.375V7.275L43.9866 7.785C43.4966 7.885 43.1316 8.03 42.8916 8.22C42.6516 8.41 42.5316 8.68 42.5316 9.03C42.5316 9.37 42.6516 9.645 42.8916 9.855C43.1416 10.055 43.4966 10.155 43.9566 10.155C44.2266 10.155 44.4916 10.12 44.7516 10.05C45.0116 9.97 45.2466 9.85 45.4566 9.69C45.6666 9.53 45.8316 9.33 45.9516 9.09C46.0816 8.84 46.1466 8.545 46.1466 8.205V6.075ZM49.7828 10.95V3.45H50.7278L50.8028 4.725C51.0528 4.245 51.3978 3.89 51.8378 3.66C52.2778 3.42 52.7428 3.3 53.2328 3.3C53.7728 3.3 54.2728 3.43 54.7328 3.69C55.1928 3.94 55.5328 4.33 55.7528 4.86C55.9028 4.51 56.1178 4.22 56.3978 3.99C56.6878 3.76 57.0078 3.59 57.3578 3.48C57.7078 3.36 58.0478 3.3 58.3778 3.3C58.8578 3.3 59.3078 3.4 59.7278 3.6C60.1478 3.8 60.4878 4.11 60.7478 4.53C61.0178 4.95 61.1528 5.485 61.1528 6.135V10.95H60.0728V6.24C60.0728 5.54 59.8978 5.035 59.5478 4.725C59.1978 4.405 58.7678 4.245 58.2578 4.245C57.8578 4.245 57.4878 4.345 57.1478 4.545C56.8078 4.745 56.5328 5.035 56.3228 5.415C56.1128 5.795 56.0078 6.25 56.0078 6.78V10.95H54.9278V6.24C54.9278 5.54 54.7528 5.035 54.4028 4.725C54.0528 4.405 53.6228 4.245 53.1128 4.245C52.7728 4.245 52.4278 4.34 52.0778 4.53C51.7278 4.71 51.4378 4.995 51.2078 5.385C50.9778 5.775 50.8628 6.275 50.8628 6.885V10.95H49.7828Z" fill="white"/>
</svg>
