<svg width="47" height="12" viewBox="0 0 47 12" fill="none" xmlns="http://www.w3.org/2000/svg">
<path d="M7.79994 1.05V2.055H4.43994V10.95H3.35994V2.055H-5.85783e-05V1.05H7.79994ZM10.4771 3.45V10.95H9.39709V3.45H10.4771ZM10.0121 2.01C9.74209 2.01 9.52209 1.93 9.35209 1.77C9.19209 1.6 9.11209 1.38 9.11209 1.11C9.11209 0.839997 9.19209 0.624996 9.35209 0.464996C9.52209 0.294996 9.74209 0.209997 10.0121 0.209997C10.2821 0.209997 10.4971 0.294996 10.6571 0.464996C10.8271 0.624996 10.9121 0.839997 10.9121 1.11C10.9121 1.38 10.8271 1.6 10.6571 1.77C10.4971 1.93 10.2821 2.01 10.0121 2.01ZM19.46 3.45L16.355 6.675L16.1 6.93L13.805 9.33V7.98L18.095 3.45H19.46ZM14.315 -3.33786e-06V10.95H13.235V-3.33786e-06H14.315ZM16.445 6.12L19.61 10.95H18.305L15.56 6.735L16.445 6.12ZM27.2312 1.335V8.895C27.2312 9.295 27.3312 9.595 27.5312 9.795C27.7312 9.995 27.9962 10.095 28.3262 10.095C28.6062 10.095 28.8412 10.045 29.0312 9.945C29.2312 9.845 29.4112 9.71 29.5712 9.54L29.9312 10.44C29.7112 10.65 29.4562 10.815 29.1662 10.935C28.8762 11.045 28.5462 11.1 28.1762 11.1C27.6162 11.1 27.1362 10.945 26.7362 10.635C26.3462 10.325 26.1512 9.81 26.1512 9.09V1.635L27.2312 1.335ZM29.8112 3.45V4.38H24.7412V3.45H29.8112ZM34.4859 3.3C35.1659 3.3 35.7659 3.455 36.2859 3.765C36.8059 4.075 37.2159 4.525 37.5159 5.115C37.8159 5.695 37.9659 6.39 37.9659 7.2C37.9659 8.01 37.8159 8.71 37.5159 9.3C37.2159 9.88 36.8059 10.325 36.2859 10.635C35.7659 10.945 35.1659 11.1 34.4859 11.1C33.8159 11.1 33.2159 10.945 32.6859 10.635C32.1659 10.325 31.7559 9.88 31.4559 9.3C31.1559 8.71 31.0059 8.01 31.0059 7.2C31.0059 6.39 31.1559 5.695 31.4559 5.115C31.7559 4.525 32.1659 4.075 32.6859 3.765C33.2159 3.455 33.8159 3.3 34.4859 3.3ZM34.4859 4.23C33.9959 4.23 33.5709 4.35 33.2109 4.59C32.8509 4.83 32.5709 5.17 32.3709 5.61C32.1809 6.05 32.0859 6.58 32.0859 7.2C32.0859 7.81 32.1809 8.34 32.3709 8.79C32.5709 9.23 32.8509 9.57 33.2109 9.81C33.5709 10.05 33.9959 10.17 34.4859 10.17C34.9859 10.17 35.4109 10.05 35.7609 9.81C36.1209 9.57 36.3959 9.23 36.5859 8.79C36.7859 8.34 36.8859 7.81 36.8859 7.2C36.8859 6.58 36.7859 6.05 36.5859 5.61C36.3959 5.17 36.1209 4.83 35.7609 4.59C35.4109 4.35 34.9859 4.23 34.4859 4.23ZM46.4278 3.45L43.3228 6.675L43.0678 6.93L40.7728 9.33V7.98L45.0628 3.45H46.4278ZM41.2828 -3.33786e-06V10.95H40.2028V-3.33786e-06H41.2828ZM43.4128 6.12L46.5778 10.95H45.2728L42.5278 6.735L43.4128 6.12Z" fill="white"/>
</svg>
