<svg width="36" height="12" viewBox="0 0 36 12" fill="none" xmlns="http://www.w3.org/2000/svg">
<path d="M8.50497 1.05L4.87497 10.95H3.64497L-2.92864e-05 1.05H1.15497L3.67497 8.115L4.25997 9.96L4.84497 8.115L7.34997 1.05H8.50497ZM11.3714 3.45V10.95H10.2914V3.45H11.3714ZM10.9064 2.01C10.6364 2.01 10.4164 1.93 10.2464 1.77C10.0864 1.6 10.0064 1.38 10.0064 1.11C10.0064 0.839999 10.0864 0.624999 10.2464 0.464999C10.4164 0.294999 10.6364 0.21 10.9064 0.21C11.1764 0.21 11.3914 0.294999 11.5514 0.464999C11.7214 0.624999 11.8064 0.839999 11.8064 1.11C11.8064 1.38 11.7214 1.6 11.5514 1.77C11.3914 1.93 11.1764 2.01 10.9064 2.01ZM17.6393 11.1C17.0193 11.1 16.4693 10.93 15.9893 10.59C15.5193 10.24 15.1993 9.79 15.0293 9.24L15.1643 9.045L15.0743 10.95H14.1293V-4.76837e-07H15.2093V5.22L15.0743 5.025C15.2743 4.515 15.6043 4.1 16.0643 3.78C16.5243 3.46 17.0543 3.3 17.6543 3.3C18.2543 3.3 18.7993 3.455 19.2893 3.765C19.7893 4.075 20.1843 4.52 20.4743 5.1C20.7743 5.68 20.9243 6.38 20.9243 7.2C20.9243 8.01 20.7743 8.71 20.4743 9.3C20.1843 9.88 19.7893 10.325 19.2893 10.635C18.7993 10.945 18.2493 11.1 17.6393 11.1ZM17.5193 10.155C18.2493 10.155 18.8193 9.89 19.2293 9.36C19.6393 8.82 19.8443 8.1 19.8443 7.2C19.8443 6.3 19.6393 5.585 19.2293 5.055C18.8293 4.515 18.2643 4.245 17.5343 4.245C17.0743 4.245 16.6693 4.37 16.3193 4.62C15.9693 4.87 15.6943 5.22 15.4943 5.67C15.3043 6.11 15.2093 6.63 15.2093 7.23C15.2093 7.82 15.3043 8.335 15.4943 8.775C15.6943 9.215 15.9693 9.555 16.3193 9.795C16.6693 10.035 17.0693 10.155 17.5193 10.155ZM26.152 11.1C25.472 11.1 24.867 10.945 24.337 10.635C23.817 10.325 23.407 9.88 23.107 9.3C22.807 8.71 22.657 8.01 22.657 7.2C22.657 6.39 22.802 5.695 23.092 5.115C23.392 4.525 23.797 4.075 24.307 3.765C24.827 3.455 25.417 3.3 26.077 3.3C26.747 3.3 27.317 3.45 27.787 3.75C28.257 4.05 28.617 4.46 28.867 4.98C29.117 5.5 29.242 6.09 29.242 6.75C29.242 6.91 29.237 7.05 29.227 7.17C29.217 7.29 29.207 7.395 29.197 7.485H23.362V6.525H28.717L28.162 6.645C28.162 6.135 28.072 5.705 27.892 5.355C27.722 4.995 27.477 4.72 27.157 4.53C26.847 4.34 26.482 4.245 26.062 4.245C25.582 4.245 25.162 4.365 24.802 4.605C24.452 4.845 24.182 5.185 23.992 5.625C23.802 6.065 23.707 6.59 23.707 7.2C23.707 7.81 23.807 8.335 24.007 8.775C24.207 9.215 24.487 9.555 24.847 9.795C25.217 10.035 25.647 10.155 26.137 10.155C26.657 10.155 27.087 10.045 27.427 9.825C27.777 9.595 28.052 9.295 28.252 8.925L29.107 9.42C28.927 9.76 28.692 10.06 28.402 10.32C28.122 10.57 27.792 10.765 27.412 10.905C27.032 11.035 26.612 11.1 26.152 11.1ZM31.4877 10.95V3.45H32.3877L32.5227 4.77C32.7027 4.3 32.9827 3.94 33.3627 3.69C33.7427 3.43 34.1977 3.3 34.7277 3.3C34.8677 3.3 35.0077 3.315 35.1477 3.345C35.2877 3.365 35.4077 3.41 35.5077 3.48L35.3277 4.455C35.2277 4.405 35.1127 4.37 34.9827 4.35C34.8627 4.32 34.6927 4.305 34.4727 4.305C34.1727 4.305 33.8727 4.405 33.5727 4.605C33.2827 4.795 33.0427 5.08 32.8527 5.46C32.6627 5.84 32.5677 6.305 32.5677 6.855V10.95H31.4877Z" fill="white"/>
</svg>
